<?xml version="1.0" encoding="UTF-8"?>
<!-- Do not edit this file with editors other than draw.io -->
<!DOCTYPE svg PUBLIC "-//W3C//DTD SVG 1.1//EN" "http://www.w3.org/Graphics/SVG/1.1/DTD/svg11.dtd">
<svg xmlns="http://www.w3.org/2000/svg" xmlns:xlink="http://www.w3.org/1999/xlink" version="1.1" width="51px" height="51px" viewBox="-0.5 -0.5 51 51" content="&lt;mxfile host=&quot;Electron&quot; modified=&quot;2024-05-26T18:31:21.627Z&quot; agent=&quot;Mozilla/5.0 (Windows NT 10.0; Win64; x64) AppleWebKit/537.36 (KHTML, like Gecko) draw.io/24.4.8 Chrome/124.0.6367.207 Electron/30.0.6 Safari/537.36&quot; version=&quot;24.4.8&quot; etag=&quot;OWUFuCBwrMibYlScpEsk&quot; type=&quot;device&quot; scale=&quot;1&quot; border=&quot;0&quot;&gt;&#10;  &lt;diagram name=&quot;Page-1&quot; id=&quot;podyKm1MmT9j8Y2vi6Uh&quot;&gt;&#10;    &lt;mxGraphModel dx=&quot;1038&quot; dy=&quot;704&quot; grid=&quot;1&quot; gridSize=&quot;10&quot; guides=&quot;1&quot; tooltips=&quot;1&quot; connect=&quot;1&quot; arrows=&quot;1&quot; fold=&quot;1&quot; page=&quot;1&quot; pageScale=&quot;1&quot; pageWidth=&quot;827&quot; pageHeight=&quot;1169&quot; math=&quot;0&quot; shadow=&quot;0&quot;&gt;&#10;      &lt;root&gt;&#10;        &lt;mxCell id=&quot;0&quot; /&gt;&#10;        &lt;mxCell id=&quot;1&quot; parent=&quot;0&quot; /&gt;&#10;        &lt;mxCell id=&quot;2&quot; value=&quot;&quot; style=&quot;sketch=0;points=[[0.015,0.015,0],[0.985,0.015,0],[0.985,0.985,0],[0.015,0.985,0],[0.25,0,0],[0.5,0,0],[0.75,0,0],[1,0.25,0],[1,0.5,0],[1,0.75,0],[0.75,1,0],[0.5,1,0],[0.25,1,0],[0,0.75,0],[0,0.5,0],[0,0.25,0]];verticalLabelPosition=bottom;html=1;verticalAlign=top;aspect=fixed;align=center;pointerEvents=1;shape=mxgraph.cisco19.rect;prIcon=ise;fillColor=#FAFAFA;strokeColor=#3C708A;gradientColor=none;&quot; vertex=&quot;1&quot; parent=&quot;1&quot;&gt;&#10;          &lt;mxGeometry x=&quot;347.64&quot; y=&quot;180&quot; width=&quot;50&quot; height=&quot;50&quot; as=&quot;geometry&quot; /&gt;&#10;        &lt;/mxCell&gt;&#10;      &lt;/root&gt;&#10;    &lt;/mxGraphModel&gt;&#10;  &lt;/diagram&gt;&#10;&lt;/mxfile&gt;&#10;"><defs/><g><g><rect x="-0.36" y="0" width="50" height="50" fill="none" stroke="none" pointer-events="all"/><path d="M 2.71 0 C 1.02 0 -0.36 1.37 -0.36 3.05 L -0.36 46.95 C -0.36 48.63 1.02 50 2.71 50 L 46.57 50 C 48.26 50 49.64 48.63 49.64 46.95 L 49.64 3.05 C 49.64 1.37 48.26 0 46.57 0 Z" fill="#fafafa" stroke="none" pointer-events="all"/><rect x="-0.36" y="0" width="50" height="50" fill="none" stroke="none" pointer-events="all"/><path d="M 19.4 8.37 C 17.86 8.31 16.39 8.68 15.11 9.48 C 15.1 9.49 15.09 9.49 15.08 9.5 C 12.64 11.27 11.08 12.98 10.15 15.56 C 9.37 17.7 9.71 20.22 10.68 22.79 C 11.64 25.37 13.24 28.02 15.1 30.44 C 15.1 30.44 15.11 30.44 15.11 30.45 C 19.07 35.36 23.42 39.48 28.87 41.01 C 29.1 41.08 29.35 41.02 29.52 40.86 C 29.69 40.7 29.76 40.45 29.7 40.22 C 29.64 39.99 29.46 39.82 29.23 39.76 C 24.2 38.34 20.02 34.46 16.14 29.64 C 14.63 27.69 13.34 25.58 12.42 23.54 C 12.66 23.65 12.94 23.62 13.14 23.44 C 13.33 23.27 13.41 23 13.33 22.75 C 12.76 20.92 12.22 19.05 13.9 16.47 C 15.06 14.69 16.78 13.51 19.05 12.73 C 20.46 12.38 22.82 12.98 24.64 13.76 C 24.85 13.86 25.11 13.84 25.3 13.7 C 25.49 13.56 25.59 13.33 25.57 13.1 C 25.54 12.86 25.38 12.66 25.16 12.57 C 23.2 11.72 20.72 10.96 18.7 11.48 C 18.69 11.48 18.67 11.48 18.66 11.49 C 16.17 12.33 14.15 13.7 12.8 15.75 C 12.8 15.75 12.8 15.75 12.8 15.75 C 11.36 17.96 11.34 19.95 11.67 21.59 C 10.99 19.48 10.82 17.53 11.38 16.01 C 11.38 16.01 11.39 16.01 11.39 16 C 12.22 13.68 13.5 12.25 15.82 10.58 C 17.93 9.26 20.64 9.3 23.41 11 C 23.42 11 23.43 11.01 23.44 11.02 C 27.16 13.03 30.57 16.14 33.26 19.14 C 35.67 21.9 37.13 24.73 38.13 27.49 C 38.03 27.31 37.85 27.19 37.65 27.16 C 37.44 27.14 37.24 27.21 37.09 27.36 C 35.69 28.77 34.03 29.71 32.31 30.7 C 32.21 30.76 32.13 30.83 32.08 30.93 C 32.18 30.6 32.33 30.22 32.42 29.92 C 34.02 29.1 35.26 28.11 36.44 27.06 C 36.63 26.91 36.72 26.67 36.68 26.44 C 36.63 26.2 36.46 26.01 36.23 25.94 C 36 25.86 35.75 25.92 35.58 26.09 C 34.35 27.17 33.18 28.12 31.59 28.88 C 31.42 28.96 31.3 29.11 31.25 29.29 C 30.6 31.6 29.34 34.99 28.02 37.69 C 27.91 37.9 27.92 38.16 28.05 38.36 C 28.18 38.56 28.41 38.67 28.65 38.65 C 28.89 38.63 29.1 38.48 29.2 38.26 C 29.43 37.79 29.63 37.25 29.85 36.74 C 29.65 37.23 29.47 37.72 29.26 38.22 C 29.16 38.43 29.18 38.69 29.32 38.88 C 29.46 39.07 29.7 39.17 29.93 39.14 C 30.17 39.11 30.37 38.95 30.46 38.74 C 31.49 36.36 32.34 34.02 33.17 31.7 C 34.82 30.76 36.53 29.79 38.02 28.28 C 38.18 28.13 38.25 27.91 38.21 27.7 C 38.35 28.1 38.51 28.5 38.63 28.89 C 38.74 29.23 39.1 29.42 39.45 29.32 C 39.8 29.21 39.99 28.85 39.88 28.5 C 38.85 25.18 37.2 21.67 34.25 18.28 C 34.25 18.28 34.25 18.28 34.24 18.28 C 31.49 15.2 27.99 12 24.08 9.88 C 22.53 8.94 20.93 8.44 19.4 8.37 Z M 21.92 13.68 C 20.17 13.62 18.67 13.98 17.44 14.93 C 16.22 15.87 15.3 17.33 14.51 19.37 C 13.37 22.29 13.66 24.83 14.86 27.33 C 14.86 27.33 14.87 27.33 14.87 27.33 C 15.51 28.64 16.61 29.72 17.61 30.66 C 18.62 31.59 19.54 32.44 19.77 32.87 C 19.94 33.19 20.33 33.31 20.65 33.14 C 20.97 32.97 21.1 32.58 20.93 32.26 C 20.45 31.36 19.49 30.61 18.51 29.7 C 17.53 28.8 16.54 27.78 16.04 26.76 C 14.95 24.48 14.7 22.47 15.73 19.84 C 15.73 19.84 15.73 19.84 15.73 19.84 C 16.47 17.93 17.29 16.69 18.25 15.96 C 19.2 15.22 20.33 14.93 21.89 14.98 C 21.9 14.98 21.9 14.98 21.91 14.98 C 24.2 14.99 25.65 15.66 26.93 16.45 C 28.22 17.24 29.34 18.21 30.89 18.56 C 31.25 18.64 31.6 18.43 31.68 18.08 C 31.76 17.73 31.54 17.38 31.19 17.29 C 30.02 17.03 29.01 16.19 27.62 15.34 C 26.24 14.5 24.48 13.69 21.92 13.68 Z M 22.94 16.21 C 21.82 16.19 20.82 16.42 19.97 16.85 C 19.96 16.85 19.95 16.85 19.94 16.86 C 18.33 17.75 17 19.13 16.25 21.19 C 16.25 21.19 16.24 21.2 16.24 21.2 C 15.88 22.29 15.64 23.22 15.65 24.11 C 15.66 24.99 15.96 25.82 16.59 26.5 C 16.61 26.51 16.62 26.52 16.63 26.54 C 17.91 27.7 18.88 29.03 20.1 30.16 C 20.1 30.16 20.1 30.16 20.1 30.16 C 22.17 32.03 22.41 33.58 22.1 34.98 C 22.02 35.33 22.25 35.68 22.6 35.76 C 22.95 35.83 23.3 35.61 23.38 35.26 C 23.77 33.47 23.3 31.3 20.98 29.2 L 20.99 29.2 C 19.9 28.2 18.91 26.84 17.52 25.57 L 17.55 25.61 C 17.12 25.16 16.97 24.72 16.96 24.09 C 16.95 23.46 17.14 22.65 17.48 21.63 C 18.13 19.86 19.18 18.78 20.56 18.01 C 21.86 17.36 23.75 17.25 26.08 18.25 C 26.53 18.44 26.86 18.77 27.25 19.2 C 27.64 19.62 28.08 20.14 28.76 20.52 C 28.76 20.52 28.77 20.53 28.78 20.53 C 29.36 20.83 30 20.86 30.6 20.85 C 31.2 20.83 31.77 20.76 32.14 20.72 C 32.5 20.68 32.76 20.36 32.72 20 C 32.68 19.65 32.36 19.39 32 19.42 C 31.6 19.47 31.08 19.53 30.57 19.54 C 30.07 19.55 29.61 19.48 29.38 19.37 C 28.95 19.13 28.61 18.75 28.21 18.32 C 27.81 17.88 27.33 17.37 26.61 17.05 C 26.6 17.05 26.6 17.05 26.6 17.05 C 25.29 16.49 24.06 16.23 22.94 16.21 Z M 23.6 18.71 C 22.35 18.61 21.18 19.03 20.12 19.9 C 20.11 19.91 20.11 19.91 20.1 19.92 C 19.17 20.73 18.54 21.61 18.35 22.61 C 18.16 23.6 18.45 24.64 19.13 25.65 C 19.13 25.66 19.14 25.66 19.14 25.67 C 20.61 27.7 21.5 28.03 23.06 29.66 C 24.33 31.1 25.38 32.44 25.69 34.05 C 25.5 35.11 25.27 36.1 24.98 36.9 C 24.9 37.12 24.94 37.37 25.09 37.55 C 25.24 37.74 25.48 37.82 25.71 37.78 C 25.95 37.73 26.14 37.57 26.21 37.34 C 26.5 36.55 26.73 35.63 26.92 34.65 C 27.03 34.51 27.08 34.33 27.06 34.15 C 27.05 34.1 27.03 34.06 27.02 34.01 C 27.42 31.62 27.58 28.79 27.48 25.51 C 27.48 25.5 27.48 25.49 27.47 25.48 C 27.4 24.55 27.37 23.28 27.08 22.08 C 26.79 20.87 26.2 19.65 24.97 19.02 C 24.94 19 24.91 18.99 24.88 18.98 C 24.45 18.83 24.02 18.74 23.6 18.71 Z M 23.48 19.97 C 23.76 20.01 24.07 20.09 24.4 20.2 C 25.15 20.6 25.56 21.37 25.8 22.38 C 26.05 23.39 26.09 24.58 26.17 25.57 C 26.24 27.71 26.18 29.63 26.03 31.37 C 25.46 30.45 24.75 29.61 24.04 28.79 C 24.03 28.78 24.02 28.78 24.02 28.77 C 22.35 27.03 21.57 26.79 20.21 24.92 C 19.67 24.1 19.52 23.46 19.64 22.85 C 19.75 22.24 20.17 21.6 20.96 20.9 C 21.85 20.18 22.58 19.88 23.48 19.97 Z M 23.05 20.88 C 22.62 20.88 22.16 20.99 21.72 21.26 C 21.7 21.27 21.67 21.29 21.64 21.32 C 21.13 21.75 20.74 22.31 20.63 22.95 C 20.52 23.6 20.76 24.32 21.32 24.83 C 21.33 24.84 21.34 24.84 21.35 24.85 C 22.96 26.18 23.6 27.15 24.66 28.55 C 24.82 28.76 25.1 28.86 25.36 28.78 C 25.63 28.7 25.81 28.47 25.83 28.2 C 25.96 26.5 26.19 24.41 25.54 22.97 C 25.54 22.97 25.54 22.97 25.54 22.97 C 25.24 22.33 24.85 21.66 24.2 21.23 C 23.88 21.01 23.48 20.88 23.05 20.88 Z M 28.22 21.31 C 27.93 21.33 27.68 21.53 27.62 21.81 C 27.55 22.09 27.68 22.39 27.93 22.53 C 29.97 23.72 32.54 23.14 34.37 22.62 C 34.71 22.52 34.92 22.16 34.82 21.82 C 34.72 21.47 34.36 21.27 34.01 21.37 C 32.27 21.86 30.02 22.24 28.59 21.41 C 28.48 21.34 28.35 21.3 28.22 21.31 Z M 23.03 22.14 C 23.19 22.14 23.32 22.21 23.47 22.31 C 23.77 22.51 24.1 22.98 24.35 23.51 C 24.59 24.04 24.62 25.16 24.59 26.33 C 23.96 25.53 23.27 24.74 22.18 23.85 L 22.2 23.87 C 21.91 23.6 21.88 23.42 21.92 23.17 C 21.96 22.93 22.14 22.63 22.45 22.36 C 22.69 22.22 22.88 22.14 23.03 22.14 Z M 35.19 23.05 C 35.05 23.05 34.9 23.09 34.79 23.18 C 33.83 23.88 32.7 24.65 31.65 25.17 C 30.61 25.69 29.64 25.93 29.12 25.8 C 28.89 25.74 28.66 25.81 28.49 25.97 C 28.33 26.14 28.27 26.38 28.33 26.6 C 29.23 29.81 27.87 33.94 26.9 36.72 C 26.78 37.06 26.96 37.43 27.3 37.55 C 27.64 37.67 28.02 37.49 28.14 37.15 C 29.04 34.57 30.4 30.69 29.76 27.13 C 30.57 27.07 31.41 26.75 32.24 26.34 C 33.41 25.75 34.58 24.95 35.56 24.23 C 35.79 24.07 35.89 23.78 35.8 23.51 C 35.72 23.24 35.48 23.06 35.19 23.05 Z M 2.71 1.38 L 46.57 1.38 C 47.52 1.38 48.26 2.11 48.26 3.05 L 48.26 46.95 C 48.26 47.89 47.52 48.62 46.57 48.62 L 2.71 48.62 C 1.76 48.62 1.02 47.89 1.02 46.95 L 1.02 3.05 C 1.02 2.11 1.76 1.38 2.71 1.38 Z M 2.71 0 C 1.02 0 -0.36 1.37 -0.36 3.05 L -0.36 46.95 C -0.36 48.63 1.02 50 2.71 50 L 46.57 50 C 48.26 50 49.64 48.63 49.64 46.95 L 49.64 3.05 C 49.64 1.37 48.26 0 46.57 0 Z" fill="#3c708a" stroke="none" pointer-events="all"/></g></g></svg>