<?xml version="1.0" encoding="UTF-8"?>
<!-- Do not edit this file with editors other than draw.io -->
<!DOCTYPE svg PUBLIC "-//W3C//DTD SVG 1.1//EN" "http://www.w3.org/Graphics/SVG/1.1/DTD/svg11.dtd">
<svg xmlns="http://www.w3.org/2000/svg" xmlns:xlink="http://www.w3.org/1999/xlink" version="1.1" width="50px" height="40px" viewBox="-0.5 -0.5 50 40" content="&lt;mxfile host=&quot;Electron&quot; modified=&quot;2024-05-27T19:10:58.192Z&quot; agent=&quot;Mozilla/5.0 (Windows NT 10.0; Win64; x64) AppleWebKit/537.36 (KHTML, like Gecko) draw.io/24.4.8 Chrome/124.0.6367.207 Electron/30.0.6 Safari/537.36&quot; version=&quot;24.4.8&quot; etag=&quot;bsvurqMrBVtIkmRFaP2P&quot; type=&quot;device&quot; scale=&quot;1&quot; border=&quot;0&quot;&gt;&#10;  &lt;diagram name=&quot;Page-1&quot; id=&quot;rM0Ipd7Vv2VV0mB-vNEL&quot;&gt;&#10;    &lt;mxGraphModel dx=&quot;519&quot; dy=&quot;352&quot; grid=&quot;1&quot; gridSize=&quot;10&quot; guides=&quot;1&quot; tooltips=&quot;1&quot; connect=&quot;1&quot; arrows=&quot;1&quot; fold=&quot;1&quot; page=&quot;1&quot; pageScale=&quot;1&quot; pageWidth=&quot;827&quot; pageHeight=&quot;1169&quot; math=&quot;0&quot; shadow=&quot;0&quot;&gt;&#10;      &lt;root&gt;&#10;        &lt;mxCell id=&quot;0&quot; /&gt;&#10;        &lt;mxCell id=&quot;1&quot; parent=&quot;0&quot; /&gt;&#10;        &lt;mxCell id=&quot;2&quot; value=&quot;&quot; style=&quot;points=[[0.03,0.03,0],[0.5,0,0],[0.97,0.03,0],[1,0.4,0],[0.97,0.745,0],[0.5,1,0],[0.03,0.745,0],[0,0.4,0]];verticalLabelPosition=bottom;sketch=0;html=1;verticalAlign=top;aspect=fixed;align=center;pointerEvents=1;shape=mxgraph.cisco19.stealthwatch_management_console_smc;fillColor=#3C708A;strokeColor=none;&quot; vertex=&quot;1&quot; parent=&quot;1&quot;&gt;&#10;          &lt;mxGeometry x=&quot;123&quot; y=&quot;776&quot; width=&quot;50&quot; height=&quot;40&quot; as=&quot;geometry&quot; /&gt;&#10;        &lt;/mxCell&gt;&#10;      &lt;/root&gt;&#10;    &lt;/mxGraphModel&gt;&#10;  &lt;/diagram&gt;&#10;&lt;/mxfile&gt;&#10;"><defs/><g><g><rect x="0" y="0" width="50" height="40" fill="none" stroke="none" pointer-events="all"/><path d="M 4.96 0 C 2.23 0 0 2.08 0 4.61 L 0 26.52 C 0 29.06 2.23 31.14 4.96 31.14 L 20.55 31.14 L 20.55 35.7 L 13.1 35.7 C 11.83 35.7 10.79 36.66 10.79 37.84 C 10.79 39.03 11.83 39.99 13.1 39.99 L 36.67 39.99 C 37.94 39.99 38.97 39.03 38.97 37.84 C 38.97 36.66 37.94 35.7 36.67 35.7 L 30.24 35.7 L 30.24 31.14 L 45.04 31.14 C 47.77 31.14 50 29.06 50 26.52 L 50 4.61 C 50 2.08 47.77 0 45.04 0 Z M 4.96 2 L 45.04 2 C 46.61 2 47.85 3.15 47.85 4.61 L 47.85 26.52 C 47.85 27.98 46.61 29.13 45.04 29.13 L 4.96 29.13 C 3.38 29.13 2.15 27.98 2.15 26.52 L 2.15 4.61 C 2.15 3.15 3.38 2 4.96 2 Z M 24.99 2.2 C 18.63 2.2 13.45 7.02 13.45 12.93 C 13.45 15.5 14.43 17.85 16.04 19.7 L 9.54 25.96 L 12.29 28.44 L 18.92 22.06 C 20.69 23.08 22.76 23.67 24.99 23.67 C 31.34 23.67 36.52 18.85 36.52 12.93 C 36.52 7.02 31.34 2.2 24.99 2.2 Z M 24.99 4.65 C 29.92 4.65 33.89 8.34 33.89 12.93 C 33.89 17.52 29.92 21.22 24.99 21.22 C 20.05 21.22 16.08 17.52 16.08 12.93 C 16.08 8.34 20.05 4.65 24.99 4.65 Z M 25.16 5.65 C 23 5.65 21.76 7.3 21.76 8.76 L 21.76 11.31 L 19.51 11.31 L 19.51 18.29 L 30.47 18.29 L 30.47 11.31 L 28.55 11.31 L 28.55 8.76 C 28.55 7 26.96 5.65 25.16 5.65 Z M 25.16 6.35 C 26.57 6.35 27.8 7.39 27.8 8.76 L 27.8 11.31 L 22.51 11.31 L 22.51 8.76 C 22.51 7.66 23.4 6.35 25.16 6.35 Z M 24.99 13.5 C 25.41 13.5 25.75 13.82 25.75 14.21 C 25.75 14.49 25.57 14.75 25.29 14.86 L 25.29 16.5 L 24.69 16.5 L 24.69 14.86 C 24.41 14.75 24.23 14.49 24.23 14.21 C 24.23 13.82 24.57 13.5 24.99 13.5 Z" fill="#3c708a" stroke="none" pointer-events="all"/></g></g></svg>