<?xml version="1.0" encoding="UTF-8"?>
<!-- Do not edit this file with editors other than draw.io -->
<!DOCTYPE svg PUBLIC "-//W3C//DTD SVG 1.1//EN" "http://www.w3.org/Graphics/SVG/1.1/DTD/svg11.dtd">
<svg xmlns="http://www.w3.org/2000/svg" xmlns:xlink="http://www.w3.org/1999/xlink" version="1.1" width="59px" height="46px" viewBox="-0.5 -0.5 59 46" content="&lt;mxfile host=&quot;Electron&quot; modified=&quot;2024-05-26T21:48:04.746Z&quot; agent=&quot;Mozilla/5.0 (Windows NT 10.0; Win64; x64) AppleWebKit/537.36 (KHTML, like Gecko) draw.io/24.4.8 Chrome/124.0.6367.207 Electron/30.0.6 Safari/537.36&quot; version=&quot;24.4.8&quot; etag=&quot;odwbzzN0ZKi_k6DgWxXs&quot; type=&quot;device&quot; scale=&quot;1&quot; border=&quot;0&quot;&gt;&#10;  &lt;diagram name=&quot;Page-1&quot; id=&quot;ppnfa1__puFADqvleeU4&quot;&gt;&#10;    &lt;mxGraphModel dx=&quot;519&quot; dy=&quot;352&quot; grid=&quot;1&quot; gridSize=&quot;10&quot; guides=&quot;1&quot; tooltips=&quot;1&quot; connect=&quot;1&quot; arrows=&quot;1&quot; fold=&quot;1&quot; page=&quot;1&quot; pageScale=&quot;1&quot; pageWidth=&quot;827&quot; pageHeight=&quot;1169&quot; math=&quot;0&quot; shadow=&quot;0&quot;&gt;&#10;      &lt;root&gt;&#10;        &lt;mxCell id=&quot;0&quot; /&gt;&#10;        &lt;mxCell id=&quot;1&quot; parent=&quot;0&quot; /&gt;&#10;        &lt;mxCell id=&quot;2&quot; value=&quot;&quot; style=&quot;sketch=0;points=[[0.015,0.015,0],[0.985,0.015,0],[0.985,0.985,0],[0.015,0.985,0],[0.25,0,0],[0.5,0,0],[0.75,0,0],[1,0.25,0],[1,0.5,0],[1,0.75,0],[0.75,1,0],[0.5,1,0],[0.25,1,0],[0,0.75,0],[0,0.5,0],[0,0.25,0]];verticalLabelPosition=bottom;html=1;verticalAlign=top;aspect=fixed;align=center;pointerEvents=1;shape=mxgraph.cisco19.rect;prIcon=asa_5500;fillColor=#FAFAFA;strokeColor=#3C708A;container=0;&quot; vertex=&quot;1&quot; parent=&quot;1&quot;&gt;&#10;          &lt;mxGeometry x=&quot;70&quot; y=&quot;660&quot; width=&quot;57.6&quot; height=&quot;45&quot; as=&quot;geometry&quot; /&gt;&#10;        &lt;/mxCell&gt;&#10;      &lt;/root&gt;&#10;    &lt;/mxGraphModel&gt;&#10;  &lt;/diagram&gt;&#10;&lt;/mxfile&gt;&#10;"><defs/><g><g><rect x="0" y="0" width="57.6" height="45" fill="none" stroke="none" pointer-events="all"/><path d="M 2.72 0 C 1.22 0 0 1.24 0 2.75 L 0 42.25 C 0 43.76 1.22 45 2.72 45 L 54.88 45 C 56.37 45 57.6 43.76 57.6 42.25 L 57.6 2.75 C 57.6 1.24 56.37 0 54.88 0 Z" fill="#fafafa" stroke="none" pointer-events="all"/><rect x="0" y="0" width="57.6" height="45" fill="none" stroke="none" pointer-events="all"/><path d="M 28.81 3.85 C 25.58 3.85 22.79 5.81 21.56 8.62 L 14.15 8.62 L 14.15 10.77 L 20.95 10.77 C 20.9 11.13 20.88 11.49 20.88 11.86 C 20.88 16.28 24.44 19.88 28.81 19.88 C 30.32 19.88 31.73 19.45 32.94 18.7 L 37.83 23.8 L 39.83 21.84 L 35.02 16.84 C 35.46 16.27 35.83 15.65 36.11 14.99 L 43.62 14.99 L 43.62 12.84 L 36.68 12.84 C 36.72 12.52 36.74 12.19 36.74 11.86 C 36.74 7.45 33.18 3.85 28.81 3.85 Z M 28.81 5.49 C 32.3 5.49 35.12 8.33 35.12 11.86 C 35.12 12.2 35.09 12.53 35.04 12.84 L 27.72 12.84 L 27.72 11.82 L 24.5 13.91 L 27.72 16.01 L 27.72 14.99 L 34.31 14.99 C 33.23 16.93 31.18 18.24 28.81 18.24 C 25.32 18.24 22.5 15.39 22.5 11.86 C 22.5 11.49 22.53 11.12 22.6 10.77 L 30.05 10.77 L 30.05 11.79 L 33.26 9.69 L 30.05 7.6 L 30.05 8.62 L 23.37 8.62 C 24.47 6.74 26.49 5.49 28.81 5.49 Z M 2.61 25.11 L 2.61 27.18 L 7.64 27.18 L 7.64 32.54 L 2.61 32.54 L 2.61 34.61 L 17.84 34.61 L 17.84 39.96 L 2.61 39.96 L 2.61 42.03 L 55.16 42.03 L 55.16 39.96 L 40.28 39.96 L 40.28 34.61 L 55.16 34.61 L 55.16 32.54 L 50.47 32.54 L 50.47 27.18 L 55.16 27.18 L 55.16 25.11 Z M 9.69 27.18 L 28.03 27.18 L 28.03 32.54 L 9.69 32.54 Z M 30.08 27.18 L 48.42 27.18 L 48.42 32.54 L 30.08 32.54 Z M 19.88 34.61 L 38.23 34.61 L 38.23 39.96 L 19.88 39.96 Z M 2.72 0 C 1.22 0 0 1.24 0 2.75 L 0 42.25 C 0 43.76 1.22 45 2.72 45 L 54.88 45 C 56.37 45 57.6 43.76 57.6 42.25 L 57.6 2.75 C 57.6 1.24 56.37 0 54.88 0 Z M 2.72 1.24 L 54.88 1.24 C 55.72 1.24 56.37 1.9 56.37 2.75 L 56.37 42.25 C 56.37 43.1 55.72 43.76 54.88 43.76 L 2.72 43.76 C 1.88 43.76 1.23 43.1 1.23 42.25 L 1.23 2.75 C 1.23 1.9 1.88 1.24 2.72 1.24 Z" fill="#3c708a" stroke="none" pointer-events="all"/></g></g></svg>