<?xml version="1.0" encoding="UTF-8"?>
<!-- Do not edit this file with editors other than draw.io -->
<!DOCTYPE svg PUBLIC "-//W3C//DTD SVG 1.1//EN" "http://www.w3.org/Graphics/SVG/1.1/DTD/svg11.dtd">
<svg xmlns="http://www.w3.org/2000/svg" xmlns:xlink="http://www.w3.org/1999/xlink" version="1.1" width="59px" height="46px" viewBox="-0.5 -0.5 59 46" content="&lt;mxfile host=&quot;Electron&quot; modified=&quot;2024-05-26T21:53:42.418Z&quot; agent=&quot;Mozilla/5.0 (Windows NT 10.0; Win64; x64) AppleWebKit/537.36 (KHTML, like Gecko) draw.io/24.4.8 Chrome/124.0.6367.207 Electron/30.0.6 Safari/537.36&quot; version=&quot;24.4.8&quot; etag=&quot;G42qXmUfxqszIrwpRTUZ&quot; type=&quot;device&quot; scale=&quot;1&quot; border=&quot;0&quot;&gt;&#10;  &lt;diagram name=&quot;Page-1&quot; id=&quot;07zA_sBgyopaU4uGrYf9&quot;&gt;&#10;    &lt;mxGraphModel dx=&quot;1038&quot; dy=&quot;704&quot; grid=&quot;1&quot; gridSize=&quot;10&quot; guides=&quot;1&quot; tooltips=&quot;1&quot; connect=&quot;1&quot; arrows=&quot;1&quot; fold=&quot;1&quot; page=&quot;1&quot; pageScale=&quot;1&quot; pageWidth=&quot;827&quot; pageHeight=&quot;1169&quot; math=&quot;0&quot; shadow=&quot;0&quot;&gt;&#10;      &lt;root&gt;&#10;        &lt;mxCell id=&quot;0&quot; /&gt;&#10;        &lt;mxCell id=&quot;1&quot; parent=&quot;0&quot; /&gt;&#10;        &lt;mxCell id=&quot;2&quot; value=&quot;&quot; style=&quot;sketch=0;points=[[0.015,0.015,0],[0.985,0.015,0],[0.985,0.985,0],[0.015,0.985,0],[0.25,0,0],[0.5,0,0],[0.75,0,0],[1,0.25,0],[1,0.5,0],[1,0.75,0],[0.75,1,0],[0.5,1,0],[0.25,1,0],[0,0.75,0],[0,0.5,0],[0,0.25,0]];verticalLabelPosition=bottom;html=1;verticalAlign=top;aspect=fixed;align=center;pointerEvents=1;shape=mxgraph.cisco19.rect;prIcon=acs;fillColor=#FAFAFA;strokeColor=#3C708A;&quot; vertex=&quot;1&quot; parent=&quot;1&quot;&gt;&#10;          &lt;mxGeometry x=&quot;676&quot; y=&quot;374&quot; width=&quot;57.6&quot; height=&quot;45&quot; as=&quot;geometry&quot; /&gt;&#10;        &lt;/mxCell&gt;&#10;      &lt;/root&gt;&#10;    &lt;/mxGraphModel&gt;&#10;  &lt;/diagram&gt;&#10;&lt;/mxfile&gt;&#10;"><defs/><g><g><rect x="0" y="0" width="57.6" height="45" fill="none" stroke="none" pointer-events="all"/><path d="M 2.72 0 C 1.22 0 0 1.24 0 2.75 L 0 42.25 C 0 43.76 1.22 45 2.72 45 L 54.88 45 C 56.37 45 57.6 43.76 57.6 42.25 L 57.6 2.75 C 57.6 1.24 56.37 0 54.88 0 Z" fill="#fafafa" stroke="none" pointer-events="all"/><rect x="0" y="0" width="57.6" height="45" fill="none" stroke="none" pointer-events="all"/><path d="M 29.22 9.59 C 23.06 9.59 18.04 14.66 18.04 20.88 C 18.04 23.58 18.98 26.06 20.55 28.01 L 14.25 34.6 L 16.91 37.21 L 23.34 30.49 C 25.05 31.56 27.07 32.18 29.22 32.18 C 35.38 32.18 40.4 27.11 40.4 20.88 C 40.4 14.66 35.38 9.59 29.22 9.59 Z M 11.35 12.12 L 6.81 15.38 L 11.35 18.64 L 11.35 16.42 L 16.55 16.42 L 16.55 14.34 L 11.35 14.34 Z M 46.59 12.12 L 46.59 14.34 L 41.39 14.34 L 41.39 16.42 L 46.59 16.42 L 46.59 18.64 L 51.12 15.38 Z M 29.22 12.17 C 34 12.17 37.85 16.05 37.85 20.88 C 37.85 25.71 34 29.6 29.22 29.6 C 24.44 29.6 20.59 25.71 20.59 20.88 C 20.59 16.05 24.44 12.17 29.22 12.17 Z M 29.36 14.12 C 27.48 14.12 26.4 15.68 26.4 17.07 L 26.4 19.48 L 24.44 19.48 L 24.44 26.1 L 34 26.1 L 34 19.48 L 32.33 19.48 L 32.33 17.07 C 32.33 15.4 30.94 14.12 29.36 14.12 Z M 29.36 14.78 C 30.59 14.78 31.67 15.77 31.67 17.07 L 31.67 19.48 L 27.06 19.48 L 27.06 17.07 C 27.06 16.02 27.84 14.78 29.36 14.78 Z M 29.22 21.56 C 29.59 21.56 29.88 21.86 29.88 22.23 C 29.88 22.5 29.73 22.74 29.48 22.85 L 29.48 24.4 L 28.96 24.4 L 28.96 22.85 C 28.71 22.74 28.55 22.5 28.55 22.23 C 28.55 21.86 28.85 21.56 29.22 21.56 Z M 12.1 23.86 L 12.1 26.08 L 6.9 26.08 L 6.9 28.16 L 12.1 28.16 L 12.1 30.38 L 16.63 27.12 Z M 45 23.86 L 40.46 27.12 L 45 30.38 L 45 28.16 L 50.2 28.16 L 50.2 26.08 L 45 26.08 Z M 2.72 0 C 1.22 0 0 1.24 0 2.75 L 0 42.25 C 0 43.76 1.22 45 2.72 45 L 54.88 45 C 56.38 45 57.6 43.76 57.6 42.25 L 57.6 2.75 C 57.6 1.24 56.38 0 54.88 0 Z M 2.72 1.24 L 54.88 1.24 C 55.72 1.24 56.37 1.9 56.37 2.75 L 56.37 42.25 C 56.37 43.1 55.72 43.76 54.88 43.76 L 2.72 43.76 C 1.88 43.76 1.23 43.1 1.23 42.25 L 1.23 2.75 C 1.23 1.9 1.88 1.24 2.72 1.24 Z" fill="#3c708a" stroke="none" pointer-events="all"/></g></g></svg>