<?xml version="1.0" encoding="UTF-8"?>
<!-- Do not edit this file with editors other than draw.io -->
<!DOCTYPE svg PUBLIC "-//W3C//DTD SVG 1.1//EN" "http://www.w3.org/Graphics/SVG/1.1/DTD/svg11.dtd">
<svg xmlns="http://www.w3.org/2000/svg" xmlns:xlink="http://www.w3.org/1999/xlink" version="1.1" width="59px" height="46px" viewBox="-0.5 -0.5 59 46" content="&lt;mxfile host=&quot;Electron&quot; modified=&quot;2024-05-26T21:55:39.617Z&quot; agent=&quot;Mozilla/5.0 (Windows NT 10.0; Win64; x64) AppleWebKit/537.36 (KHTML, like Gecko) draw.io/24.4.8 Chrome/124.0.6367.207 Electron/30.0.6 Safari/537.36&quot; version=&quot;24.4.8&quot; etag=&quot;9sAbzJSNxkZgb-KXYkoy&quot; type=&quot;device&quot; scale=&quot;1&quot; border=&quot;0&quot;&gt;&#10;  &lt;diagram name=&quot;Page-1&quot; id=&quot;S6ylparkfPYB2Ge-70ly&quot;&gt;&#10;    &lt;mxGraphModel dx=&quot;1038&quot; dy=&quot;704&quot; grid=&quot;1&quot; gridSize=&quot;10&quot; guides=&quot;1&quot; tooltips=&quot;1&quot; connect=&quot;1&quot; arrows=&quot;1&quot; fold=&quot;1&quot; page=&quot;1&quot; pageScale=&quot;1&quot; pageWidth=&quot;827&quot; pageHeight=&quot;1169&quot; math=&quot;0&quot; shadow=&quot;0&quot;&gt;&#10;      &lt;root&gt;&#10;        &lt;mxCell id=&quot;0&quot; /&gt;&#10;        &lt;mxCell id=&quot;1&quot; parent=&quot;0&quot; /&gt;&#10;        &lt;mxCell id=&quot;2&quot; value=&quot;&quot; style=&quot;sketch=0;points=[[0.015,0.015,0],[0.985,0.015,0],[0.985,0.985,0],[0.015,0.985,0],[0.25,0,0],[0.5,0,0],[0.75,0,0],[1,0.25,0],[1,0.5,0],[1,0.75,0],[0.75,1,0],[0.5,1,0],[0.25,1,0],[0,0.75,0],[0,0.5,0],[0,0.25,0]];verticalLabelPosition=bottom;html=1;verticalAlign=top;aspect=fixed;align=center;pointerEvents=1;shape=mxgraph.cisco19.rect;prIcon=email_security;fillColor=#FAFAFA;strokeColor=#3C708A;&quot; vertex=&quot;1&quot; parent=&quot;1&quot;&gt;&#10;          &lt;mxGeometry x=&quot;288.64&quot; y=&quot;20.720000000000013&quot; width=&quot;57.6&quot; height=&quot;45&quot; as=&quot;geometry&quot; /&gt;&#10;        &lt;/mxCell&gt;&#10;      &lt;/root&gt;&#10;    &lt;/mxGraphModel&gt;&#10;  &lt;/diagram&gt;&#10;&lt;/mxfile&gt;&#10;"><defs/><g><g><rect x="-0.36" y="-0.28" width="57.6" height="45" fill="none" stroke="none" pointer-events="all"/><path d="M 2.36 -0.28 C 0.86 -0.28 -0.36 0.96 -0.36 2.47 L -0.36 41.97 C -0.36 43.48 0.86 44.72 2.36 44.72 L 54.52 44.72 C 56.01 44.72 57.24 43.48 57.24 41.97 L 57.24 2.47 C 57.24 0.96 56.01 -0.28 54.52 -0.28 Z" fill="#fafafa" stroke="none" pointer-events="all"/><rect x="-0.36" y="-0.28" width="57.6" height="45" fill="none" stroke="none" pointer-events="all"/><path d="M 22.67 18.99 L 28.5 22.13 L 33.86 19.25 C 34.15 19.96 34.31 20.74 34.31 21.56 C 34.31 24.97 31.59 27.72 28.21 27.72 C 24.84 27.72 22.12 24.97 22.12 21.56 C 22.12 20.64 22.32 19.77 22.67 18.99 Z M 28.21 15.4 C 30.19 15.4 31.95 16.35 33.06 17.82 L 28.5 20.27 L 23.54 17.6 C 24.66 16.25 26.33 15.4 28.21 15.4 Z M 12.37 13.44 L 21.24 18.22 C 20.76 19.23 20.49 20.36 20.49 21.56 C 20.49 23.22 21.01 24.76 21.89 26.02 L 17.72 30.28 L 12.37 30.28 Z M 44.64 13.44 L 44.64 30.28 L 21.64 30.28 L 23.87 28 C 25.11 28.86 26.6 29.36 28.21 29.36 C 32.47 29.36 35.93 25.86 35.93 21.56 C 35.93 20.46 35.71 19.42 35.3 18.47 Z M 14.8 12.89 L 42.21 12.89 L 34.5 17.04 C 33.1 15.06 30.8 13.76 28.21 13.76 C 25.72 13.76 23.5 14.96 22.09 16.82 Z M 2.36 0.96 L 54.52 0.96 C 55.36 0.96 56.01 1.62 56.01 2.47 L 56.01 41.97 C 56.01 42.82 55.36 43.48 54.52 43.48 L 2.36 43.48 C 1.52 43.48 0.87 42.82 0.87 41.97 L 0.87 2.47 C 0.87 1.62 1.52 0.96 2.36 0.96 Z M 2.36 -0.28 C 0.86 -0.28 -0.36 0.96 -0.36 2.47 L -0.36 41.97 C -0.36 43.48 0.86 44.72 2.36 44.72 L 54.52 44.72 C 56.01 44.72 57.24 43.48 57.24 41.97 L 57.24 2.47 C 57.24 0.96 56.01 -0.28 54.52 -0.28 Z M 10.75 11.25 L 10.75 12.07 L 10.75 31.92 L 17.97 31.92 L 19.01 32.96 L 20.03 31.92 L 46.27 31.92 L 46.27 11.25 Z M 5 17.2 L 5 19.85 L 1.99 19.85 L 1.99 22.43 L 5 22.43 L 5 25.08 L 10.63 21.14 Z M 52.01 17.2 L 52.01 19.85 L 55.02 19.85 L 55.02 22.43 L 52.01 22.43 L 52.01 25.08 L 46.38 21.14 Z" fill="#3c708a" stroke="none" pointer-events="all"/></g></g></svg>