<?xml version="1.0" encoding="UTF-8"?>
<!-- Do not edit this file with editors other than draw.io -->
<!DOCTYPE svg PUBLIC "-//W3C//DTD SVG 1.1//EN" "http://www.w3.org/Graphics/SVG/1.1/DTD/svg11.dtd">
<svg xmlns="http://www.w3.org/2000/svg" xmlns:xlink="http://www.w3.org/1999/xlink" version="1.1" width="59px" height="46px" viewBox="-0.5 -0.5 59 46" content="&lt;mxfile host=&quot;Electron&quot; modified=&quot;2024-05-26T22:01:39.939Z&quot; agent=&quot;Mozilla/5.0 (Windows NT 10.0; Win64; x64) AppleWebKit/537.36 (KHTML, like Gecko) draw.io/24.4.8 Chrome/124.0.6367.207 Electron/30.0.6 Safari/537.36&quot; version=&quot;24.4.8&quot; etag=&quot;dktywBxMc0TNx-gIZGRf&quot; type=&quot;device&quot; scale=&quot;1&quot; border=&quot;0&quot;&gt;&#10;  &lt;diagram name=&quot;Page-1&quot; id=&quot;C99lTiIjrMsx0PKPz8tg&quot;&gt;&#10;    &lt;mxGraphModel dx=&quot;1038&quot; dy=&quot;704&quot; grid=&quot;1&quot; gridSize=&quot;10&quot; guides=&quot;1&quot; tooltips=&quot;1&quot; connect=&quot;1&quot; arrows=&quot;1&quot; fold=&quot;1&quot; page=&quot;1&quot; pageScale=&quot;1&quot; pageWidth=&quot;827&quot; pageHeight=&quot;1169&quot; math=&quot;0&quot; shadow=&quot;0&quot;&gt;&#10;      &lt;root&gt;&#10;        &lt;mxCell id=&quot;0&quot; /&gt;&#10;        &lt;mxCell id=&quot;1&quot; parent=&quot;0&quot; /&gt;&#10;        &lt;mxCell id=&quot;2&quot; value=&quot;&quot; style=&quot;sketch=0;points=[[0.015,0.015,0],[0.985,0.015,0],[0.985,0.985,0],[0.015,0.985,0],[0.25,0,0],[0.5,0,0],[0.75,0,0],[1,0.25,0],[1,0.5,0],[1,0.75,0],[0.75,1,0],[0.5,1,0],[0.25,1,0],[0,0.75,0],[0,0.5,0],[0,0.25,0]];verticalLabelPosition=bottom;html=1;verticalAlign=top;aspect=fixed;align=center;pointerEvents=1;shape=mxgraph.cisco19.rect;prIcon=ips_ids;fillColor=#FAFAFA;strokeColor=#3C708A;&quot; vertex=&quot;1&quot; parent=&quot;1&quot;&gt;&#10;          &lt;mxGeometry x=&quot;341&quot; y=&quot;100&quot; width=&quot;57.6&quot; height=&quot;45&quot; as=&quot;geometry&quot; /&gt;&#10;        &lt;/mxCell&gt;&#10;      &lt;/root&gt;&#10;    &lt;/mxGraphModel&gt;&#10;  &lt;/diagram&gt;&#10;&lt;/mxfile&gt;&#10;"><defs/><g><g><rect x="0" y="0" width="57.6" height="45" fill="none" stroke="none" pointer-events="all"/><path d="M 2.72 0 C 1.22 0 0 1.24 0 2.75 L 0 42.25 C 0 43.76 1.22 45 2.72 45 L 54.88 45 C 56.37 45 57.6 43.76 57.6 42.25 L 57.6 2.75 C 57.6 1.24 56.37 0 54.88 0 Z" fill="#fafafa" stroke="none" pointer-events="all"/><rect x="0" y="0" width="57.6" height="45" fill="none" stroke="none" pointer-events="all"/><path d="M 28.98 8.15 C 23.89 8.15 19.51 11.32 17.67 15.8 L 6.58 15.8 L 6.58 19.01 L 16.84 19.01 C 16.78 19.5 16.75 20.01 16.75 20.52 C 16.75 27.33 22.24 32.88 28.98 32.88 C 31.5 32.88 33.85 32.1 35.8 30.78 L 43.24 38.39 L 46.21 35.42 L 38.82 27.86 C 39.38 27.09 39.86 26.26 40.23 25.37 L 51.27 25.37 L 51.27 22.17 L 41.11 22.17 C 41.18 21.63 41.22 21.08 41.22 20.52 C 41.22 13.7 35.72 8.15 28.98 8.15 Z M 28.98 10.73 C 34.35 10.73 38.67 15.1 38.67 20.52 C 38.67 21.08 38.62 21.64 38.53 22.17 L 27.16 22.17 L 27.16 20.52 L 22.12 23.68 L 27.16 26.84 L 27.16 25.37 L 37.4 25.37 C 35.73 28.32 32.59 30.3 28.98 30.3 C 23.62 30.3 19.3 25.94 19.3 20.52 C 19.3 20 19.34 19.5 19.41 19.01 L 30.69 19.01 L 30.69 20.47 L 35.74 17.31 L 30.69 14.15 L 30.69 15.8 L 20.49 15.8 C 22.13 12.78 25.31 10.73 28.98 10.73 Z M 2.72 0 C 1.22 0 0 1.24 0 2.75 L 0 42.25 C 0 43.76 1.22 45 2.72 45 L 54.88 45 C 56.38 45 57.6 43.76 57.6 42.25 L 57.6 2.75 C 57.6 1.24 56.38 0 54.88 0 Z M 2.72 1.24 L 54.88 1.24 C 55.72 1.24 56.37 1.9 56.37 2.75 L 56.37 42.25 C 56.37 43.1 55.72 43.76 54.88 43.76 L 2.72 43.76 C 1.88 43.76 1.23 43.1 1.23 42.25 L 1.23 2.75 C 1.23 1.9 1.88 1.24 2.72 1.24 Z" fill="#3c708a" stroke="none" pointer-events="all"/></g></g></svg>