<?xml version="1.0" encoding="UTF-8"?>
<!-- Do not edit this file with editors other than draw.io -->
<!DOCTYPE svg PUBLIC "-//W3C//DTD SVG 1.1//EN" "http://www.w3.org/Graphics/SVG/1.1/DTD/svg11.dtd">
<svg xmlns="http://www.w3.org/2000/svg" xmlns:xlink="http://www.w3.org/1999/xlink" version="1.1" width="37px" height="57px" viewBox="-0.5 -0.5 37 57" content="&lt;mxfile host=&quot;Electron&quot; modified=&quot;2024-05-27T14:14:44.527Z&quot; agent=&quot;Mozilla/5.0 (Windows NT 10.0; Win64; x64) AppleWebKit/537.36 (KHTML, like Gecko) draw.io/24.4.8 Chrome/124.0.6367.207 Electron/30.0.6 Safari/537.36&quot; version=&quot;24.4.8&quot; etag=&quot;K6G-9paMaAAKu22bpsHb&quot; type=&quot;device&quot; scale=&quot;1&quot; border=&quot;0&quot;&gt;&#10;  &lt;diagram name=&quot;Page-1&quot; id=&quot;GMw5w9n3MbWgiqBocJu7&quot;&gt;&#10;    &lt;mxGraphModel dx=&quot;519&quot; dy=&quot;355&quot; grid=&quot;1&quot; gridSize=&quot;10&quot; guides=&quot;1&quot; tooltips=&quot;1&quot; connect=&quot;1&quot; arrows=&quot;1&quot; fold=&quot;1&quot; page=&quot;1&quot; pageScale=&quot;1&quot; pageWidth=&quot;827&quot; pageHeight=&quot;1169&quot; math=&quot;0&quot; shadow=&quot;0&quot;&gt;&#10;      &lt;root&gt;&#10;        &lt;mxCell id=&quot;0&quot; /&gt;&#10;        &lt;mxCell id=&quot;1&quot; parent=&quot;0&quot; /&gt;&#10;        &lt;mxCell id=&quot;2&quot; value=&quot;&quot; style=&quot;group&quot; vertex=&quot;1&quot; connectable=&quot;0&quot; parent=&quot;1&quot;&gt;&#10;          &lt;mxGeometry x=&quot;20&quot; y=&quot;390&quot; width=&quot;36&quot; height=&quot;55.5&quot; as=&quot;geometry&quot; /&gt;&#10;        &lt;/mxCell&gt;&#10;        &lt;mxCell id=&quot;3&quot; value=&quot;&quot; style=&quot;sketch=0;points=[[0.015,0.015,0],[0.985,0.015,0],[0.985,0.985,0],[0.015,0.985,0],[0.25,0,0],[0.5,0,0],[0.75,0,0],[1,0.25,0],[1,0.5,0],[1,0.75,0],[0.75,1,0],[0.5,1,0],[0.25,1,0],[0,0.75,0],[0,0.5,0],[0,0.25,0]];verticalLabelPosition=bottom;html=1;verticalAlign=top;align=center;pointerEvents=1;shape=mxgraph.cisco19.server;fillColor=#3C708A;strokeColor=#3C708A;gradientColor=none;container=0;&quot; vertex=&quot;1&quot; parent=&quot;2&quot;&gt;&#10;          &lt;mxGeometry width=&quot;36&quot; height=&quot;55.5&quot; as=&quot;geometry&quot; /&gt;&#10;        &lt;/mxCell&gt;&#10;        &lt;mxCell id=&quot;4&quot; value=&quot;&quot; style=&quot;shape=image;aspect=fixed;image=data:image/svg+xml,PHN2ZyB3aWR0aD0iMjUwMCIgaGVpZ2h0PSIxMjYwIiB2aWV3Qm94PSIwIDAgMjU2IDEyOSIgeG1sbnM9Imh0dHA6Ly93d3cudzMub3JnLzIwMDAvc3ZnIiBwcmVzZXJ2ZUFzcGVjdFJhdGlvPSJ4TWlkWU1pZCI+PHBhdGggZD0iTS44Ni41NHYxMjcuNTMzaDE3OS43ODVsMTQuODQ0LTMyLjA4IDE1LjA4IDMyLjMxNmg0NC45NzVWLjUzMkwuODYuNTM5IiBmaWxsPSIjRDkyMjJBIi8+PHBhdGggZD0iTTIzMi43MSA5NS45NjdsLTMwLjg5Ni03MC41My4wMTItLjAwNWgtLjAxMnYtLjAwOGwtLjAwNC4wMDhoLTEyLjQwOGwtMzAuMTk5IDcwLjU2MmgxMy4zMDhMMTk1LjUgNDAuNjZsMjMuOTc0IDU1LjMzNCAxMy4yMzUtLjAyN003MS4yOSA2NS43NjhjOS42OTgtMy42MjIgMTQuMzM3LTExLjYzIDE0LjIyNS0xOS43OTEtLjE3My0xMi4zODYtOS44ODktMjEuMDMzLTIzLjYzMS0yMS4wMzNIMzIuMTY4Vjk1Ljg4SDQyLjk5VjM1LjMwMmgxOC4yNzdjNi4xMjYgMCAxMi43MDUgMy4xODcgMTIuODEyIDEwLjgyNS4wOTMgNi44MDMtNC45ODUgMTEuMDUyLTEzLjU4OSAxMS40MThsLS4xNjguMDA4LTYuNTU2LjA1NiAyMS44MyAzOC4zODUgMTIuNzgzLS4wMjdzLTEwLjUwMi0xOC41NTctMTcuMDg4LTMwLjJNMTAwLjE4NCA0My4yNjFjMCAxNC4xMjUgMTQuMDE4IDE4LjExIDI0LjkxNyAyMS4xODMgMTEuMzUzIDMuMjEgMTUuMzA4IDYuODI5IDE1LjMwOCAxMi4zMTQgMCA5LjE0OS05LjI4IDEwLjU3Ny0xNS4wMTkgMTAuNTc3LTcuODgxIDAtMTQuMzgzLTIuMi0yMC43NDUtNi4xMjhsLTUuNDMgOS4xOTljOC4wMjggNC45NDkgMTYuMzQ3IDcuMjU2IDI2LjE3NSA3LjI1NiAxNi40MTcgMCAyNy4zMjQtOC41MDYgMjcuMzI0LTIxLjY3IDAtMTQuNzAzLTEzLjI2OC0xOC43NzItMjQuNDIzLTIxLjkyNi0xMS4zNjMtMy4yMTEtMTUuODA2LTUuOTI2LTE1LjgwNi0xMS40MTQgMC04LjMxIDEwLjE3Mi05LjExOCAxMy44MTUtOS4xMTggNS43MyAwIDEzLjAxNiAxLjkyIDE3LjMzIDQuMTQ2bDQuNTY3LTguOTkxYy01LjgxNy0zLjAwOS0xNC43NC01LjAyMi0yMi4yMDEtNS4wMjItMTUuODc0IDAtMjUuODEyIDcuMjI3LTI1LjgxMiAxOS41OTQiIGZpbGw9IiNGRkYiLz48L3N2Zz4=;&quot; vertex=&quot;1&quot; parent=&quot;2&quot;&gt;&#10;          &lt;mxGeometry x=&quot;3.6500000000000057&quot; y=&quot;18.519999999999982&quot; width=&quot;28&quot; height=&quot;14.13&quot; as=&quot;geometry&quot; /&gt;&#10;        &lt;/mxCell&gt;&#10;      &lt;/root&gt;&#10;    &lt;/mxGraphModel&gt;&#10;  &lt;/diagram&gt;&#10;&lt;/mxfile&gt;&#10;"><defs/><g><g/><g><rect x="0" y="0" width="36" height="55.5" fill="none" stroke="none" pointer-events="all"/><path d="M 18.02 18.95 C 15.9 18.95 14.17 20.46 14.17 22.3 C 14.17 24.14 15.9 25.65 18.02 25.65 C 20.14 25.65 21.87 24.14 21.87 22.3 C 21.87 20.46 20.14 18.95 18.02 18.95 Z M 17.52 20.01 L 17.52 22.37 C 17.52 22.53 17.62 22.67 17.77 22.75 C 17.93 22.82 18.12 22.82 18.27 22.75 C 18.42 22.67 18.52 22.53 18.52 22.37 L 18.52 20.01 C 19.77 20.21 20.71 21.15 20.71 22.3 C 20.71 23.6 19.51 24.64 18.02 24.64 C 16.53 24.64 15.33 23.6 15.33 22.3 C 15.33 21.15 16.27 20.21 17.52 20.01 Z M 0 38.49 L 0 39.21 L 0 46.02 L 36 46.02 L 36 38.49 Z M 1.66 39.94 L 34.34 39.94 L 34.34 44.58 L 1.66 44.58 Z M 0 15.02 L 0 15.74 L 0 36.95 L 36 36.95 L 36 15.02 Z M 1.66 16.46 L 34.34 16.46 L 34.34 35.5 L 1.66 35.5 Z M 36 13.93 L 36 3.39 C 36 1.52 34.2 0 32.05 0 L 3.9 0 C 1.76 0 0 1.52 0 3.39 L 0 13.93 Z M 0 47.41 L 0 52.11 C 0 53.98 1.76 55.5 3.9 55.5 L 32.05 55.5 C 34.2 55.5 36 53.98 36 52.11 L 36 47.41 Z M 34.34 48.92 L 34.34 52.11 C 34.34 53.2 33.31 54.05 32.05 54.05 L 3.9 54.05 C 2.65 54.05 1.66 53.2 1.66 52.11 L 1.66 48.92 Z M 1.66 12.44 L 1.66 3.39 C 1.66 2.3 2.65 1.45 3.9 1.45 L 32.05 1.45 C 33.31 1.45 34.34 2.3 34.34 3.39 L 34.34 12.44 Z" fill="#3c708a" stroke="none" pointer-events="all"/></g><g><svg preserveAspectRatio="xMidYMid" viewBox="0 0 256 129" height="14.13" width="28" xmlns="http://www.w3.org/2000/svg" x="3.15" y="18.02" style="font-family: initial;"><path fill="#D9222A" d="M.86.54v127.533h179.785l14.844-32.08 15.08 32.316h44.975V.532L.86.539"/><path fill="#FFF" d="M232.71 95.967l-30.896-70.53.012-.005h-.012v-.008l-.004.008h-12.408l-30.199 70.562h13.308L195.5 40.66l23.974 55.334 13.235-.027M71.29 65.768c9.698-3.622 14.337-11.63 14.225-19.791-.173-12.386-9.889-21.033-23.631-21.033H32.168V95.88H42.99V35.302h18.277c6.126 0 12.705 3.187 12.812 10.825.093 6.803-4.985 11.052-13.589 11.418l-.168.008-6.556.056 21.83 38.385 12.783-.027s-10.502-18.557-17.088-30.2M100.184 43.261c0 14.125 14.018 18.11 24.917 21.183 11.353 3.21 15.308 6.829 15.308 12.314 0 9.149-9.28 10.577-15.019 10.577-7.881 0-14.383-2.2-20.745-6.128l-5.43 9.199c8.028 4.949 16.347 7.256 26.175 7.256 16.417 0 27.324-8.506 27.324-21.67 0-14.703-13.268-18.772-24.423-21.926-11.363-3.211-15.806-5.926-15.806-11.414 0-8.31 10.172-9.118 13.815-9.118 5.73 0 13.016 1.92 17.33 4.146l4.567-8.991c-5.817-3.009-14.74-5.022-22.201-5.022-15.874 0-25.812 7.227-25.812 19.594"/></svg></g></g></svg>