<?xml version="1.0" encoding="UTF-8"?>
<!-- Do not edit this file with editors other than draw.io -->
<!DOCTYPE svg PUBLIC "-//W3C//DTD SVG 1.1//EN" "http://www.w3.org/Graphics/SVG/1.1/DTD/svg11.dtd">
<svg xmlns="http://www.w3.org/2000/svg" xmlns:xlink="http://www.w3.org/1999/xlink" version="1.1" width="51px" height="51px" viewBox="-0.5 -0.5 51 51" content="&lt;mxfile host=&quot;Electron&quot; modified=&quot;2024-05-27T11:55:45.427Z&quot; agent=&quot;Mozilla/5.0 (Windows NT 10.0; Win64; x64) AppleWebKit/537.36 (KHTML, like Gecko) draw.io/24.4.8 Chrome/124.0.6367.207 Electron/30.0.6 Safari/537.36&quot; version=&quot;24.4.8&quot; etag=&quot;O-DZIEIfGVX1BshWH4IF&quot; type=&quot;device&quot; scale=&quot;1&quot; border=&quot;0&quot;&gt;&#10;  &lt;diagram name=&quot;Page-1&quot; id=&quot;mH1ITwpMwFIbLKaxata1&quot;&gt;&#10;    &lt;mxGraphModel dx=&quot;519&quot; dy=&quot;355&quot; grid=&quot;1&quot; gridSize=&quot;10&quot; guides=&quot;1&quot; tooltips=&quot;1&quot; connect=&quot;1&quot; arrows=&quot;1&quot; fold=&quot;1&quot; page=&quot;1&quot; pageScale=&quot;1&quot; pageWidth=&quot;827&quot; pageHeight=&quot;1169&quot; math=&quot;0&quot; shadow=&quot;0&quot;&gt;&#10;      &lt;root&gt;&#10;        &lt;mxCell id=&quot;0&quot; /&gt;&#10;        &lt;mxCell id=&quot;1&quot; parent=&quot;0&quot; /&gt;&#10;        &lt;mxCell id=&quot;2&quot; value=&quot;&quot; style=&quot;sketch=0;points=[[0.015,0.015,0],[0.985,0.015,0],[0.985,0.985,0],[0.015,0.985,0],[0.25,0,0],[0.5,0,0],[0.75,0,0],[1,0.25,0],[1,0.5,0],[1,0.75,0],[0.75,1,0],[0.5,1,0],[0.25,1,0],[0,0.75,0],[0,0.5,0],[0,0.25,0]];verticalLabelPosition=bottom;html=1;verticalAlign=top;aspect=fixed;align=center;pointerEvents=1;shape=mxgraph.cisco19.rect;prIcon=net_mgmt_appliance;fillColor=#FAFAFA;strokeColor=#4B8CAD;&quot; vertex=&quot;1&quot; parent=&quot;1&quot;&gt;&#10;          &lt;mxGeometry x=&quot;54.43&quot; y=&quot;151.93&quot; width=&quot;50&quot; height=&quot;50&quot; as=&quot;geometry&quot; /&gt;&#10;        &lt;/mxCell&gt;&#10;      &lt;/root&gt;&#10;    &lt;/mxGraphModel&gt;&#10;  &lt;/diagram&gt;&#10;&lt;/mxfile&gt;&#10;"><defs/><g><g><rect x="0.43" y="-0.07" width="50" height="50" fill="none" stroke="none" pointer-events="all"/><path d="M 3.5 -0.07 C 1.81 -0.07 0.43 1.3 0.43 2.98 L 0.43 46.88 C 0.43 48.56 1.81 49.93 3.5 49.93 L 47.36 49.93 C 49.05 49.93 50.43 48.56 50.43 46.88 L 50.43 2.98 C 50.43 1.3 49.05 -0.07 47.36 -0.07 Z" fill="#fafafa" stroke="none" pointer-events="all"/><rect x="0.43" y="-0.07" width="50" height="50" fill="none" stroke="none" pointer-events="all"/><path d="M 27.26 10.7 C 20.44 10.7 14.89 16.23 14.89 23.02 C 14.89 25.89 15.88 28.54 17.55 30.64 L 10.06 38.11 L 13.03 41.06 L 20.67 33.44 C 22.58 34.64 24.84 35.34 27.26 35.34 C 34.08 35.34 39.64 29.8 39.64 23.02 C 39.64 16.23 34.08 10.7 27.26 10.7 Z M 27.26 13.3 C 32.67 13.3 37.02 17.64 37.02 23.02 C 37.02 28.4 32.67 32.73 27.26 32.73 C 21.86 32.73 17.5 28.4 17.5 23.02 C 17.5 17.64 21.86 13.3 27.26 13.3 Z M 21.59 17.42 L 21.59 18.14 L 21.59 28.45 L 32.8 28.45 L 32.8 17.42 Z M 23.03 18.85 L 31.36 18.85 L 31.36 27.02 L 23.03 27.02 Z M 3.5 -0.07 C 1.81 -0.07 0.43 1.3 0.43 2.98 L 0.43 46.88 C 0.43 48.56 1.81 49.93 3.5 49.93 L 47.36 49.93 C 49.05 49.93 50.43 48.56 50.43 46.88 L 50.43 2.98 C 50.43 1.3 49.05 -0.07 47.36 -0.07 Z M 3.5 1.31 L 47.36 1.31 C 48.31 1.31 49.05 2.04 49.05 2.98 L 49.05 46.88 C 49.05 47.82 48.31 48.55 47.36 48.55 L 3.5 48.55 C 2.55 48.55 1.82 47.82 1.82 46.88 L 1.82 2.98 C 1.82 2.04 2.55 1.31 3.5 1.31 Z" fill="#4b8cad" stroke="none" pointer-events="all"/></g></g></svg>