<?xml version="1.0" encoding="UTF-8"?>
<!-- Do not edit this file with editors other than draw.io -->
<!DOCTYPE svg PUBLIC "-//W3C//DTD SVG 1.1//EN" "http://www.w3.org/Graphics/SVG/1.1/DTD/svg11.dtd">
<svg xmlns="http://www.w3.org/2000/svg" xmlns:xlink="http://www.w3.org/1999/xlink" version="1.1" width="57px" height="57px" viewBox="-0.5 -0.5 57 57" content="&lt;mxfile host=&quot;Electron&quot; modified=&quot;2024-05-26T18:40:29.734Z&quot; agent=&quot;Mozilla/5.0 (Windows NT 10.0; Win64; x64) AppleWebKit/537.36 (KHTML, like Gecko) draw.io/24.4.8 Chrome/124.0.6367.207 Electron/30.0.6 Safari/537.36&quot; version=&quot;24.4.8&quot; etag=&quot;jdDIYV3ixpGe1m_Nsjv-&quot; type=&quot;device&quot; scale=&quot;1&quot; border=&quot;0&quot;&gt;&#10;  &lt;diagram name=&quot;Page-1&quot; id=&quot;RzFCszAqx2nqEdVoBcFK&quot;&gt;&#10;    &lt;mxGraphModel dx=&quot;1038&quot; dy=&quot;704&quot; grid=&quot;1&quot; gridSize=&quot;10&quot; guides=&quot;1&quot; tooltips=&quot;1&quot; connect=&quot;1&quot; arrows=&quot;1&quot; fold=&quot;1&quot; page=&quot;1&quot; pageScale=&quot;1&quot; pageWidth=&quot;827&quot; pageHeight=&quot;1169&quot; math=&quot;0&quot; shadow=&quot;0&quot;&gt;&#10;      &lt;root&gt;&#10;        &lt;mxCell id=&quot;0&quot; /&gt;&#10;        &lt;mxCell id=&quot;1&quot; parent=&quot;0&quot; /&gt;&#10;        &lt;mxCell id=&quot;2&quot; value=&quot;&quot; style=&quot;sketch=0;points=[[0.5,0,0],[1,0.5,0],[0.5,1,0],[0,0.5,0],[0.145,0.145,0],[0.8555,0.145,0],[0.855,0.8555,0],[0.145,0.855,0]];verticalLabelPosition=bottom;html=1;verticalAlign=top;aspect=fixed;align=center;pointerEvents=1;shape=mxgraph.cisco19.rect;prIcon=csr_1000v;fillColor=#FAFAFA;strokeColor=#009900;&quot; vertex=&quot;1&quot; parent=&quot;1&quot;&gt;&#10;          &lt;mxGeometry x=&quot;573&quot; y=&quot;704&quot; width=&quot;56&quot; height=&quot;56&quot; as=&quot;geometry&quot; /&gt;&#10;        &lt;/mxCell&gt;&#10;      &lt;/root&gt;&#10;    &lt;/mxGraphModel&gt;&#10;  &lt;/diagram&gt;&#10;&lt;/mxfile&gt;&#10;"><defs/><g><g><ellipse cx="28" cy="28" rx="28" ry="28" fill="#fafafa" stroke="none" pointer-events="all"/><rect x="0" y="0" width="56" height="56" fill="none" stroke="none" pointer-events="all"/><path d="M 22.57 47.25 C 20.7 47.15 18.32 46.55 18.32 44.76 C 18.32 43 19.45 42.43 20.73 41.84 C 21.35 39.19 22.45 37.54 25.2 36.64 C 28.09 35.93 30.86 37.16 32.25 39.72 C 33.05 39.16 34.07 39.06 35.04 39.62 C 36.15 40.31 36.52 41.05 36.71 41.79 C 38.09 42.16 39.5 43.23 39.18 44.87 C 38.89 46.27 37.82 46.85 36.19 47.09 C 34.96 47.25 32.64 47.13 31.43 46.91 C 30.28 48.05 28.86 48.99 26.73 48.99 C 25.16 48.96 23.65 48.32 22.57 47.25 Z M 41.13 37.57 L 34.86 31.41 L 32.3 34.01 L 30.35 24.63 L 39.8 26.37 L 37.27 28.95 L 43.55 35.1 Z M 27.05 25.62 L 20.9 31.9 L 23.5 34.45 L 14.11 36.41 L 15.85 26.95 L 18.43 29.48 L 24.59 23.21 Z M 15.2 6.92 L 21.48 13.08 L 24.04 10.47 L 25.99 19.86 L 16.54 18.12 L 19.07 15.54 L 12.79 9.38 Z M 29.03 18.79 L 35.18 12.52 L 32.58 9.96 L 41.97 8.01 L 40.23 17.46 L 37.65 14.93 L 31.49 21.21 Z M 28 0 C 12.54 0 0 12.54 0 28 C 0 43.46 12.54 56 28 56 C 43.46 56 56 43.46 56 28 C 56 12.54 43.46 0 28 0 Z M 28 0.71 C 43.08 0.71 55.29 12.92 55.29 28 C 55.29 43.08 43.08 55.29 28 55.29 C 12.92 55.29 0.71 43.08 0.71 28 C 0.71 12.92 12.92 0.71 28 0.71 Z" fill="#009900" stroke="none" pointer-events="all"/></g></g></svg>