<?xml version="1.0" encoding="UTF-8"?>
<!-- Do not edit this file with editors other than draw.io -->
<!DOCTYPE svg PUBLIC "-//W3C//DTD SVG 1.1//EN" "http://www.w3.org/Graphics/SVG/1.1/DTD/svg11.dtd">
<svg xmlns="http://www.w3.org/2000/svg" xmlns:xlink="http://www.w3.org/1999/xlink" version="1.1" width="57px" height="57px" viewBox="-0.5 -0.5 57 57" content="&lt;mxfile host=&quot;Electron&quot; modified=&quot;2024-05-26T18:37:33.113Z&quot; agent=&quot;Mozilla/5.0 (Windows NT 10.0; Win64; x64) AppleWebKit/537.36 (KHTML, like Gecko) draw.io/24.4.8 Chrome/124.0.6367.207 Electron/30.0.6 Safari/537.36&quot; version=&quot;24.4.8&quot; etag=&quot;LwkWQFfqWQM52D835hzH&quot; type=&quot;device&quot; scale=&quot;1&quot; border=&quot;0&quot;&gt;&#10;  &lt;diagram name=&quot;Page-1&quot; id=&quot;m2NS5XxsWuTadlktrAzf&quot;&gt;&#10;    &lt;mxGraphModel dx=&quot;1038&quot; dy=&quot;704&quot; grid=&quot;1&quot; gridSize=&quot;10&quot; guides=&quot;1&quot; tooltips=&quot;1&quot; connect=&quot;1&quot; arrows=&quot;1&quot; fold=&quot;1&quot; page=&quot;1&quot; pageScale=&quot;1&quot; pageWidth=&quot;827&quot; pageHeight=&quot;1169&quot; math=&quot;0&quot; shadow=&quot;0&quot;&gt;&#10;      &lt;root&gt;&#10;        &lt;mxCell id=&quot;0&quot; /&gt;&#10;        &lt;mxCell id=&quot;1&quot; parent=&quot;0&quot; /&gt;&#10;        &lt;mxCell id=&quot;2&quot; value=&quot;&quot; style=&quot;sketch=0;points=[[0.5,0,0],[1,0.5,0],[0.5,1,0],[0,0.5,0],[0.145,0.145,0],[0.8555,0.145,0],[0.855,0.8555,0],[0.145,0.855,0]];verticalLabelPosition=bottom;html=1;verticalAlign=top;aspect=fixed;align=center;pointerEvents=1;shape=mxgraph.cisco19.rect;prIcon=secure_router;fillColor=#FAFAFA;strokeColor=#3C708A;gradientColor=none;&quot; vertex=&quot;1&quot; parent=&quot;1&quot;&gt;&#10;          &lt;mxGeometry x=&quot;613&quot; y=&quot;20.72&quot; width=&quot;56&quot; height=&quot;56&quot; as=&quot;geometry&quot; /&gt;&#10;        &lt;/mxCell&gt;&#10;      &lt;/root&gt;&#10;    &lt;/mxGraphModel&gt;&#10;  &lt;/diagram&gt;&#10;&lt;/mxfile&gt;&#10;"><defs/><g><g><ellipse cx="28" cy="27.72" rx="28" ry="28" fill="#fafafa" stroke="none" pointer-events="all"/><rect x="0" y="-0.28" width="56" height="56" fill="none" stroke="none" pointer-events="all"/><path d="M 28.15 37.04 C 29.49 37.04 30.65 38.1 30.65 39.49 L 30.65 42.07 L 25.66 42.07 L 25.66 39.49 C 25.66 38.37 26.5 37.04 28.15 37.04 Z M 28.15 36.33 C 26.12 36.33 24.95 38 24.95 39.49 L 24.95 42.07 L 22.83 42.07 L 22.83 49.16 L 33.17 49.16 L 33.17 42.07 L 31.36 42.07 L 31.36 39.49 C 31.36 37.7 29.87 36.33 28.15 36.33 Z M 28.72 45.01 C 28.72 45.3 28.55 45.56 28.28 45.67 L 28.28 47.34 L 27.71 47.34 L 27.71 45.67 C 27.45 45.56 27.28 45.3 27.28 45.01 C 27.28 44.61 27.6 44.29 28 44.29 C 28.4 44.29 28.72 44.61 28.72 45.01 Z M 28 0.43 C 43.08 0.43 55.29 12.64 55.29 27.72 C 55.29 42.8 43.08 55.01 28 55.01 C 12.92 55.01 0.71 42.8 0.71 27.72 C 0.71 12.64 12.92 0.43 28 0.43 Z M 28 -0.28 C 12.54 -0.28 0 12.26 0 27.72 C 0 43.18 12.54 55.72 28 55.72 C 43.46 55.72 56 43.18 56 27.72 C 56 12.26 43.46 -0.28 28 -0.28 Z M 28.98 21.21 L 35.99 14.05 L 33.03 11.14 L 43.73 8.92 L 41.74 19.69 L 38.8 16.81 L 31.79 23.96 Z M 13.22 7.67 L 20.38 14.69 L 23.29 11.72 L 25.51 22.42 L 14.74 20.44 L 17.62 17.5 L 10.47 10.48 Z M 26.72 29 L 19.71 36.15 L 22.68 39.06 L 11.98 41.29 L 13.96 30.51 L 16.9 33.4 L 23.92 26.24 Z M 42.78 42.61 L 35.62 35.59 L 32.71 38.56 L 30.49 27.86 L 41.26 29.84 L 38.38 32.78 L 45.53 39.8 Z" fill="#3c708a" stroke="none" pointer-events="all"/></g></g></svg>