<?xml version="1.0" encoding="UTF-8"?>
<!-- Do not edit this file with editors other than draw.io -->
<!DOCTYPE svg PUBLIC "-//W3C//DTD SVG 1.1//EN" "http://www.w3.org/Graphics/SVG/1.1/DTD/svg11.dtd">
<svg xmlns="http://www.w3.org/2000/svg" xmlns:xlink="http://www.w3.org/1999/xlink" version="1.1" width="37px" height="57px" viewBox="-0.5 -0.5 37 57" content="&lt;mxfile host=&quot;Electron&quot; modified=&quot;2024-05-28T07:20:18.737Z&quot; agent=&quot;Mozilla/5.0 (Windows NT 10.0; Win64; x64) AppleWebKit/537.36 (KHTML, like Gecko) draw.io/24.4.8 Chrome/124.0.6367.207 Electron/30.0.6 Safari/537.36&quot; version=&quot;24.4.8&quot; etag=&quot;oqt5jlrW7mSURugpmdlh&quot; type=&quot;device&quot; scale=&quot;1&quot; border=&quot;0&quot;&gt;&#10;  &lt;diagram name=&quot;Page-1&quot; id=&quot;tH0u0U1UiGJI7txwSwe2&quot;&gt;&#10;    &lt;mxGraphModel dx=&quot;519&quot; dy=&quot;352&quot; grid=&quot;1&quot; gridSize=&quot;10&quot; guides=&quot;1&quot; tooltips=&quot;1&quot; connect=&quot;1&quot; arrows=&quot;1&quot; fold=&quot;1&quot; page=&quot;1&quot; pageScale=&quot;1&quot; pageWidth=&quot;827&quot; pageHeight=&quot;1169&quot; math=&quot;0&quot; shadow=&quot;0&quot;&gt;&#10;      &lt;root&gt;&#10;        &lt;mxCell id=&quot;0&quot; /&gt;&#10;        &lt;mxCell id=&quot;1&quot; parent=&quot;0&quot; /&gt;&#10;        &lt;mxCell id=&quot;2&quot; value=&quot;&quot; style=&quot;group&quot; vertex=&quot;1&quot; connectable=&quot;0&quot; parent=&quot;1&quot;&gt;&#10;          &lt;mxGeometry x=&quot;640&quot; y=&quot;590&quot; width=&quot;36&quot; height=&quot;55.5&quot; as=&quot;geometry&quot; /&gt;&#10;        &lt;/mxCell&gt;&#10;        &lt;mxCell id=&quot;3&quot; value=&quot;&quot; style=&quot;sketch=0;points=[[0.015,0.015,0],[0.985,0.015,0],[0.985,0.985,0],[0.015,0.985,0],[0.25,0,0],[0.5,0,0],[0.75,0,0],[1,0.25,0],[1,0.5,0],[1,0.75,0],[0.75,1,0],[0.5,1,0],[0.25,1,0],[0,0.75,0],[0,0.5,0],[0,0.25,0]];verticalLabelPosition=bottom;html=1;verticalAlign=top;align=center;pointerEvents=1;shape=mxgraph.cisco19.server;fillColor=#3C708A;strokeColor=#3C708A;gradientColor=none;container=0;&quot; vertex=&quot;1&quot; parent=&quot;2&quot;&gt;&#10;          &lt;mxGeometry width=&quot;36&quot; height=&quot;55.5&quot; as=&quot;geometry&quot; /&gt;&#10;        &lt;/mxCell&gt;&#10;        &lt;mxCell id=&quot;4&quot; value=&quot;&quot; style=&quot;rounded=0;whiteSpace=wrap;html=1;strokeColor=none;container=0;&quot; vertex=&quot;1&quot; parent=&quot;2&quot;&gt;&#10;          &lt;mxGeometry x=&quot;4&quot; y=&quot;18&quot; width=&quot;28&quot; height=&quot;14&quot; as=&quot;geometry&quot; /&gt;&#10;        &lt;/mxCell&gt;&#10;        &lt;mxCell id=&quot;5&quot; value=&quot;&quot; style=&quot;sketch=0;pointerEvents=1;shadow=0;dashed=0;html=1;strokeColor=none;fillColor=#3C708A;aspect=fixed;labelPosition=center;verticalLabelPosition=bottom;verticalAlign=top;align=center;outlineConnect=0;shape=mxgraph.vvd.networking;&quot; vertex=&quot;1&quot; parent=&quot;2&quot;&gt;&#10;          &lt;mxGeometry x=&quot;9.5&quot; y=&quot;17&quot; width=&quot;17&quot; height=&quot;17&quot; as=&quot;geometry&quot; /&gt;&#10;        &lt;/mxCell&gt;&#10;      &lt;/root&gt;&#10;    &lt;/mxGraphModel&gt;&#10;  &lt;/diagram&gt;&#10;&lt;/mxfile&gt;&#10;"><defs/><g><g/><g><rect x="0" y="0" width="36" height="55.5" fill="none" stroke="none" pointer-events="all"/><path d="M 18.02 18.95 C 15.9 18.95 14.17 20.46 14.17 22.3 C 14.17 24.14 15.9 25.65 18.02 25.65 C 20.14 25.65 21.87 24.14 21.87 22.3 C 21.87 20.46 20.14 18.95 18.02 18.95 Z M 17.52 20.01 L 17.52 22.37 C 17.52 22.61 17.74 22.81 18.02 22.81 C 18.3 22.81 18.52 22.61 18.52 22.37 L 18.52 20.01 C 19.77 20.21 20.71 21.15 20.71 22.3 C 20.71 23.6 19.51 24.64 18.02 24.64 C 16.53 24.64 15.33 23.6 15.33 22.3 C 15.33 21.15 16.27 20.21 17.52 20.01 Z M 0 38.49 L 0 39.21 L 0 46.02 L 36 46.02 L 36 38.49 Z M 1.66 39.94 L 34.34 39.94 L 34.34 44.58 L 1.66 44.58 Z M 0 15.02 L 0 15.74 L 0 36.95 L 36 36.95 L 36 15.02 Z M 1.66 16.46 L 34.34 16.46 L 34.34 35.5 L 1.66 35.5 Z M 36 13.93 L 36 3.39 C 36 1.52 34.2 0 32.05 0 L 3.9 0 C 1.76 0 0 1.52 0 3.39 L 0 13.93 Z M 0 47.41 L 0 52.11 C 0 53.98 1.76 55.5 3.9 55.5 L 32.05 55.5 C 34.2 55.5 36 53.98 36 52.11 L 36 47.41 Z M 34.34 48.92 L 34.34 52.11 C 34.34 53.2 33.31 54.05 32.05 54.05 L 3.9 54.05 C 2.65 54.05 1.66 53.2 1.66 52.11 L 1.66 48.92 Z M 1.66 12.44 L 1.66 3.39 C 1.66 2.3 2.65 1.45 3.9 1.45 L 32.05 1.45 C 33.31 1.45 34.34 2.3 34.34 3.39 L 34.34 12.44 Z" fill="#3c708a" stroke="none" pointer-events="all"/></g><g><rect x="4" y="18" width="28" height="14" fill="rgb(255, 255, 255)" stroke="none" pointer-events="all"/></g><g><rect x="9.5" y="17" width="17" height="17" fill="none" stroke="none" pointer-events="all"/><path d="M 13.97 19.39 C 13.87 19.38 13.89 19.37 13.84 19.32 C 13.81 19.29 13.76 19.31 13.75 19.23 C 13.74 19.2 13.74 19.14 13.78 19.11 C 13.88 19.05 14.02 19.07 14.1 19.13 C 14.16 19.17 14.06 19.39 13.97 19.39 Z M 18 17 C 13.31 17 9.5 20.81 9.5 25.5 C 9.5 30.19 13.31 34 18 34 C 22.69 34 26.5 30.19 26.5 25.5 C 26.5 20.81 22.69 17 18 17 Z M 18 17.39 C 19.66 17.39 21.21 17.89 22.49 18.75 C 22.49 18.8 22.44 18.84 22.37 18.9 C 22.32 18.94 22.28 18.97 22.28 19.08 C 22.28 19.17 22.14 19.26 22.22 19.36 C 22.33 19.53 22.55 19.62 22.63 19.53 C 22.7 19.46 22.52 19.46 22.52 19.25 C 22.52 19.13 22.62 18.97 22.69 18.88 C 22.91 19.04 23.13 19.21 23.33 19.39 C 23.31 19.42 23.3 19.45 23.29 19.48 C 23.27 19.52 23.27 19.7 23.29 19.74 C 23.35 19.9 23.28 19.82 23.23 19.76 C 23.18 19.7 23.11 19.69 23.05 19.68 C 22.95 19.66 22.98 19.73 22.87 19.63 C 22.79 19.56 22.74 19.64 22.81 19.7 C 22.88 19.74 22.94 19.78 22.88 19.8 C 22.71 19.89 22.65 19.85 22.55 19.83 C 22.4 19.82 22.44 19.89 22.35 19.9 C 22.28 19.91 22.28 19.89 22.23 19.93 C 22.14 20.02 22.15 19.98 22.09 20.02 C 22.06 20.05 22.01 20.15 21.96 20.13 C 21.84 20.1 21.91 19.99 21.84 19.97 C 21.77 19.95 21.76 20 21.77 20.05 C 21.78 20.16 21.73 20.17 21.67 20.15 C 21.59 20.13 21.61 20.13 21.54 20.21 C 21.51 20.24 21.47 20.24 21.49 20.3 C 21.5 20.34 21.47 20.34 21.45 20.36 C 21.41 20.39 21.45 20.39 21.4 20.43 C 21.3 20.54 21.29 20.49 21.22 20.43 C 21.12 20.35 21.18 20.31 21.11 20.22 C 20.97 20.04 21.03 20.04 21.18 20.13 C 21.31 20.2 21.53 20.19 21.55 20.07 C 21.59 19.91 21.16 19.68 21.05 19.67 C 20.91 19.66 20.96 19.58 20.88 19.56 C 20.81 19.54 20.85 19.55 20.77 19.46 C 20.63 19.3 20.64 19.35 20.44 19.37 C 20.19 19.39 20.19 19.44 20.09 19.44 C 19.97 19.43 19.91 19.65 19.75 19.73 C 19.61 19.79 19.5 19.87 19.68 19.89 C 19.84 19.91 19.7 20.08 19.59 20.18 C 19.53 20.23 19.42 20.4 19.35 20.41 C 19.26 20.43 19.2 20.55 19.1 20.62 C 19.02 20.69 18.95 20.67 18.94 20.78 C 18.92 21.02 18.95 21.14 19.02 21.24 C 19.09 21.35 19.15 21.21 19.23 21.22 C 19.3 21.22 19.27 21.2 19.35 21.19 C 19.47 21.18 19.39 21.29 19.5 21.42 C 19.59 21.54 19.53 21.57 19.58 21.58 C 19.63 21.59 19.62 21.55 19.69 21.5 C 19.72 21.47 19.82 21.55 19.81 21.43 C 19.8 21.18 19.83 21.23 19.92 21.14 C 20.02 21.06 19.82 21.04 19.82 20.92 C 19.82 20.81 19.9 20.62 19.95 20.56 C 20.02 20.46 20.14 20.48 20.13 20.37 C 20.13 20.2 20.21 20.15 20.31 20.17 C 20.53 20.22 20.28 20.49 20.21 20.56 C 20.14 20.62 20.21 20.64 20.2 20.79 C 20.19 20.86 20.25 20.93 20.32 20.97 C 20.42 21.03 20.45 20.91 20.51 20.91 C 20.6 20.91 20.6 20.87 20.66 20.86 C 20.77 20.86 20.78 20.7 20.92 20.85 C 20.99 20.92 20.76 21.06 20.68 21.07 C 20.49 21.09 20.56 21.12 20.45 21.15 C 20.34 21.18 20.34 21.2 20.35 21.25 C 20.39 21.37 20.32 21.39 20.29 21.39 C 20.22 21.36 20.2 21.34 20.17 21.4 C 20.12 21.49 20.16 21.51 20.12 21.56 C 19.97 21.74 19.74 21.81 19.68 21.81 C 19.45 21.8 19.48 21.86 19.37 21.86 C 19.18 21.85 19.24 21.88 19.11 21.91 C 18.97 21.94 18.99 21.9 18.93 21.95 C 18.87 22.01 18.88 22.06 18.78 22.16 C 18.7 22.23 18.69 22.24 18.71 22.16 C 18.71 22.1 18.69 22.1 18.64 22.05 C 18.6 22 18.59 22.06 18.59 21.98 C 18.58 21.91 18.55 21.91 18.48 21.81 C 18.39 21.67 18.4 21.67 18.4 21.63 C 18.39 21.53 18.45 21.56 18.42 21.48 C 18.39 21.43 18.34 21.5 18.32 21.36 C 18.32 21.31 18.22 21.34 18.16 21.36 C 18.09 21.38 18.04 21.45 18.03 21.54 C 18.01 21.65 18.13 21.74 18.17 21.8 C 18.2 21.85 18.25 21.8 18.32 21.87 C 18.37 21.92 18.37 21.95 18.33 21.97 C 18.2 22.06 18.26 22.04 18.2 22.1 C 18.14 22.16 18.18 22.18 18.15 22.27 C 18.1 22.39 18.18 22.44 18.31 22.39 C 18.38 22.35 18.4 22.33 18.46 22.33 C 18.55 22.35 18.53 22.3 18.57 22.3 C 18.7 22.27 18.52 22.38 18.46 22.42 C 18.32 22.49 18.33 22.46 18.28 22.46 C 18.18 22.46 18.16 22.54 18.23 22.58 C 18.37 22.66 18.33 22.67 18.38 22.75 C 18.44 22.85 18.53 22.91 18.43 23.06 C 18.37 23.15 18.32 23.08 18.15 23.07 C 17.92 23.06 17.94 23.09 17.86 23.1 C 17.81 23.11 17.81 23.11 17.83 23.15 C 17.87 23.24 17.86 23.39 17.84 23.46 C 17.8 23.6 17.79 23.67 17.84 23.76 C 17.89 23.86 17.93 23.71 18.05 23.87 C 18.1 23.93 18.11 23.9 18.15 23.87 C 18.23 23.81 18.27 23.86 18.33 23.82 C 18.39 23.79 18.35 23.77 18.42 23.73 C 18.49 23.71 18.54 23.65 18.54 23.57 C 18.53 23.42 18.56 23.45 18.57 23.45 C 18.62 23.41 18.62 23.37 18.68 23.32 C 18.76 23.26 18.76 23.29 18.78 23.2 C 18.81 23.1 18.86 23.07 18.93 23.1 C 18.98 23.12 18.99 23.18 19.11 23.07 C 19.25 22.94 19.29 23 19.34 23.13 C 19.43 23.31 19.62 23.41 19.69 23.46 C 19.72 23.49 19.76 23.54 19.75 23.59 C 19.75 23.63 19.72 23.71 19.68 23.71 C 19.57 23.7 19.64 23.78 19.66 23.8 C 19.71 23.87 19.72 23.72 19.76 23.72 C 19.82 23.71 19.83 23.59 19.82 23.56 C 19.78 23.45 19.94 23.54 19.93 23.47 C 19.92 23.4 19.66 23.3 19.62 23.2 C 19.59 23.11 19.46 23.08 19.47 22.95 C 19.48 22.83 19.65 22.96 19.68 22.99 C 19.77 23.13 19.83 23.14 19.87 23.16 C 20.05 23.26 20.04 23.32 20.04 23.36 C 20.02 23.6 20.14 23.48 20.14 23.7 C 20.15 23.9 20.36 23.83 20.4 23.8 C 20.55 23.68 20.26 23.6 20.34 23.49 C 20.48 23.31 20.57 23.43 20.61 23.53 C 20.65 23.61 20.6 23.72 20.69 23.79 C 20.76 23.85 20.73 23.88 20.85 23.91 C 20.96 23.94 20.92 23.81 21.03 23.9 C 21.06 23.93 21.13 23.96 21.19 23.91 C 21.28 23.83 21.34 23.98 21.33 24.12 C 21.33 24.12 21.29 24.21 21.29 24.32 C 21.29 24.4 21.17 24.49 21.06 24.47 C 20.87 24.43 20.77 24.54 20.65 24.47 C 20.54 24.4 20.48 24.42 20.39 24.36 C 20.21 24.24 20.11 24.29 20.09 24.36 C 20.06 24.45 20.14 24.55 19.9 24.51 C 19.74 24.49 19.79 24.38 19.56 24.31 C 19.4 24.26 19.31 24.16 19.33 24.13 C 19.39 23.99 19.34 23.97 19.37 23.88 C 19.41 23.74 19.2 23.82 18.8 23.83 C 18.6 23.83 18.61 23.88 18.57 23.89 C 18.41 23.95 18.4 24 18.35 24 C 18.27 24.01 18.26 23.95 18.22 23.99 C 18.19 24.01 18.18 24 18.14 23.97 C 18.08 23.93 18.04 24.01 18.03 24.05 C 17.99 24.24 17.9 24.13 17.8 24.3 C 17.67 24.5 17.9 24.58 17.56 24.83 C 17.36 24.97 17.32 25.2 17.25 25.25 C 17.1 25.38 17.17 25.56 17.22 25.77 C 17.31 26.1 17.11 26 17.19 26.3 C 17.24 26.5 17.36 26.52 17.43 26.72 C 17.52 26.97 17.64 26.98 17.73 27.09 C 17.85 27.24 17.9 27.23 18.02 27.18 C 18.21 27.11 18.2 27.22 18.27 27.19 C 18.52 27.06 18.5 27.12 18.59 27.08 C 18.82 26.97 18.87 26.98 18.96 27.17 C 19.02 27.29 19.13 27.16 19.17 27.19 C 19.32 27.29 19.27 27.37 19.28 27.44 C 19.29 27.7 19.23 27.62 19.23 27.74 C 19.22 27.94 19.29 27.8 19.47 28.23 C 19.58 28.49 19.51 28.55 19.58 28.73 C 19.66 28.95 19.49 28.96 19.5 29.1 C 19.51 29.24 19.42 29.17 19.44 29.4 C 19.45 29.59 19.48 29.52 19.52 29.69 C 19.57 29.92 19.65 29.73 19.65 30.26 C 19.65 30.53 19.74 30.48 19.81 30.69 C 19.87 30.89 19.92 30.92 19.87 31.02 C 19.84 31.1 19.82 31.14 19.96 31.22 C 20.02 31.26 20.14 31.16 20.22 31.15 C 20.33 31.14 20.39 31.17 20.52 31.11 C 20.59 31.08 20.89 30.66 20.94 30.55 C 21.03 30.35 20.88 30.3 21.06 30.21 C 21.16 30.16 21.24 30.12 21.17 29.91 C 21.11 29.74 21.14 29.7 21.19 29.63 C 21.36 29.35 21.35 29.58 21.55 29.32 C 21.62 29.23 21.63 28.87 21.62 28.75 C 21.6 28.62 21.5 28.64 21.55 28.49 C 21.59 28.39 21.55 28.25 21.55 28.21 C 21.54 28.07 21.67 27.96 21.73 27.87 C 21.81 27.76 21.75 27.79 21.84 27.67 C 22.08 27.35 21.95 27.63 22.18 27.34 C 22.31 27.17 22.3 27.12 22.37 26.92 C 22.42 26.77 22.46 26.85 22.5 26.63 C 22.52 26.48 22.45 26.52 22.4 26.53 C 22.3 26.56 22.3 26.51 22.23 26.57 C 22.14 26.64 22.12 26.59 22.05 26.59 C 21.91 26.59 21.95 26.57 21.93 26.54 C 21.86 26.45 21.89 26.45 21.91 26.42 C 21.93 26.38 22 26.42 22.08 26.31 C 22.11 26.26 22.16 26.24 22.27 26.22 C 22.59 26.15 22.59 26.06 22.67 25.97 C 22.79 25.84 22.82 25.87 22.87 25.83 C 22.92 25.8 22.94 25.72 22.96 25.71 C 23.11 25.57 23.18 25.48 23.18 25.39 C 23.17 25.26 22.88 25.12 22.79 25.15 C 22.63 25.22 22.6 25.19 22.52 25.14 C 22.37 25.06 22.47 25.02 22.41 24.95 C 22.32 24.85 22.35 24.84 22.31 24.78 C 22.24 24.63 22.28 24.57 22.38 24.57 C 22.48 24.57 22.5 24.77 22.55 24.82 C 22.66 24.93 22.76 24.97 22.85 24.94 C 22.98 24.89 23 25 23.12 25.06 C 23.24 25.12 23.26 25.03 23.31 25.08 C 23.35 25.11 23.27 25.14 23.36 25.23 C 23.5 25.39 23.45 25.41 23.47 25.49 C 23.5 25.62 23.55 25.6 23.63 25.57 C 23.7 25.54 23.68 25.63 23.68 25.71 C 23.68 25.8 23.71 25.77 23.7 25.85 C 23.67 26.08 23.73 26.05 23.74 26.2 C 23.77 26.52 23.88 26.84 23.91 26.84 C 24 26.86 23.94 26.81 24.02 26.77 C 24.09 26.74 24.09 26.73 24.09 26.61 C 24.09 26.55 24.13 26.52 24.13 26.37 C 24.13 26.12 24.23 26.14 24.34 26.02 C 24.65 25.67 24.62 25.79 24.65 25.74 C 24.69 25.7 24.67 25.68 24.7 25.63 C 24.76 25.54 24.8 25.65 24.89 25.56 C 25.01 25.43 25.01 25.55 25.03 25.65 C 25.05 25.76 25.07 25.72 25.11 25.78 C 25.15 25.85 25.13 25.88 25.16 25.92 C 25.24 26.03 25.29 25.88 25.37 26.23 C 25.52 26.78 25.36 26.74 25.4 26.89 C 25.45 27.04 25.47 26.96 25.48 27.2 C 25.48 27.36 25.51 27.5 25.64 27.54 C 25.73 27.56 25.67 27.47 25.67 27.36 C 25.67 27.18 25.64 27.19 25.56 27.05 C 25.39 26.75 25.5 26.74 25.51 26.62 C 25.52 26.38 25.64 26.49 25.71 26.66 C 25.79 26.87 25.9 26.8 26.02 26.72 C 25.94 27.26 25.8 27.77 25.62 28.27 C 25.56 28.25 25.49 28.23 25.49 28.17 C 25.48 28.11 25.53 28.11 25.52 28.02 C 25.52 27.89 25.43 27.94 25.44 27.85 C 25.44 27.72 25.32 27.76 25.25 27.53 C 25.22 27.44 25.12 27.33 25.06 27.37 C 24.99 27.42 25.14 27.49 25.13 27.68 C 25.13 27.79 25.23 27.78 25.27 27.94 C 25.3 28.07 25.33 28.12 25.37 28.19 C 25.43 28.35 25.51 28.37 25.57 28.41 C 25.26 29.21 24.83 29.95 24.3 30.6 C 24.25 30.57 24.2 30.52 24.17 30.48 C 24.14 30.42 24.19 30.35 24.14 30.3 C 24.1 30.26 24.05 30.3 24.05 30.36 C 24.06 30.46 24 30.49 24 30.53 C 24 30.69 23.95 30.65 23.93 30.72 C 23.88 30.88 23.83 30.87 23.78 30.81 C 23.68 30.68 23.67 30.71 23.59 30.69 C 23.51 30.66 23.57 30.49 23.66 30.42 C 23.73 30.37 23.71 30.33 23.66 30.33 C 23.48 30.32 23.4 30.27 23.3 30.32 C 23.19 30.36 23.22 30.41 23.14 30.52 C 23.06 30.63 23.02 30.58 22.99 30.56 C 22.94 30.54 22.88 30.53 22.83 30.57 C 22.68 30.67 22.65 30.76 22.57 30.81 C 22.5 30.85 22.46 30.91 22.46 30.96 C 22.47 31.08 22.32 31.13 22.29 31.13 C 22.23 31.14 22.25 31.11 22.12 31.16 C 22.02 31.2 21.87 31.34 21.78 31.43 C 21.76 31.45 21.75 31.44 21.75 31.51 C 21.74 31.63 21.71 31.63 21.7 31.76 C 21.69 31.93 21.72 32.06 21.73 32.07 C 21.76 32.08 21.73 32.11 21.72 32.16 C 21.69 32.29 21.81 32.26 21.67 32.5 C 21.63 32.57 21.67 32.64 21.74 32.69 C 20.63 33.28 19.35 33.61 18 33.61 C 16.48 33.61 15.06 33.19 13.84 32.46 C 13.9 32.38 13.91 32.27 13.78 32.24 C 13.72 32.23 13.72 32.2 13.62 32.14 C 13.53 32.08 13.4 31.95 13.26 31.86 C 13.21 31.86 13.17 31.9 13.1 31.84 C 13.06 31.8 13.04 31.77 13.05 31.71 C 13.05 31.68 12.97 31.65 12.93 31.64 C 12.92 31.59 12.96 31.54 12.92 31.5 C 12.84 31.42 12.92 31.33 12.88 31.31 C 12.85 31.3 12.76 31.38 12.78 31.44 C 12.8 31.5 12.88 31.56 12.82 31.59 C 12.79 31.61 12.75 31.63 12.71 31.65 C 10.99 30.16 9.89 27.96 9.89 25.5 C 9.89 24.77 9.99 24.06 10.17 23.38 C 10.25 23.52 10.17 23.59 10.26 23.64 C 10.33 23.67 10.36 23.85 10.35 23.97 C 10.35 24.07 10.46 24.04 10.46 24.11 C 10.46 24.2 10.5 24.18 10.53 24.28 C 10.55 24.34 10.6 24.26 10.62 24.32 C 10.69 24.51 10.69 24.81 10.81 25.03 C 10.85 25.11 10.84 25.19 10.8 25.28 C 10.74 25.45 10.89 25.57 11.02 25.74 C 11.08 25.8 11.1 25.77 11.15 25.83 C 11.22 25.9 11.26 25.96 11.34 25.97 C 11.51 25.99 11.52 26 11.54 26.08 C 11.59 26.24 11.66 26.31 11.74 26.34 C 11.87 26.4 11.88 26.53 11.88 26.61 C 11.88 26.7 11.9 26.79 11.93 26.85 C 12.01 26.97 12.02 26.95 12.07 27.03 C 12.11 27.09 12.14 27.15 12.19 27.09 C 12.26 27 12.29 27.07 12.34 27.15 C 12.43 27.27 12.52 27.23 12.48 27.36 C 12.42 27.53 12.42 27.63 12.41 27.72 C 12.41 27.93 12.54 27.98 12.52 28.08 C 12.48 28.22 12.58 28.27 12.65 28.32 C 12.81 28.46 12.94 28.45 12.99 28.58 C 13.07 28.77 13.18 28.78 13.23 28.88 C 13.32 29.04 13.34 29.04 13.57 29.09 C 13.76 29.13 13.87 29.18 13.91 29.31 C 13.95 29.47 14.01 29.55 14.06 29.71 C 14.11 29.84 14.11 29.94 14.18 30.09 C 14.21 30.17 14.24 30.22 14.26 30.35 C 14.3 30.62 14.43 30.51 14.43 30.76 C 14.43 30.88 14.46 31.01 14.5 31.15 C 14.54 31.24 14.52 31.3 14.6 31.35 C 14.65 31.39 14.64 31.42 14.65 31.48 C 14.67 31.53 14.71 31.55 14.71 31.65 C 14.71 31.79 14.8 31.94 14.85 32.02 C 14.91 32.11 14.84 32.17 14.94 32.21 C 15.02 32.24 15.01 32.29 14.99 32.35 C 14.98 32.4 15 32.44 15.03 32.49 C 15.14 32.67 15.23 32.84 15.36 32.9 C 15.61 33.02 15.77 33.08 15.96 33.07 L 15.96 33.07 C 16 33.06 16.06 33.02 16.01 32.95 C 15.96 32.9 15.88 32.92 15.76 32.82 C 15.67 32.75 15.66 32.64 15.64 32.58 C 15.58 32.32 15.55 32.35 15.58 32.28 C 15.62 32.15 15.59 32.11 15.48 32.06 C 15.35 31.99 15.43 31.96 15.44 31.83 C 15.45 31.65 15.51 31.6 15.39 31.52 C 15.31 31.46 15.28 31.44 15.39 31.4 C 15.45 31.37 15.45 31.35 15.42 31.3 C 15.38 31.19 15.45 31.1 15.54 31.06 C 15.7 31 15.69 30.81 15.57 30.69 C 15.43 30.56 15.54 30.61 15.64 30.58 C 15.8 30.54 15.69 30.49 15.77 30.33 C 15.85 30.19 15.84 30.17 15.84 30.07 C 15.83 29.92 15.86 29.9 15.84 29.78 C 15.84 29.71 15.71 29.61 15.79 29.46 C 15.85 29.33 15.86 29.4 15.91 29.35 C 16.03 29.25 15.97 29.25 16.05 29.19 C 16.2 29.07 16.12 29.05 16.15 28.78 C 16.19 28.42 16.02 28.18 16.03 28.12 C 16.05 28.02 16.08 27.99 16.11 27.88 C 16.17 27.71 16.1 27.83 16.17 27.62 C 16.21 27.51 16.12 27.23 15.96 27.19 C 15.76 27.13 15.8 27.07 15.65 27.06 C 15.45 27.04 15.4 27.15 15.16 27.04 C 14.93 26.93 14.86 27.03 14.78 26.95 C 14.67 26.85 14.69 26.64 14.38 26.49 C 14.17 26.39 14.11 26.61 13.94 26.47 C 13.81 26.37 13.79 26.43 13.69 26.37 C 13.57 26.29 13.55 26.06 13.44 26.16 C 13.35 26.23 13.41 26.18 13.28 26.12 C 13.08 26.03 13.03 26.19 13.13 26.23 C 13.26 26.28 13.32 26.25 13.29 26.29 C 13.19 26.42 13.25 26.3 13.14 26.33 C 12.95 26.38 13.06 26.33 12.86 26.27 C 12.81 26.25 12.74 26.23 12.69 26.3 C 12.59 26.43 12.55 26.42 12.45 26.54 C 12.42 26.57 12.43 26.86 12.43 26.99 C 12.43 27.13 12.4 27.06 12.35 26.99 C 12.25 26.83 12.22 27.02 12.13 26.9 C 11.99 26.71 12.06 26.52 12.1 26.47 C 12.21 26.36 12.13 26.14 12.04 26.13 C 11.98 26.12 11.81 26.08 11.91 25.96 C 12.04 25.78 11.94 25.83 12 25.73 C 12.08 25.59 12.1 25.56 12.01 25.54 C 11.89 25.5 11.88 25.56 11.81 25.64 C 11.68 25.8 11.73 25.69 11.59 25.71 C 11.54 25.72 11.5 25.83 11.41 25.56 C 11.28 25.13 11.53 24.96 11.52 24.9 C 11.49 24.76 11.58 24.7 11.64 24.68 C 11.87 24.61 11.93 24.54 12 24.68 C 12.1 24.87 12.21 24.67 12.3 24.68 C 12.67 24.71 12.49 25.37 12.63 25.29 C 12.79 25.2 12.57 24.71 12.9 24.58 C 13.09 24.51 13.31 24.43 13.28 24.27 C 13.25 24.1 13.34 24.12 13.37 24.09 C 13.45 24.01 13.28 24.03 13.52 23.9 C 13.9 23.68 13.98 23.6 14.14 23.6 C 14.3 23.59 14.19 23.68 14.51 23.61 C 14.94 23.53 14.84 23.31 14.7 23.37 C 14.46 23.47 14.53 23.24 14.56 23.14 C 14.6 22.93 14.48 23.06 14.4 23.05 C 14.29 23.04 14.28 23.17 14.21 23.08 C 14.16 23.03 14.2 22.99 14.32 22.95 C 14.41 22.93 14.41 22.82 14.66 22.91 C 14.82 22.96 14.96 22.96 15.05 22.91 C 15.17 22.83 15.27 22.85 15.31 22.76 C 15.36 22.65 15.08 22.45 15.07 22.34 C 15.05 22.22 15.01 22.24 15.05 22.16 C 15.12 21.99 15.06 21.99 15.06 21.87 C 15.05 21.77 15.08 21.7 14.99 21.75 C 14.82 21.87 14.79 21.93 14.71 21.73 C 14.68 21.65 14.74 21.58 14.74 21.53 C 14.74 21.42 14.7 21.44 14.67 21.36 C 14.63 21.29 14.69 21.25 14.57 21.26 C 14.45 21.27 14.49 21.24 14.4 21.24 C 14.27 21.24 14.29 21.5 14.22 21.54 C 14.11 21.61 14.11 21.61 14.12 21.69 C 14.13 21.8 14.12 22.01 13.98 22.07 C 13.77 22.17 13.81 22.47 13.63 22.52 C 13.53 22.55 13.53 22.31 13.57 22.18 C 13.59 22.1 13.59 22.06 13.51 22.03 C 13.3 21.95 13.37 21.84 13.29 21.73 C 13.21 21.61 13.08 21.61 13.1 21.53 C 13.14 21.37 13.1 21.43 13.07 21.37 C 12.96 21.17 13.23 21.06 13.31 21.02 C 13.46 20.92 13.49 20.81 13.68 20.82 C 13.81 20.83 13.81 20.79 13.84 20.8 C 13.94 20.83 13.8 20.98 13.94 20.98 C 14.03 20.98 14.11 20.89 14.07 20.79 C 14 20.66 14.19 20.67 14.31 20.6 C 14.49 20.5 14.32 20.27 14.45 20.16 C 14.66 19.99 14.83 20.04 14.88 20.24 C 14.93 20.45 15.05 20.47 14.95 20.58 C 14.82 20.73 14.79 20.86 14.71 20.86 C 14.52 20.86 14.34 20.96 14.42 21.05 C 14.5 21.14 14.53 20.99 14.76 21.19 C 14.9 21.31 14.72 21.28 14.99 21.38 C 15.14 21.44 15.1 21.34 15.01 21.27 C 14.91 21.19 15.01 21.07 15.14 21.19 C 15.23 21.28 15.3 21.15 15.21 21.05 C 15.12 20.94 15.23 20.81 15.28 20.89 C 15.32 20.97 15.35 20.9 15.36 20.98 C 15.39 21.13 15.44 21.05 15.54 20.93 C 15.6 20.87 15.63 20.74 15.54 20.65 C 15.48 20.59 15.47 20.53 15.46 20.51 C 15.44 20.5 15.4 20.48 15.38 20.46 C 15.36 20.43 15.35 20.39 15.38 20.34 C 15.41 20.29 15.43 20.22 15.36 20.15 C 15.28 20.08 15.21 20.03 15.26 19.9 C 15.27 19.84 15.27 19.81 15.21 19.81 C 15.15 19.81 15.06 19.77 15.07 19.71 C 15.08 19.63 15.09 19.6 15.01 19.58 C 14.91 19.58 14.81 19.58 14.63 19.52 C 14.42 19.47 14.43 19.54 14.41 19.54 C 14.36 19.54 14.39 19.47 14.4 19.39 C 14.41 19.36 14.36 19.37 14.4 19.34 C 14.42 19.32 14.51 19.24 14.46 19.21 C 14.39 19.18 14.38 19.28 14.33 19.36 C 14.31 19.4 14.26 19.51 14.28 19.52 C 14.3 19.54 14.32 19.5 14.33 19.52 C 14.35 19.54 14.33 19.56 14.35 19.58 C 14.41 19.62 14.34 19.65 14.32 19.63 C 14.31 19.59 14.27 19.65 14.25 19.67 C 14.19 19.71 14.19 19.74 14.21 19.78 C 14.24 19.87 14.22 19.89 14.23 19.94 C 14.24 20.06 14.2 20.07 14.26 20.12 C 14.34 20.19 14.29 20.21 14.26 20.24 C 14.21 20.31 14.19 20.28 14.17 20.31 C 14.14 20.36 14.16 20.36 14.12 20.41 C 14.07 20.47 14.02 20.49 14 20.44 C 14 20.39 13.97 20.37 13.93 20.37 C 13.86 20.36 13.86 20.32 13.88 20.24 C 13.88 20.21 13.86 20.2 13.86 20.19 C 13.88 20.17 13.88 20.13 13.87 20.11 C 13.83 20.05 13.85 20 13.92 19.94 C 14.04 19.84 13.87 19.81 13.87 19.7 C 13.87 19.63 13.96 19.58 14.11 19.57 C 14.16 19.57 14.26 19.5 14.27 19.42 C 14.27 19.4 14.28 19.37 14.27 19.36 C 14.23 19.34 14.21 19.36 14.19 19.37 C 14.16 19.39 14.14 19.41 14.16 19.45 C 14.17 19.52 14.11 19.56 14.06 19.56 C 13.96 19.56 13.97 19.52 13.89 19.49 C 13.8 19.47 13.8 19.51 13.76 19.51 C 13.66 19.5 13.66 19.55 13.58 19.6 C 13.54 19.65 13.55 19.71 13.58 19.73 C 13.62 19.74 13.64 19.76 13.65 19.79 C 13.65 19.85 13.68 19.87 13.72 19.87 C 13.82 19.87 13.83 19.92 13.8 19.98 C 13.78 20.02 13.78 20.05 13.8 20.08 C 13.88 20.17 13.82 20.23 13.74 20.29 C 13.66 20.34 13.58 20.37 13.51 20.35 C 13.37 20.3 13.33 20.28 13.19 20.3 C 13.09 20.3 13.06 20.27 13.04 20.2 C 13.03 20.14 12.97 20.17 12.95 20.18 C 12.71 20.31 12.72 20.21 12.56 20.21 C 12.47 20.21 12.4 20.21 12.43 20.15 C 12.48 20.08 12.42 20.07 12.34 20.05 L 12.44 19.92 C 12.63 20.1 12.72 20.12 12.91 20.05 C 12.97 20.02 13.07 20 13.11 20.07 C 13.16 20.15 13.18 20.14 13.33 20.09 C 13.45 20.06 13.49 20.03 13.4 19.92 C 13.26 19.76 13.33 19.73 13.34 19.6 C 13.37 19.48 13.11 19.48 12.99 19.49 C 12.97 19.48 12.98 19.46 12.95 19.45 L 13.18 19.28 C 13.34 19.28 13.48 19.3 13.55 19.23 C 13.6 19.17 13.57 19.13 13.45 19.08 L 13.73 18.88 C 13.79 18.83 13.8 18.88 13.86 18.88 C 13.92 18.87 13.96 18.88 13.97 18.93 C 13.98 18.98 14.01 19.01 14.06 19.01 C 14.16 19.01 14.18 18.97 14.15 18.89 C 14.1 18.79 14.12 18.74 13.97 18.74 L 14.56 18.42 C 14.57 18.49 14.56 18.55 14.55 18.59 C 14.54 18.66 14.52 18.74 14.47 18.75 C 14.4 18.76 14.33 18.67 14.29 18.74 C 14.24 18.83 14.36 18.91 14.33 18.95 C 14.24 19.13 14.47 19.06 14.48 19.12 C 14.5 19.16 14.49 19.19 14.6 19.16 C 14.7 19.15 14.8 19.16 14.91 19.16 C 15.03 19.15 15.02 19.02 15.23 18.87 C 15.26 18.84 15.31 18.72 15.43 18.64 C 15.53 18.61 15.59 18.53 15.65 18.45 C 15.71 18.36 15.78 18.34 15.87 18.3 C 15.98 18.25 16.04 18.22 16.08 18.17 C 16.1 18.13 16.22 18.06 16.3 18.05 C 16.37 18.04 16.59 17.93 16.56 17.84 C 16.53 17.72 16.01 17.76 15.92 17.8 C 15.84 17.82 15.77 17.74 15.71 17.79 C 15.68 17.82 15.62 17.8 15.52 17.84 C 15.37 17.9 15.26 17.91 15.17 17.9 C 16.05 17.57 17 17.39 18 17.39 Z M 17.97 17.95 C 17.85 17.95 17.74 17.97 17.67 18.03 C 17.47 18.17 17.58 18.07 17.47 18.08 C 17.32 18.09 17.35 18.16 17.28 18.2 C 17.23 18.23 17.29 18.33 17.22 18.34 C 17.16 18.34 17.22 18.22 17.13 18.22 C 16.87 18.23 16.82 18.29 16.72 18.3 C 16.42 18.35 16.45 18.45 16.27 18.52 C 16.21 18.54 16.13 18.56 16.23 18.61 C 16.29 18.63 16.29 18.68 16.21 18.72 C 16.09 18.78 16.1 18.7 15.9 18.84 C 15.83 18.89 15.94 18.94 15.89 18.98 C 15.82 19.05 15.84 19.06 15.88 19.1 C 15.95 19.19 15.87 19.07 16.24 19.09 C 16.45 19.1 16.43 19.14 16.48 19.18 C 16.57 19.26 16.58 19.4 16.56 19.46 C 16.54 19.54 16.53 19.58 16.61 19.59 C 16.82 19.61 16.79 19.67 16.79 19.8 C 16.79 19.96 16.6 19.94 16.59 20.07 C 16.57 20.22 16.5 20.26 16.6 20.39 C 16.71 20.55 16.58 20.51 16.72 20.65 C 16.81 20.74 16.76 20.79 16.84 20.78 C 16.93 20.76 16.97 20.83 17.02 20.85 C 17.1 20.87 17.09 20.75 17.14 20.66 C 17.2 20.56 17.2 20.58 17.23 20.51 C 17.28 20.43 17.26 20.33 17.32 20.25 C 17.38 20.19 17.45 20.25 17.56 20.19 C 17.72 20.09 17.84 19.86 18.1 19.87 C 18.2 19.88 18.29 19.74 18.39 19.66 C 18.45 19.6 18.34 19.54 18.42 19.47 C 18.49 19.4 18.48 19.37 18.48 19.28 C 18.49 19.16 18.51 19.08 18.55 19.01 C 18.57 18.97 18.5 18.95 18.5 18.9 C 18.49 18.85 18.55 18.78 18.55 18.73 C 18.54 18.64 18.62 18.62 18.67 18.53 C 18.75 18.46 18.79 18.42 18.8 18.31 C 18.81 18.18 18.7 18.28 18.62 18.28 C 18.33 18.29 18.6 18.2 18.53 18.09 C 18.5 18.05 18.22 17.95 17.97 17.95 Z M 20.95 18.54 C 20.89 18.54 20.82 18.55 20.73 18.57 C 20.7 18.58 20.65 18.67 20.63 18.67 C 20.59 18.68 20.6 18.62 20.49 18.67 C 20.42 18.7 20.31 18.62 20.27 18.76 C 20.23 18.92 20.3 18.87 20.34 18.97 C 20.39 19.08 20.34 19.1 20.39 19.16 C 20.44 19.22 20.44 19.17 20.54 19.25 C 20.64 19.33 20.75 19.15 20.75 19.08 C 20.75 18.97 20.89 19.02 20.89 19.11 C 20.88 19.16 20.93 19.16 20.99 19.16 C 21.05 19.17 21.15 19.11 21.05 19.05 C 20.88 18.93 20.76 18.93 20.78 18.8 C 20.79 18.77 20.9 18.78 20.95 18.81 C 21.11 18.9 21.18 18.85 21.23 18.8 C 21.29 18.73 21.33 18.68 21.24 18.63 C 21.18 18.59 21.09 18.54 20.95 18.54 Z M 18.33 20.26 C 18.32 20.26 18.31 20.26 18.29 20.26 C 18.21 20.29 18.11 20.3 18.06 20.29 C 18.01 20.28 17.99 20.38 17.92 20.38 C 17.85 20.38 17.93 20.28 17.81 20.3 C 17.76 20.3 17.69 20.38 17.7 20.44 C 17.73 20.64 17.82 20.6 17.93 20.66 C 18.09 20.74 18.13 20.71 18.2 20.63 C 18.27 20.56 18.56 20.49 18.45 20.36 C 18.44 20.34 18.41 20.25 18.33 20.26 Z M 17.99 21.81 C 17.91 21.82 17.98 21.86 17.9 21.88 C 17.85 21.9 17.9 21.95 17.88 21.99 C 17.86 22.06 17.8 22.07 17.81 22.17 C 17.82 22.27 17.92 22.26 17.97 22.22 C 18.02 22.19 18.09 22.14 18.1 22.07 C 18.11 22 18.02 21.97 18.07 21.92 C 18.12 21.87 18.08 21.81 17.99 21.81 Z M 21.46 22.76 C 21.47 22.76 21.48 22.76 21.5 22.76 C 21.6 22.78 21.48 22.92 21.44 22.95 C 21.36 23 21.37 23.02 21.4 23.04 C 21.48 23.1 21.51 23.17 21.58 23.23 C 21.62 23.27 21.78 23.3 21.72 23.4 C 21.69 23.46 21.61 23.5 21.5 23.49 C 21.39 23.48 21.32 23.4 21.16 23.39 C 21.03 23.38 20.95 23.46 20.84 23.46 C 20.66 23.44 20.68 23.31 20.71 23.19 C 20.75 23.07 20.83 22.89 20.93 22.88 C 21.05 22.87 21.04 22.98 21.06 23.03 C 21.08 23.09 21.12 23.12 21.17 23.1 C 21.25 23.07 21.3 23.02 21.22 22.98 C 21.15 22.94 21.19 22.86 21.25 22.85 C 21.34 22.83 21.37 22.76 21.46 22.76 Z M 15.26 23.07 C 15.22 23.07 15.19 23.15 15.16 23.19 C 15.11 23.27 14.96 23.29 14.98 23.37 C 15 23.42 15.02 23.42 15.12 23.43 C 15.21 23.43 15.26 23.48 15.29 23.51 C 15.38 23.56 15.38 23.62 15.45 23.57 C 15.49 23.54 15.47 23.45 15.41 23.38 C 15.34 23.27 15.4 23.27 15.35 23.22 C 15.27 23.15 15.34 23.14 15.29 23.08 C 15.28 23.07 15.27 23.07 15.26 23.07 Z M 21.16 24.8 C 21.22 24.8 21.29 24.88 21.36 25.05 C 21.46 25.28 21.57 25.3 21.54 25.44 C 21.49 25.67 21.63 25.66 21.7 25.75 C 21.76 25.82 21.74 25.92 21.81 26 C 21.84 26.04 21.94 26.26 21.84 26.34 C 21.76 26.39 21.71 26.21 21.65 26.16 C 21.46 26.01 21.59 25.93 21.47 25.81 C 21.42 25.77 21.38 25.73 21.41 25.68 C 21.44 25.63 21.41 25.47 21.33 25.41 C 21.25 25.34 21.31 25.33 21.27 25.23 C 21.24 25.16 21.19 25.14 21.17 25.03 C 21.15 24.94 21.12 24.93 21.11 24.88 C 21.1 24.84 21.12 24.82 21.14 24.81 C 21.14 24.81 21.15 24.8 21.16 24.8 Z M 12.55 25.51 C 12.53 25.5 12.5 25.52 12.49 25.55 C 12.43 25.69 12.75 25.68 12.8 25.83 C 12.84 25.93 12.89 26.03 13 25.98 C 13.08 25.94 13.04 25.88 12.92 25.79 C 12.87 25.75 12.86 25.68 12.78 25.66 C 12.75 25.65 12.79 25.61 12.73 25.59 C 12.66 25.55 12.6 25.51 12.55 25.51 Z M 22.19 28.9 C 22.17 28.9 22.15 28.93 22.14 28.99 C 22.13 29.03 22.1 29.02 22.06 29.07 C 22.04 29.1 22.03 29.14 22 29.16 C 21.97 29.2 21.91 29.22 21.88 29.24 C 21.76 29.29 21.73 29.43 21.78 29.52 C 21.82 29.6 21.76 29.62 21.7 29.76 C 21.63 29.94 21.7 30.14 21.83 30.16 C 21.97 30.19 22.08 29.75 22.11 29.6 C 22.12 29.49 22.15 29.53 22.18 29.37 C 22.2 29.26 22.27 29.19 22.28 29.1 C 22.28 28.97 22.23 28.9 22.19 28.9 Z" fill="#3c708a" stroke="none" pointer-events="all"/></g></g></svg>