<?xml version="1.0" encoding="UTF-8"?>
<!-- Do not edit this file with editors other than draw.io -->
<!DOCTYPE svg PUBLIC "-//W3C//DTD SVG 1.1//EN" "http://www.w3.org/Graphics/SVG/1.1/DTD/svg11.dtd">
<svg xmlns="http://www.w3.org/2000/svg" xmlns:xlink="http://www.w3.org/1999/xlink" version="1.1" width="59px" height="46px" viewBox="-0.5 -0.5 59 46" content="&lt;mxfile host=&quot;Electron&quot; modified=&quot;2024-05-26T22:00:35.904Z&quot; agent=&quot;Mozilla/5.0 (Windows NT 10.0; Win64; x64) AppleWebKit/537.36 (KHTML, like Gecko) draw.io/24.4.8 Chrome/124.0.6367.207 Electron/30.0.6 Safari/537.36&quot; version=&quot;24.4.8&quot; etag=&quot;x7vXcoZskmatQbrs-KuN&quot; type=&quot;device&quot; scale=&quot;1&quot; border=&quot;0&quot;&gt;&#10;  &lt;diagram name=&quot;Page-1&quot; id=&quot;c7yMot909bi0gg0Dk-eJ&quot;&gt;&#10;    &lt;mxGraphModel dx=&quot;1038&quot; dy=&quot;704&quot; grid=&quot;1&quot; gridSize=&quot;10&quot; guides=&quot;1&quot; tooltips=&quot;1&quot; connect=&quot;1&quot; arrows=&quot;1&quot; fold=&quot;1&quot; page=&quot;1&quot; pageScale=&quot;1&quot; pageWidth=&quot;827&quot; pageHeight=&quot;1169&quot; math=&quot;0&quot; shadow=&quot;0&quot;&gt;&#10;      &lt;root&gt;&#10;        &lt;mxCell id=&quot;0&quot; /&gt;&#10;        &lt;mxCell id=&quot;1&quot; parent=&quot;0&quot; /&gt;&#10;        &lt;mxCell id=&quot;2&quot; value=&quot;&quot; style=&quot;sketch=0;points=[[0.015,0.015,0],[0.985,0.015,0],[0.985,0.985,0],[0.015,0.985,0],[0.25,0,0],[0.5,0,0],[0.75,0,0],[1,0.25,0],[1,0.5,0],[1,0.75,0],[0.75,1,0],[0.5,1,0],[0.25,1,0],[0,0.75,0],[0,0.5,0],[0,0.25,0]];verticalLabelPosition=bottom;html=1;verticalAlign=top;aspect=fixed;align=center;pointerEvents=1;shape=mxgraph.cisco19.rect;prIcon=communications_manager;fillColor=#FAFAFA;strokeColor=#3C708A;&quot; vertex=&quot;1&quot; parent=&quot;1&quot;&gt;&#10;          &lt;mxGeometry x=&quot;700&quot; y=&quot;100&quot; width=&quot;57.6&quot; height=&quot;45&quot; as=&quot;geometry&quot; /&gt;&#10;        &lt;/mxCell&gt;&#10;      &lt;/root&gt;&#10;    &lt;/mxGraphModel&gt;&#10;  &lt;/diagram&gt;&#10;&lt;/mxfile&gt;&#10;"><defs/><g><g><rect x="0" y="0" width="57.6" height="45" fill="none" stroke="none" pointer-events="all"/><path d="M 2.72 0 C 1.22 0 0 1.24 0 2.75 L 0 42.25 C 0 43.76 1.22 45 2.72 45 L 54.88 45 C 56.37 45 57.6 43.76 57.6 42.25 L 57.6 2.75 C 57.6 1.24 56.37 0 54.88 0 Z" fill="#fafafa" stroke="none" pointer-events="all"/><rect x="0" y="0" width="57.6" height="45" fill="none" stroke="none" pointer-events="all"/><path d="M 2.72 1.24 L 54.88 1.24 C 55.72 1.24 56.37 1.9 56.37 2.75 L 56.37 42.25 C 56.37 43.1 55.72 43.76 54.88 43.76 L 2.72 43.76 C 1.88 43.76 1.23 43.1 1.23 42.25 L 1.23 2.75 C 1.23 1.9 1.88 1.24 2.72 1.24 Z M 2.72 0 C 1.22 0 0 1.24 0 2.75 L 0 42.25 C 0 43.76 1.22 45 2.72 45 L 54.88 45 C 56.37 45 57.6 43.76 57.6 42.25 L 57.6 2.75 C 57.6 1.24 56.37 0 54.88 0 Z M 46.51 30.73 L 41 34.69 L 46.51 38.64 L 46.51 35.95 L 52.83 35.95 L 52.83 33.42 L 46.51 33.42 Z M 47.22 21.68 L 47.22 24.37 L 40.9 24.37 L 40.9 26.9 L 47.22 26.9 L 47.22 29.6 L 52.73 25.64 Z M 10.99 30.83 L 10.99 33.52 L 4.67 33.52 L 4.67 36.05 L 10.99 36.05 L 10.99 38.75 L 16.5 34.79 Z M 10.32 21.75 L 4.82 25.71 L 10.32 29.67 L 10.32 26.98 L 16.64 26.98 L 16.64 24.45 L 10.32 24.45 Z M 21.46 14.81 C 20.56 14.81 19.82 15.56 19.82 16.46 L 19.82 38.51 C 19.82 39.42 20.56 40.16 21.46 40.16 L 37.08 40.16 C 37.98 40.16 38.72 39.42 38.72 38.51 L 38.72 16.46 C 38.72 15.56 37.98 14.81 37.08 14.81 Z M 16.57 17.32 C 18.04 17.32 19.23 16.11 19.23 14.62 L 19.23 13.6 L 9.04 13.57 L 9.04 14.62 C 9.04 16.11 10.23 17.32 11.7 17.32 Z M 49.62 13.06 L 49.62 8.13 C 49.62 6.65 48.42 5.44 46.95 5.44 L 11.7 5.44 C 10.23 5.44 9.04 6.65 9.04 8.13 L 9.04 13.05 Z M 46.95 17.32 C 48.42 17.32 49.62 16.11 49.62 14.62 L 49.62 13.59 L 39.23 13.55 L 39.23 14.62 C 39.23 16.11 40.43 17.32 41.9 17.32 Z" fill="#3c708a" stroke="none" pointer-events="all"/><path d="M 11.7 16.61 C 10.61 16.61 9.74 15.73 9.74 14.62 L 9.74 14.26 L 18.54 14.27 L 18.54 14.62 C 18.54 15.73 17.66 16.61 16.57 16.61 Z M 9.74 12.37 L 9.74 8.13 C 9.74 7.02 10.61 6.14 11.7 6.14 L 46.95 6.14 C 48.05 6.14 48.92 7.02 48.92 8.13 L 48.92 12.38 Z M 41.9 16.61 C 40.8 16.61 39.93 15.73 39.93 14.62 L 39.93 14.39 L 48.92 14.37 L 48.92 14.62 C 48.92 15.73 48.05 16.61 46.95 16.61 Z M 21.71 16.9 L 21.71 23.3 L 36.94 23.3 L 36.94 16.9 Z M 21.71 24.9 L 21.71 37.98 L 36.91 37.98 L 36.91 24.9 Z M 21.46 15.52 L 37.08 15.52 C 37.61 15.52 38.02 15.93 38.02 16.46 L 38.02 38.51 C 38.02 39.04 37.61 39.46 37.08 39.46 L 21.46 39.46 C 20.93 39.46 20.52 39.04 20.52 38.51 L 20.52 16.46 C 20.52 15.93 20.93 15.52 21.46 15.52 Z" fill="#ffffff" stroke="none" pointer-events="all"/></g></g></svg>