<?xml version="1.0" encoding="UTF-8"?>
<!-- Do not edit this file with editors other than draw.io -->
<!DOCTYPE svg PUBLIC "-//W3C//DTD SVG 1.1//EN" "http://www.w3.org/Graphics/SVG/1.1/DTD/svg11.dtd">
<svg xmlns="http://www.w3.org/2000/svg" xmlns:xlink="http://www.w3.org/1999/xlink" version="1.1" width="30px" height="30px" viewBox="-0.5 -0.5 30 30" content="&lt;mxfile host=&quot;Electron&quot; modified=&quot;2024-05-27T22:31:09.529Z&quot; agent=&quot;Mozilla/5.0 (Windows NT 10.0; Win64; x64) AppleWebKit/537.36 (KHTML, like Gecko) draw.io/24.4.8 Chrome/124.0.6367.207 Electron/30.0.6 Safari/537.36&quot; version=&quot;24.4.8&quot; etag=&quot;W_PqE5iVvH6m6XX8kPAq&quot; type=&quot;device&quot; scale=&quot;1&quot; border=&quot;0&quot;&gt;&#10;  &lt;diagram name=&quot;Page-1&quot; id=&quot;peY9E-CPUcQ9gfV-gQWJ&quot;&gt;&#10;    &lt;mxGraphModel dx=&quot;519&quot; dy=&quot;352&quot; grid=&quot;1&quot; gridSize=&quot;10&quot; guides=&quot;1&quot; tooltips=&quot;1&quot; connect=&quot;1&quot; arrows=&quot;1&quot; fold=&quot;1&quot; page=&quot;1&quot; pageScale=&quot;1&quot; pageWidth=&quot;827&quot; pageHeight=&quot;1169&quot; math=&quot;0&quot; shadow=&quot;0&quot;&gt;&#10;      &lt;root&gt;&#10;        &lt;mxCell id=&quot;0&quot; /&gt;&#10;        &lt;mxCell id=&quot;1&quot; parent=&quot;0&quot; /&gt;&#10;        &lt;mxCell id=&quot;2&quot; value=&quot;&quot; style=&quot;points=[[0.03,0.36,0],[0.18,0,0],[0.5,0.34,0],[0.82,0,0],[0.97,0.36,0],[1,0.67,0],[0.975,0.975,0],[0.5,1,0],[0.025,0.975,0],[0,0.67,0]];verticalLabelPosition=bottom;sketch=0;html=1;verticalAlign=top;aspect=fixed;align=center;pointerEvents=1;shape=mxgraph.cisco19.wireless_access_point;fillColor=#3C708A;strokeColor=none;&quot; vertex=&quot;1&quot; parent=&quot;1&quot;&gt;&#10;          &lt;mxGeometry x=&quot;452&quot; y=&quot;86&quot; width=&quot;30&quot; height=&quot;30&quot; as=&quot;geometry&quot; /&gt;&#10;        &lt;/mxCell&gt;&#10;      &lt;/root&gt;&#10;    &lt;/mxGraphModel&gt;&#10;  &lt;/diagram&gt;&#10;&lt;/mxfile&gt;&#10;"><defs/><g><g><rect x="0" y="0" width="30" height="30" fill="none" stroke="none" pointer-events="all"/><path d="M 4.67 0 L 4.67 1.95 L 4.95 1.95 L 4.95 4.81 L 4.87 4.81 C 4.46 4.81 4.12 5.15 4.12 5.57 L 4.12 10.21 L 2.53 10.21 C 1.14 10.21 0 11.37 0 12.8 L 0 27.4 C 0 28.84 1.14 30 2.53 30 L 27.47 30 C 28.86 30 30 28.84 30 27.4 L 30 12.8 C 30 11.37 28.86 10.21 27.47 10.21 L 25.75 10.21 L 25.75 5.57 C 25.75 5.15 25.42 4.81 25.01 4.81 L 24.93 4.81 L 24.93 1.95 L 25.21 1.95 L 25.21 0 L 23.81 0 L 23.81 1.95 L 24.09 1.95 L 24.09 4.81 L 24.01 4.81 C 23.6 4.81 23.27 5.15 23.27 5.57 L 23.27 10.21 L 6.61 10.21 L 6.61 5.57 C 6.61 5.15 6.28 4.81 5.87 4.81 L 5.78 4.81 L 5.78 1.95 L 6.06 1.95 L 6.06 0 Z M 2.53 10.99 L 27.47 10.99 C 28.45 10.99 29.23 11.79 29.23 12.8 L 29.23 27.4 C 29.23 28.41 28.45 29.21 27.47 29.21 L 2.53 29.21 C 1.55 29.21 0.77 28.41 0.77 27.4 L 0.77 12.8 C 0.77 11.79 1.55 10.99 2.53 10.99 Z M 7.2 20.39 C 6.65 20.39 6.21 20.72 5.9 21.08 C 5.75 21.27 5.62 21.47 5.5 21.66 C 5.42 21.53 5.33 21.4 5.24 21.28 C 4.96 20.93 4.59 20.64 4.11 20.64 C 3.62 20.64 3.19 20.94 2.87 21.3 C 2.56 21.65 2.34 22.05 2.32 22.45 L 2.07 22.45 C 2.07 22.97 2.34 23.41 2.69 23.8 C 3.04 24.2 3.52 24.55 4.11 24.55 C 4.68 24.55 5.13 24.2 5.43 23.82 C 5.57 23.65 5.69 23.46 5.79 23.27 C 5.88 23.42 5.98 23.56 6.09 23.69 C 6.37 24.02 6.74 24.3 7.2 24.3 C 7.67 24.3 8.03 24.01 8.3 23.67 C 8.42 23.52 8.53 23.36 8.62 23.2 C 8.76 23.4 8.91 23.62 9.08 23.81 C 9.39 24.18 9.74 24.55 10.29 24.55 C 10.78 24.55 11.16 24.25 11.46 23.91 C 11.64 23.71 11.8 23.47 11.96 23.22 C 12.07 23.42 12.19 23.6 12.33 23.76 C 12.59 24.07 12.94 24.3 13.38 24.3 C 13.84 24.3 14.19 24.01 14.46 23.68 C 14.58 23.53 14.69 23.37 14.79 23.2 C 14.91 23.4 15.04 23.61 15.19 23.81 C 15.48 24.18 15.9 24.55 16.47 24.55 C 17.02 24.55 17.45 24.21 17.73 23.85 C 17.89 23.65 18.02 23.44 18.15 23.22 C 18.25 23.4 18.35 23.56 18.47 23.72 C 18.73 24.04 19.09 24.3 19.56 24.3 C 20.03 24.3 20.39 24.03 20.65 23.71 C 20.77 23.55 20.88 23.38 20.98 23.21 C 21.1 23.42 21.23 23.64 21.39 23.84 C 21.67 24.2 22.1 24.55 22.65 24.55 C 23.2 24.55 23.64 24.21 23.93 23.85 C 24.08 23.65 24.21 23.45 24.33 23.24 C 24.41 23.39 24.5 23.53 24.6 23.67 C 24.84 24.01 25.22 24.3 25.74 24.3 C 26.29 24.3 26.74 23.96 27.04 23.58 C 27.34 23.2 27.53 22.8 27.53 22.45 L 27.78 22.45 C 27.78 21.39 26.94 20.39 25.74 20.39 C 25.14 20.39 24.66 20.71 24.38 21.08 C 24.23 21.28 24.12 21.5 24.01 21.7 C 23.93 21.56 23.84 21.42 23.73 21.29 C 23.47 20.94 23.12 20.64 22.65 20.64 C 22.19 20.64 21.84 20.92 21.58 21.26 C 21.47 21.4 21.36 21.56 21.27 21.73 C 21.14 21.51 21.01 21.28 20.84 21.07 C 20.56 20.72 20.12 20.39 19.56 20.39 C 19.01 20.39 18.57 20.71 18.28 21.06 C 18.12 21.27 17.98 21.5 17.86 21.72 C 17.76 21.55 17.66 21.39 17.54 21.25 C 17.28 20.91 16.93 20.64 16.47 20.64 C 16 20.64 15.65 20.94 15.39 21.28 C 15.28 21.43 15.18 21.58 15.08 21.74 C 14.96 21.53 14.81 21.3 14.65 21.09 C 14.36 20.74 13.94 20.39 13.38 20.39 C 12.87 20.39 12.43 20.67 12.14 21.01 C 11.96 21.23 11.81 21.47 11.67 21.72 C 11.54 21.53 11.41 21.35 11.28 21.2 C 11 20.88 10.67 20.64 10.29 20.64 C 9.88 20.64 9.55 20.95 9.27 21.29 C 9.14 21.43 9.03 21.59 8.92 21.75 C 8.8 21.54 8.66 21.32 8.49 21.11 C 8.19 20.75 7.77 20.39 7.2 20.39 Z M 4.11 21.15 C 4.4 21.15 4.63 21.31 4.86 21.59 C 4.99 21.77 5.12 21.98 5.23 22.19 C 5.22 22.2 5.22 22.21 5.21 22.22 C 5.05 22.56 4.86 22.93 4.66 23.18 C 4.46 23.44 4.3 23.54 4.11 23.54 C 3.94 23.54 3.64 23.38 3.41 23.12 C 3.18 22.87 3.06 22.51 3.06 22.45 L 2.81 22.45 C 2.84 22.25 2.99 21.91 3.23 21.64 C 3.49 21.35 3.83 21.15 4.11 21.15 Z M 10.29 21.15 C 10.46 21.15 10.68 21.27 10.91 21.54 C 11.07 21.72 11.24 21.96 11.4 22.22 C 11.18 22.63 10.94 22.99 10.73 23.23 C 10.52 23.47 10.35 23.54 10.29 23.54 C 10.29 23.54 10.06 23.43 9.82 23.15 C 9.6 22.89 9.37 22.53 9.2 22.23 C 9.33 22.02 9.48 21.8 9.64 21.62 C 9.89 21.32 10.16 21.15 10.29 21.15 Z M 16.47 21.15 C 16.75 21.15 16.94 21.29 17.16 21.57 C 17.3 21.74 17.44 21.97 17.58 22.22 C 17.35 22.61 17.16 22.98 16.97 23.22 C 16.78 23.46 16.65 23.54 16.47 23.54 C 16.31 23.54 16.17 23.45 15.97 23.19 C 15.78 22.94 15.58 22.58 15.37 22.23 C 15.5 22 15.64 21.78 15.77 21.6 C 16 21.31 16.21 21.15 16.47 21.15 Z M 22.65 21.15 C 22.92 21.15 23.13 21.31 23.35 21.6 C 23.49 21.78 23.62 22 23.75 22.23 C 23.55 22.6 23.36 22.97 23.17 23.21 C 22.97 23.45 22.83 23.54 22.65 23.54 C 22.47 23.54 22.35 23.46 22.16 23.21 C 21.97 22.97 21.78 22.6 21.55 22.22 C 21.69 21.98 21.82 21.75 21.96 21.57 C 22.18 21.29 22.38 21.15 22.65 21.15 Z M 7.2 21.4 C 7.37 21.4 7.53 21.5 7.73 21.75 C 7.93 22 8.13 22.37 8.32 22.7 C 8.33 22.71 8.33 22.71 8.33 22.72 C 8.2 22.94 8.07 23.16 7.92 23.35 C 7.69 23.63 7.47 23.79 7.2 23.79 C 6.93 23.79 6.69 23.63 6.46 23.36 C 6.32 23.19 6.18 22.97 6.06 22.74 C 6.07 22.72 6.09 22.69 6.1 22.67 C 6.26 22.34 6.45 21.98 6.65 21.74 C 6.85 21.5 7.02 21.4 7.2 21.4 Z M 13.38 21.4 C 13.55 21.4 13.69 21.49 13.89 21.74 C 14.09 21.98 14.29 22.35 14.51 22.71 C 14.37 22.95 14.23 23.18 14.08 23.36 C 13.86 23.64 13.64 23.79 13.38 23.79 C 13.1 23.79 12.91 23.67 12.7 23.43 C 12.55 23.25 12.4 23.01 12.25 22.73 C 12.25 22.72 12.26 22.7 12.27 22.69 C 12.5 22.26 12.7 21.89 12.88 21.68 C 13.07 21.46 13.17 21.4 13.38 21.4 Z M 19.56 21.4 C 19.78 21.4 19.89 21.48 20.08 21.71 C 20.26 21.94 20.45 22.32 20.69 22.71 C 20.69 22.71 20.69 22.71 20.69 22.72 C 20.55 22.97 20.41 23.21 20.27 23.39 C 20.06 23.65 19.87 23.79 19.56 23.79 C 19.25 23.79 19.06 23.66 18.85 23.4 C 18.71 23.22 18.58 22.98 18.43 22.72 C 18.43 22.71 18.44 22.71 18.44 22.7 C 18.67 22.3 18.86 21.93 19.05 21.7 C 19.23 21.47 19.33 21.4 19.56 21.4 Z M 25.74 21.4 C 26.4 21.4 26.8 21.94 26.8 22.45 L 27.04 22.45 C 27.04 22.55 26.91 22.95 26.66 23.26 C 26.41 23.56 26.09 23.79 25.74 23.79 C 25.37 23.79 25.19 23.64 24.99 23.37 C 24.86 23.19 24.74 22.96 24.61 22.72 C 24.62 22.71 24.62 22.7 24.63 22.69 C 24.85 22.28 25 21.91 25.16 21.7 C 25.32 21.48 25.42 21.4 25.74 21.4 Z" fill="#3c708a" stroke="none" pointer-events="all"/></g></g></svg>