<?xml version="1.0" encoding="UTF-8"?>
<!-- Do not edit this file with editors other than draw.io -->
<!DOCTYPE svg PUBLIC "-//W3C//DTD SVG 1.1//EN" "http://www.w3.org/Graphics/SVG/1.1/DTD/svg11.dtd">
<svg xmlns="http://www.w3.org/2000/svg" xmlns:xlink="http://www.w3.org/1999/xlink" version="1.1" width="59px" height="46px" viewBox="-0.5 -0.5 59 46" content="&lt;mxfile host=&quot;Electron&quot; modified=&quot;2024-05-27T08:00:12.836Z&quot; agent=&quot;Mozilla/5.0 (Windows NT 10.0; Win64; x64) AppleWebKit/537.36 (KHTML, like Gecko) draw.io/24.4.8 Chrome/124.0.6367.207 Electron/30.0.6 Safari/537.36&quot; version=&quot;24.4.8&quot; etag=&quot;SJgcU8-0_Vh321JHl0hu&quot; type=&quot;device&quot; scale=&quot;1&quot; border=&quot;0&quot;&gt;&#10;  &lt;diagram name=&quot;Page-1&quot; id=&quot;GAfAnhPYRNYsP4iegwrB&quot;&gt;&#10;    &lt;mxGraphModel dx=&quot;519&quot; dy=&quot;352&quot; grid=&quot;1&quot; gridSize=&quot;10&quot; guides=&quot;1&quot; tooltips=&quot;1&quot; connect=&quot;1&quot; arrows=&quot;1&quot; fold=&quot;1&quot; page=&quot;1&quot; pageScale=&quot;1&quot; pageWidth=&quot;827&quot; pageHeight=&quot;1169&quot; math=&quot;0&quot; shadow=&quot;0&quot;&gt;&#10;      &lt;root&gt;&#10;        &lt;mxCell id=&quot;0&quot; /&gt;&#10;        &lt;mxCell id=&quot;1&quot; parent=&quot;0&quot; /&gt;&#10;        &lt;mxCell id=&quot;2&quot; value=&quot;&quot; style=&quot;sketch=0;points=[[0.015,0.015,0],[0.985,0.015,0],[0.985,0.985,0],[0.015,0.985,0],[0.25,0,0],[0.5,0,0],[0.75,0,0],[1,0.25,0],[1,0.5,0],[1,0.75,0],[0.75,1,0],[0.5,1,0],[0.25,1,0],[0,0.75,0],[0,0.5,0],[0,0.25,0]];verticalLabelPosition=bottom;html=1;verticalAlign=top;aspect=fixed;align=center;pointerEvents=1;shape=mxgraph.cisco19.rect;prIcon=cisco_security_manager;fillColor=#FAFAFA;strokeColor=#3C708A;&quot; vertex=&quot;1&quot; parent=&quot;1&quot;&gt;&#10;          &lt;mxGeometry x=&quot;467&quot; y=&quot;370&quot; width=&quot;57.6&quot; height=&quot;45&quot; as=&quot;geometry&quot; /&gt;&#10;        &lt;/mxCell&gt;&#10;      &lt;/root&gt;&#10;    &lt;/mxGraphModel&gt;&#10;  &lt;/diagram&gt;&#10;&lt;/mxfile&gt;&#10;"><defs/><g><g><rect x="0" y="0" width="57.6" height="45" fill="none" stroke="none" pointer-events="all"/><path d="M 2.72 0 C 1.22 0 0 1.24 0 2.75 L 0 42.25 C 0 43.76 1.22 45 2.72 45 L 54.88 45 C 56.37 45 57.6 43.76 57.6 42.25 L 57.6 2.75 C 57.6 1.24 56.37 0 54.88 0 Z" fill="#fafafa" stroke="none" pointer-events="all"/><rect x="0" y="0" width="57.6" height="45" fill="none" stroke="none" pointer-events="all"/><path d="M 2.72 1.24 L 54.88 1.24 C 55.72 1.24 56.37 1.9 56.37 2.75 L 56.37 42.25 C 56.37 43.1 55.72 43.76 54.88 43.76 L 2.72 43.76 C 1.88 43.76 1.23 43.1 1.23 42.25 L 1.23 2.75 C 1.23 1.9 1.88 1.24 2.72 1.24 Z M 2.72 0 C 1.22 0 0 1.24 0 2.75 L 0 42.25 C 0 43.76 1.22 45 2.72 45 L 54.88 45 C 56.38 45 57.6 43.76 57.6 42.25 L 57.6 2.75 C 57.6 1.24 56.38 0 54.88 0 Z M 19.89 36.16 L 37.88 36.17 L 37.88 38.63 C 37.88 39.17 37.46 39.58 36.94 39.58 L 20.83 39.58 C 20.3 39.58 19.89 39.17 19.89 38.63 Z M 19.19 35.35 L 19.19 38.63 C 19.19 39.54 19.93 40.29 20.83 40.29 L 36.94 40.29 C 37.84 40.29 38.57 39.54 38.57 38.63 L 38.57 35.36 Z M 37.88 30.66 L 37.88 33.79 L 19.89 33.75 L 19.89 30.67 Z M 19.19 29.7 L 19.19 34.59 L 38.57 34.59 L 38.57 29.7 Z M 28.45 18.06 L 28.45 19.56 C 28.45 20.03 29.15 20.03 29.15 19.56 L 29.15 18.06 C 29.79 18.21 30.26 18.79 30.26 19.49 C 30.26 20.31 29.61 20.96 28.8 20.96 C 27.99 20.96 27.34 20.31 27.34 19.49 C 27.34 18.79 27.81 18.21 28.45 18.06 Z M 24.06 16.05 L 37.88 16.05 L 37.88 28.26 L 19.89 28.25 L 19.89 24.43 L 25.85 24.43 C 27.24 24.43 28.43 23.25 28.41 21.6 L 28.4 21.51 C 28.53 21.54 28.66 21.55 28.8 21.55 C 29.92 21.55 30.84 20.62 30.84 19.49 C 30.84 18.35 29.92 17.43 28.8 17.43 C 27.68 17.43 26.76 18.35 26.76 19.49 C 26.76 20.32 27.26 21.04 27.97 21.37 L 24.06 21.37 Z M 20.83 6.06 L 20.83 6.06 L 36.94 6.06 C 37.46 6.06 37.88 6.48 37.88 7.01 L 37.88 13.22 L 24.06 13.21 L 24.06 11.93 C 24.06 10.28 22.91 9.02 21.28 9.02 L 19.89 9.02 L 19.89 7.01 C 19.89 6.48 20.3 6.06 20.83 6.06 Z M 20.83 5.36 C 19.93 5.36 19.19 6.1 19.19 7.01 L 19.19 9.02 L 10.53 9.02 C 9.5 9.02 8.79 9.42 8.36 9.97 C 7.94 10.51 7.79 11.18 7.79 11.74 L 7.79 11.98 L 12.17 11.98 L 12.17 21.76 C 12.17 22.63 12.54 23.3 13.02 23.75 C 13.5 24.2 14.08 24.43 14.58 24.43 L 19.19 24.43 L 19.19 29.05 L 38.57 29.06 L 38.57 15.12 L 24.06 15.12 L 24.06 14.01 L 38.57 14.02 L 38.57 7.01 C 38.57 6.1 37.84 5.36 36.94 5.36 Z" fill="#3c708a" stroke="none" pointer-events="all"/><path d="M 17 21.84 L 27.9 21.84 C 27.82 23.12 26.92 23.97 25.85 23.97 L 15.83 23.97 C 16.45 23.54 16.94 22.84 17 21.84 Z M 14.54 19.13 L 14.54 19.64 L 22.31 19.64 L 22.31 19.13 Z M 14.54 15.81 L 14.54 16.32 L 22.31 16.32 L 22.31 15.81 Z M 14.54 12.39 L 14.54 12.9 L 22.31 12.9 L 22.31 12.39 Z M 11.5 9.49 L 21.28 9.49 C 22.68 9.49 23.6 10.49 23.6 11.93 L 23.6 21.37 L 16.56 21.37 L 16.56 21.6 C 16.56 23.17 15.42 23.97 14.58 23.97 C 14.23 23.97 13.73 23.78 13.33 23.41 C 12.94 23.04 12.64 22.49 12.64 21.76 L 12.64 11.74 C 12.64 11.07 12.33 10.41 11.93 9.9 C 11.8 9.74 11.65 9.62 11.5 9.49 Z M 10.53 9.49 C 10.77 9.49 11.22 9.76 11.57 10.2 C 11.87 10.57 12.06 11.05 12.12 11.51 L 8.29 11.51 C 8.32 11.09 8.44 10.63 8.73 10.26 C 9.07 9.82 9.61 9.49 10.53 9.49 Z" fill="#ffffff" stroke="none" pointer-events="all"/></g></g></svg>