<?xml version="1.0" encoding="UTF-8"?>
<!-- Do not edit this file with editors other than draw.io -->
<!DOCTYPE svg PUBLIC "-//W3C//DTD SVG 1.1//EN" "http://www.w3.org/Graphics/SVG/1.1/DTD/svg11.dtd">
<svg xmlns="http://www.w3.org/2000/svg" xmlns:xlink="http://www.w3.org/1999/xlink" version="1.1" width="59px" height="46px" viewBox="-0.5 -0.5 59 46" content="&lt;mxfile host=&quot;Electron&quot; modified=&quot;2024-05-26T22:00:09.397Z&quot; agent=&quot;Mozilla/5.0 (Windows NT 10.0; Win64; x64) AppleWebKit/537.36 (KHTML, like Gecko) draw.io/24.4.8 Chrome/124.0.6367.207 Electron/30.0.6 Safari/537.36&quot; version=&quot;24.4.8&quot; etag=&quot;bs1CVN3OXUOt0OytDrh2&quot; type=&quot;device&quot; scale=&quot;1&quot; border=&quot;0&quot;&gt;&#10;  &lt;diagram name=&quot;Page-1&quot; id=&quot;XIUCWZcY-VejDPSdCYZv&quot;&gt;&#10;    &lt;mxGraphModel dx=&quot;1038&quot; dy=&quot;704&quot; grid=&quot;1&quot; gridSize=&quot;10&quot; guides=&quot;1&quot; tooltips=&quot;1&quot; connect=&quot;1&quot; arrows=&quot;1&quot; fold=&quot;1&quot; page=&quot;1&quot; pageScale=&quot;1&quot; pageWidth=&quot;827&quot; pageHeight=&quot;1169&quot; math=&quot;0&quot; shadow=&quot;0&quot;&gt;&#10;      &lt;root&gt;&#10;        &lt;mxCell id=&quot;0&quot; /&gt;&#10;        &lt;mxCell id=&quot;1&quot; parent=&quot;0&quot; /&gt;&#10;        &lt;mxCell id=&quot;2&quot; value=&quot;&quot; style=&quot;sketch=0;points=[[0.015,0.015,0],[0.985,0.015,0],[0.985,0.985,0],[0.015,0.985,0],[0.25,0,0],[0.5,0,0],[0.75,0,0],[1,0.25,0],[1,0.5,0],[1,0.75,0],[0.75,1,0],[0.5,1,0],[0.25,1,0],[0,0.75,0],[0,0.5,0],[0,0.25,0]];verticalLabelPosition=bottom;html=1;verticalAlign=top;aspect=fixed;align=center;pointerEvents=1;shape=mxgraph.cisco19.rect;prIcon=web_security;fillColor=#FAFAFA;strokeColor=#3C708A;&quot; vertex=&quot;1&quot; parent=&quot;1&quot;&gt;&#10;          &lt;mxGeometry x=&quot;430.99999999999994&quot; y=&quot;170&quot; width=&quot;57.6&quot; height=&quot;45&quot; as=&quot;geometry&quot; /&gt;&#10;        &lt;/mxCell&gt;&#10;      &lt;/root&gt;&#10;    &lt;/mxGraphModel&gt;&#10;  &lt;/diagram&gt;&#10;&lt;/mxfile&gt;&#10;"><defs/><g><g><rect x="0" y="0" width="57.6" height="45" fill="none" stroke="none" pointer-events="all"/><path d="M 2.72 0 C 1.22 0 0 1.24 0 2.75 L 0 42.25 C 0 43.76 1.22 45 2.72 45 L 54.88 45 C 56.37 45 57.6 43.76 57.6 42.25 L 57.6 2.75 C 57.6 1.24 56.37 0 54.88 0 Z" fill="#fafafa" stroke="none" pointer-events="all"/><rect x="0" y="0" width="57.6" height="45" fill="none" stroke="none" pointer-events="all"/><path d="M 24.66 7.27 C 24.01 7.28 23.35 7.33 22.67 7.44 C 22.67 7.44 22.66 7.44 22.66 7.44 C 15.45 8.71 12.12 14.27 11.1 19.21 C 8.42 20.15 5.9 22.42 5.9 25.76 C 5.9 28.77 7.51 30.67 9.51 31.6 C 10.01 31.84 10.52 32.02 11.05 32.17 L 9.06 34.22 L 10.88 36.03 L 14.14 32.67 C 14.59 32.7 15.02 32.72 15.43 32.73 C 18.04 35.49 21.62 36.48 24.57 36.68 C 24.58 36.68 24.59 36.68 24.61 36.68 C 28.69 36.78 31.87 34.91 34.57 32.39 C 38.4 32.99 42.97 33.52 47.51 31.91 C 47.53 31.9 47.55 31.89 47.57 31.88 C 51.4 30.19 52.59 26.23 51.3 23.35 C 51.3 23.34 51.29 23.33 51.29 23.32 C 50.11 20.92 47.89 19.69 46.14 19.05 C 45.46 17.68 44.73 16.2 42.98 14.87 C 42.98 14.87 42.97 14.86 42.96 14.86 C 41.15 13.58 38.69 13.17 36.3 13.77 C 34.01 10.2 29.87 7.34 24.94 7.27 C 24.84 7.27 24.75 7.27 24.66 7.27 Z M 24.68 8.92 C 24.76 8.91 24.84 8.91 24.92 8.92 C 29.48 8.99 33.29 11.75 35.23 15.09 C 35.42 15.43 35.82 15.58 36.18 15.46 C 38.28 14.77 40.51 15.14 42.02 16.2 C 43.57 17.38 44.1 18.59 44.85 20.07 C 44.94 20.26 45.11 20.41 45.31 20.48 C 46.87 21 48.86 22.08 49.83 24.04 C 50.73 26.07 50.02 28.99 46.94 30.37 C 42.71 31.86 38.29 31.33 34.46 30.71 C 34.21 30.67 33.95 30.75 33.77 30.93 C 31.17 33.44 28.38 35.13 24.66 35.04 C 21.9 34.85 18.62 33.9 16.38 31.38 C 16.24 31.21 16.02 31.11 15.8 31.1 C 15.75 31.1 15.71 31.1 15.66 31.1 L 15.93 30.83 C 17.35 31.88 19.09 32.5 20.98 32.5 C 25.23 32.5 28.77 29.35 29.44 25.24 L 30.41 28.35 L 31.83 28.35 L 32.76 24.76 L 33.71 28.35 L 35.12 28.35 L 36.89 22.77 L 35.45 22.77 L 34.4 26.43 L 33.48 22.77 L 32.07 22.77 L 31.12 26.43 L 30.08 22.77 L 29.48 22.77 C 28.96 18.5 25.34 15.18 20.98 15.18 C 16.26 15.18 12.41 19.06 12.41 23.84 C 12.41 25.77 13.04 27.57 14.11 29.01 L 12.39 30.79 C 11.61 30.64 10.85 30.42 10.19 30.12 C 8.59 29.36 7.53 28.23 7.53 25.76 C 7.53 23.12 9.67 21.3 12.01 20.63 C 12.31 20.54 12.54 20.29 12.59 19.98 C 13.41 15.38 16.22 10.24 22.93 9.06 C 23.52 8.96 24.1 8.92 24.68 8.92 Z M 20.98 16.82 C 24.82 16.82 27.92 19.95 27.92 23.84 C 27.92 27.72 24.82 30.85 20.98 30.85 C 17.13 30.85 14.03 27.72 14.03 23.84 C 14.03 19.95 17.13 16.82 20.98 16.82 Z M 15.95 20.66 L 17.77 28.35 L 19.44 28.35 L 20.95 22.6 L 22.47 28.35 L 24.1 28.35 L 25.95 20.66 L 24.4 20.66 L 23.23 26.03 L 21.9 20.66 L 20.07 20.66 L 18.67 25.94 L 17.52 20.66 Z M 38.13 22.73 L 39.88 28.31 L 41.3 28.31 L 42.23 24.72 L 43.19 28.31 L 44.59 28.31 L 46.36 22.73 L 44.92 22.73 L 43.87 26.38 L 42.95 22.73 L 41.54 22.73 L 40.59 26.38 L 39.55 22.73 Z M 2.72 0 C 1.22 0 0 1.24 0 2.75 L 0 42.25 C 0 43.76 1.22 45 2.72 45 L 54.88 45 C 56.38 45 57.6 43.76 57.6 42.25 L 57.6 2.75 C 57.6 1.24 56.38 0 54.88 0 Z M 2.72 1.24 L 54.88 1.24 C 55.72 1.24 56.37 1.9 56.37 2.75 L 56.37 42.25 C 56.37 43.1 55.72 43.76 54.88 43.76 L 2.72 43.76 C 1.88 43.76 1.23 43.1 1.23 42.25 L 1.23 2.75 C 1.23 1.9 1.88 1.24 2.72 1.24 Z" fill="#3c708a" stroke="none" pointer-events="all"/></g></g></svg>