<?xml version="1.0" encoding="UTF-8"?>
<!-- Do not edit this file with editors other than draw.io -->
<!DOCTYPE svg PUBLIC "-//W3C//DTD SVG 1.1//EN" "http://www.w3.org/Graphics/SVG/1.1/DTD/svg11.dtd">
<svg xmlns="http://www.w3.org/2000/svg" xmlns:xlink="http://www.w3.org/1999/xlink" version="1.1" width="59px" height="46px" viewBox="-0.5 -0.5 59 46" content="&lt;mxfile host=&quot;Electron&quot; modified=&quot;2024-05-27T19:09:34.049Z&quot; agent=&quot;Mozilla/5.0 (Windows NT 10.0; Win64; x64) AppleWebKit/537.36 (KHTML, like Gecko) draw.io/24.4.8 Chrome/124.0.6367.207 Electron/30.0.6 Safari/537.36&quot; version=&quot;24.4.8&quot; etag=&quot;urug9uW-4BLglG5qwyUO&quot; type=&quot;device&quot; scale=&quot;1&quot; border=&quot;0&quot;&gt;&#10;  &lt;diagram name=&quot;Page-1&quot; id=&quot;7u7RqJ6WdSXMNsJhLXrI&quot;&gt;&#10;    &lt;mxGraphModel dx=&quot;519&quot; dy=&quot;352&quot; grid=&quot;1&quot; gridSize=&quot;10&quot; guides=&quot;1&quot; tooltips=&quot;1&quot; connect=&quot;1&quot; arrows=&quot;1&quot; fold=&quot;1&quot; page=&quot;1&quot; pageScale=&quot;1&quot; pageWidth=&quot;827&quot; pageHeight=&quot;1169&quot; math=&quot;0&quot; shadow=&quot;0&quot;&gt;&#10;      &lt;root&gt;&#10;        &lt;mxCell id=&quot;0&quot; /&gt;&#10;        &lt;mxCell id=&quot;1&quot; parent=&quot;0&quot; /&gt;&#10;        &lt;mxCell id=&quot;2&quot; value=&quot;&quot; style=&quot;sketch=0;points=[[0.015,0.015,0],[0.985,0.015,0],[0.985,0.985,0],[0.015,0.985,0],[0.25,0,0],[0.5,0,0],[0.75,0,0],[1,0.25,0],[1,0.5,0],[1,0.75,0],[0.75,1,0],[0.5,1,0],[0.25,1,0],[0,0.75,0],[0,0.5,0],[0,0.25,0]];verticalLabelPosition=bottom;html=1;verticalAlign=top;aspect=fixed;align=center;pointerEvents=1;shape=mxgraph.cisco19.rect;prIcon=flow_collector;fillColor=#FAFAFA;strokeColor=#3C708A;&quot; vertex=&quot;1&quot; parent=&quot;1&quot;&gt;&#10;          &lt;mxGeometry x=&quot;369&quot; y=&quot;741&quot; width=&quot;57.6&quot; height=&quot;45&quot; as=&quot;geometry&quot; /&gt;&#10;        &lt;/mxCell&gt;&#10;      &lt;/root&gt;&#10;    &lt;/mxGraphModel&gt;&#10;  &lt;/diagram&gt;&#10;&lt;/mxfile&gt;&#10;"><defs/><g><g><rect x="0" y="0" width="57.6" height="45" fill="none" stroke="none" pointer-events="all"/><path d="M 2.72 0 C 1.22 0 0 1.24 0 2.75 L 0 42.25 C 0 43.76 1.22 45 2.72 45 L 54.88 45 C 56.37 45 57.6 43.76 57.6 42.25 L 57.6 2.75 C 57.6 1.24 56.37 0 54.88 0 Z" fill="#fafafa" stroke="none" pointer-events="all"/><rect x="0" y="0" width="57.6" height="45" fill="none" stroke="none" pointer-events="all"/><path d="M 26.37 5.95 C 21.95 5.95 18.03 8.18 15.65 11.57 L 17.05 12.41 C 19.13 9.49 22.53 7.6 26.37 7.6 C 32.74 7.6 37.87 12.79 37.87 19.22 C 37.87 25.64 32.74 30.84 26.37 30.84 C 22.54 30.84 19.16 28.95 17.07 26.05 L 15.67 26.89 C 18.06 30.27 21.96 32.48 26.37 32.48 C 29.06 32.48 31.56 31.66 33.65 30.25 L 42.16 39.11 L 44.49 36.82 L 36.11 28.1 C 38.22 25.75 39.5 22.63 39.5 19.22 C 39.5 11.9 33.61 5.95 26.37 5.95 Z M 15.67 26.89 C 15.31 26.37 14.98 25.83 14.69 25.25 L 9.33 28.49 L 10.3 30.13 Z M 14.69 25.25 L 16.08 24.41 C 15.44 23.12 15.04 21.69 14.91 20.17 L 13.28 20.17 C 13.41 21.99 13.91 23.71 14.69 25.25 Z M 13.28 20.17 C 13.26 19.86 13.25 19.54 13.25 19.22 C 13.25 18.89 13.26 18.58 13.28 18.26 L 7.47 18.26 L 7.47 20.17 Z M 13.28 18.26 L 14.91 18.26 C 15.03 16.76 15.44 15.34 16.07 14.05 L 14.67 13.21 C 13.9 14.75 13.41 16.45 13.28 18.26 Z M 14.67 13.21 C 14.96 12.64 15.29 12.09 15.65 11.57 L 10.23 8.3 L 9.26 9.95 Z M 16.07 14.05 L 17.26 14.77 C 17.53 14.19 17.86 13.65 18.24 13.13 L 17.05 12.41 C 16.68 12.93 16.35 13.48 16.07 14.05 Z M 18.24 13.13 L 19.53 13.91 L 20 13.1 L 21.88 16.44 L 18.08 16.36 L 18.55 15.55 L 17.26 14.77 C 16.73 15.87 16.41 17.05 16.29 18.26 L 18.29 18.26 L 18.29 17.32 L 21.6 19.22 L 18.29 21.11 L 18.29 20.17 L 16.29 20.17 C 16.41 21.4 16.74 22.59 17.28 23.7 L 18.63 22.88 L 18.15 22.08 L 21.95 21.99 L 20.07 25.33 L 19.6 24.53 L 18.26 25.33 C 20.17 27.92 23.18 29.45 26.37 29.46 C 29.06 29.46 31.64 28.38 33.54 26.46 C 35.44 24.54 36.51 21.93 36.51 19.22 C 36.51 13.56 31.97 8.98 26.37 8.98 C 23.16 8.98 20.15 10.52 18.24 13.13 Z M 18.26 25.33 C 17.88 24.82 17.55 24.27 17.28 23.7 L 16.08 24.41 C 16.37 24.99 16.7 25.54 17.07 26.05 Z M 16.29 20.17 C 16.26 19.86 16.24 19.54 16.24 19.22 C 16.24 18.9 16.26 18.58 16.29 18.26 L 14.91 18.26 C 14.89 18.57 14.87 18.89 14.87 19.22 C 14.87 19.54 14.89 19.86 14.91 20.17 Z M 22.4 11.27 L 30.65 17.61 L 36.07 17.61 L 36.07 20.41 L 30.65 20.41 L 22.4 27.16 Z M 46.9 17.09 L 46.9 18.14 L 40.42 18.14 L 40.42 20.29 L 46.9 20.29 L 46.9 21.35 L 50.21 19.22 Z M 2.72 0 C 1.22 0 0 1.24 0 2.75 L 0 42.25 C 0 43.76 1.22 45 2.72 45 L 54.88 45 C 56.38 45 57.6 43.76 57.6 42.25 L 57.6 2.75 C 57.6 1.24 56.38 0 54.88 0 Z M 2.72 1.24 L 54.88 1.24 C 55.72 1.24 56.37 1.9 56.37 2.75 L 56.37 42.25 C 56.37 43.1 55.72 43.76 54.88 43.76 L 2.72 43.76 C 1.88 43.76 1.23 43.1 1.23 42.25 L 1.23 2.75 C 1.23 1.9 1.88 1.24 2.72 1.24 Z" fill="#3c708a" stroke="none" pointer-events="all"/></g></g></svg>