<?xml version="1.0" encoding="UTF-8"?>
<!-- Do not edit this file with editors other than draw.io -->
<!DOCTYPE svg PUBLIC "-//W3C//DTD SVG 1.1//EN" "http://www.w3.org/Graphics/SVG/1.1/DTD/svg11.dtd">
<svg xmlns="http://www.w3.org/2000/svg" xmlns:xlink="http://www.w3.org/1999/xlink" version="1.1" width="59px" height="46px" viewBox="-0.5 -0.5 59 46" content="&lt;mxfile host=&quot;Electron&quot; modified=&quot;2024-05-26T21:46:36.365Z&quot; agent=&quot;Mozilla/5.0 (Windows NT 10.0; Win64; x64) AppleWebKit/537.36 (KHTML, like Gecko) draw.io/24.4.8 Chrome/124.0.6367.207 Electron/30.0.6 Safari/537.36&quot; version=&quot;24.4.8&quot; etag=&quot;ej3bBSGrAj-RXJRxzskX&quot; type=&quot;device&quot; scale=&quot;1&quot; border=&quot;0&quot;&gt;&#10;  &lt;diagram name=&quot;Page-1&quot; id=&quot;aqcfVemiOHV-aQh_IjVy&quot;&gt;&#10;    &lt;mxGraphModel dx=&quot;519&quot; dy=&quot;352&quot; grid=&quot;1&quot; gridSize=&quot;10&quot; guides=&quot;1&quot; tooltips=&quot;1&quot; connect=&quot;1&quot; arrows=&quot;1&quot; fold=&quot;1&quot; page=&quot;1&quot; pageScale=&quot;1&quot; pageWidth=&quot;827&quot; pageHeight=&quot;1169&quot; math=&quot;0&quot; shadow=&quot;0&quot;&gt;&#10;      &lt;root&gt;&#10;        &lt;mxCell id=&quot;0&quot; /&gt;&#10;        &lt;mxCell id=&quot;1&quot; parent=&quot;0&quot; /&gt;&#10;        &lt;mxCell id=&quot;2&quot; value=&quot;&quot; style=&quot;group&quot; vertex=&quot;1&quot; connectable=&quot;0&quot; parent=&quot;1&quot;&gt;&#10;          &lt;mxGeometry x=&quot;80&quot; y=&quot;585&quot; width=&quot;57.599999999999994&quot; height=&quot;45&quot; as=&quot;geometry&quot; /&gt;&#10;        &lt;/mxCell&gt;&#10;        &lt;mxCell id=&quot;3&quot; value=&quot;&quot; style=&quot;sketch=0;points=[[0.015,0.015,0],[0.985,0.015,0],[0.985,0.985,0],[0.015,0.985,0],[0.25,0,0],[0.5,0,0],[0.75,0,0],[1,0.25,0],[1,0.5,0],[1,0.75,0],[0.75,1,0],[0.5,1,0],[0.25,1,0],[0,0.75,0],[0,0.5,0],[0,0.25,0]];verticalLabelPosition=bottom;html=1;verticalAlign=top;aspect=fixed;align=center;pointerEvents=1;shape=mxgraph.cisco19.rect;prIcon=asa_5500;fillColor=#FAFAFA;strokeColor=#3C708A;container=0;&quot; vertex=&quot;1&quot; parent=&quot;2&quot;&gt;&#10;          &lt;mxGeometry width=&quot;57.6&quot; height=&quot;45&quot; as=&quot;geometry&quot; /&gt;&#10;        &lt;/mxCell&gt;&#10;        &lt;mxCell id=&quot;4&quot; value=&quot;&quot; style=&quot;rounded=0;whiteSpace=wrap;html=1;strokeColor=none;container=0;&quot; vertex=&quot;1&quot; parent=&quot;2&quot;&gt;&#10;          &lt;mxGeometry x=&quot;6&quot; y=&quot;3&quot; width=&quot;46&quot; height=&quot;21&quot; as=&quot;geometry&quot; /&gt;&#10;        &lt;/mxCell&gt;&#10;        &lt;mxCell id=&quot;5&quot; value=&quot;&quot; style=&quot;shape=image;aspect=fixed;image=data:image/svg+xml,PHN2ZyB2ZXJzaW9uPSIxLjEiIGlkPSJMYXllcl8xIiB4bWxuczp4PSJuc19leHRlbmQ7IiB4bWxuczppPSJuc19haTsiIHhtbG5zOmdyYXBoPSJuc19ncmFwaHM7IiB4bWxucz0iaHR0cDovL3d3dy53My5vcmcvMjAwMC9zdmciIHhtbG5zOnhsaW5rPSJodHRwOi8vd3d3LnczLm9yZy8xOTk5L3hsaW5rIiB4PSIwcHgiIHk9IjBweCIgdmlld0JveD0iMCAwIDE3Ny44IDEyNyIgc3R5bGU9ImVuYWJsZS1iYWNrZ3JvdW5kOm5ldyAwIDAgMTc3LjggMTI3OyIgeG1sOnNwYWNlPSJwcmVzZXJ2ZSI+CiA8c3R5bGUgdHlwZT0idGV4dC9jc3MiPgogIC5zdDB7ZmlsbDojRUUzMTI0O30KIDwvc3R5bGU+CiA8bWV0YWRhdGE+CiAgPHNmdyB4bWxucz0ibnNfc2Z3OyI+CiAgIDxzbGljZXM+CiAgIDwvc2xpY2VzPgogICA8c2xpY2VTb3VyY2VCb3VuZHMgYm90dG9tTGVmdE9yaWdpbj0idHJ1ZSIgaGVpZ2h0PSIxMjciIHdpZHRoPSIxNzcuOCIgeD0iLTMzNS40IiB5PSIwIj4KICAgPC9zbGljZVNvdXJjZUJvdW5kcz4KICA8L3Nmdz4KIDwvbWV0YWRhdGE+CiA8Zz4KICA8cGF0aCBjbGFzcz0ic3QwIiBkPSJNMCw0Ny4xaDUwLjN2MzNIMFY0Ny4xeiBNNjQuMiwwLjJoNDkuNHYzM0g2NC4yVjAuMnogTTY0LjIsOTMuOGg0OS40djMzSDY0LjJWOTMuOHogTTEyNy40LDQ3LjFoNTAuNXYzMwoJCWgtNTAuNVY0Ny4xeiBNMjAuNywwLjJDMTAuMiwyLjksMiwxNC42LDAsMjkuNnYzLjdoNTAuM1YwLjJIMjAuN3ogTTAsOTMuOHY0LjFjMS44LDE0LjMsOS41LDI1LjcsMTkuNCwyOC45aDMxdi0zM0gweiBNMTc3LjgsMzMuMgoJCXYtMy43Yy0yLTE0LjgtMTAuMi0yNi42LTIwLjctMjkuNGgtMjkuOHYzM2g1MC41VjMzLjJ6IE0xNTguNCwxMjdjOS44LTMuNCwxNy41LTE0LjYsMTkuNC0yOC45Vjk0aC01MC41djMzSDE1OC40TDE1OC40LDEyN3oiPgogIDwvcGF0aD4KIDwvZz4KPC9zdmc+;imageBackground=none;container=0;&quot; vertex=&quot;1&quot; parent=&quot;2&quot;&gt;&#10;          &lt;mxGeometry x=&quot;17.82000000000005&quot; y=&quot;5.5&quot; width=&quot;22.37&quot; height=&quot;16&quot; as=&quot;geometry&quot; /&gt;&#10;        &lt;/mxCell&gt;&#10;      &lt;/root&gt;&#10;    &lt;/mxGraphModel&gt;&#10;  &lt;/diagram&gt;&#10;&lt;/mxfile&gt;&#10;"><defs/><g><g/><g><rect x="0" y="0" width="57.6" height="45" fill="none" stroke="none" pointer-events="all"/><path d="M 2.72 0 C 1.22 0 0 1.24 0 2.75 L 0 42.25 C 0 43.76 1.22 45 2.72 45 L 54.88 45 C 56.37 45 57.6 43.76 57.6 42.25 L 57.6 2.75 C 57.6 1.24 56.37 0 54.88 0 Z" fill="#fafafa" stroke="none" pointer-events="all"/><rect x="0" y="0" width="57.6" height="45" fill="none" stroke="none" pointer-events="all"/><path d="M 28.81 3.85 C 25.58 3.85 22.79 5.81 21.56 8.62 L 14.15 8.62 L 14.15 10.77 L 20.95 10.77 C 20.9 11.13 20.88 11.49 20.88 11.86 C 20.88 16.28 24.44 19.88 28.81 19.88 C 30.32 19.88 31.73 19.45 32.94 18.7 L 37.83 23.8 L 39.83 21.84 L 35.02 16.84 C 35.46 16.27 35.83 15.65 36.11 14.99 L 43.62 14.99 L 43.62 12.84 L 36.68 12.84 C 36.72 12.52 36.74 12.19 36.74 11.86 C 36.74 7.45 33.18 3.85 28.81 3.85 Z M 28.81 5.49 C 32.3 5.49 35.12 8.33 35.12 11.86 C 35.12 12.2 35.09 12.53 35.04 12.84 L 27.72 12.84 L 27.72 11.82 L 24.5 13.91 L 27.72 16.01 L 27.72 14.99 L 34.31 14.99 C 33.23 16.93 31.18 18.24 28.81 18.24 C 25.32 18.24 22.5 15.39 22.5 11.86 C 22.5 11.49 22.53 11.12 22.6 10.77 L 30.05 10.77 L 30.05 11.79 L 33.26 9.69 L 30.05 7.6 L 30.05 8.62 L 23.37 8.62 C 24.47 6.74 26.49 5.49 28.81 5.49 Z M 2.61 25.11 L 2.61 27.18 L 7.64 27.18 L 7.64 32.54 L 2.61 32.54 L 2.61 34.61 L 17.84 34.61 L 17.84 39.96 L 2.61 39.96 L 2.61 42.03 L 55.16 42.03 L 55.16 39.96 L 40.28 39.96 L 40.28 34.61 L 55.16 34.61 L 55.16 32.54 L 50.47 32.54 L 50.47 27.18 L 55.16 27.18 L 55.16 25.11 Z M 9.69 27.18 L 28.03 27.18 L 28.03 32.54 L 9.69 32.54 Z M 30.08 27.18 L 48.42 27.18 L 48.42 32.54 L 30.08 32.54 Z M 19.88 34.61 L 38.23 34.61 L 38.23 39.96 L 19.88 39.96 Z M 2.72 0 C 1.22 0 0 1.24 0 2.75 L 0 42.25 C 0 43.76 1.22 45 2.72 45 L 54.88 45 C 56.37 45 57.6 43.76 57.6 42.25 L 57.6 2.75 C 57.6 1.24 56.37 0 54.88 0 Z M 2.72 1.24 L 54.88 1.24 C 55.72 1.24 56.37 1.9 56.37 2.75 L 56.37 42.25 C 56.37 43.1 55.72 43.76 54.88 43.76 L 2.72 43.76 C 1.88 43.76 1.23 43.1 1.23 42.25 L 1.23 2.75 C 1.23 1.9 1.88 1.24 2.72 1.24 Z" fill="#3c708a" stroke="none" pointer-events="all"/></g><g><rect x="6" y="3" width="46" height="21" fill="rgb(255, 255, 255)" stroke="none" pointer-events="all"/></g><g><svg xml:space="preserve" style="font-family: initial;" viewBox="0 0 177.8 127" y="5" x="17.32" id="svg-image-Wu_zaYjftkiHhwyqlD9T" version="1.1" xmlns:xlink="http://www.w3.org/1999/xlink" xmlns="http://www.w3.org/2000/svg" width="22.37" height="16">&#xa; <style type="text/css">#svg-image-Wu_zaYjftkiHhwyqlD9T .st0 { fill: rgb(238, 49, 36); }&#xa;</style>&#xa; <metadata>&#xa;  &#xa;   &#xa;   &#xa;   &#xa;   &#xa;  &#xa; </metadata>&#xa; <g>&#xa;  <path d="M0,47.1h50.3v33H0V47.1z M64.2,0.2h49.4v33H64.2V0.2z M64.2,93.8h49.4v33H64.2V93.8z M127.4,47.1h50.5v33   h-50.5V47.1z M20.7,0.2C10.2,2.9,2,14.6,0,29.6v3.7h50.3V0.2H20.7z M0,93.8v4.1c1.8,14.3,9.5,25.7,19.4,28.9h31v-33H0z M177.8,33.2   v-3.7c-2-14.8-10.2-26.6-20.7-29.4h-29.8v33h50.5V33.2z M158.4,127c9.8-3.4,17.5-14.6,19.4-28.9V94h-50.5v33H158.4L158.4,127z" class="st0">&#xa;  </path>&#xa; </g>&#xa;</svg></g></g></svg>