<?xml version="1.0" encoding="UTF-8"?>
<!-- Do not edit this file with editors other than draw.io -->
<!DOCTYPE svg PUBLIC "-//W3C//DTD SVG 1.1//EN" "http://www.w3.org/Graphics/SVG/1.1/DTD/svg11.dtd">
<svg xmlns="http://www.w3.org/2000/svg" xmlns:xlink="http://www.w3.org/1999/xlink" version="1.1" width="47px" height="37px" viewBox="-0.5 -0.5 47 37" content="&lt;mxfile host=&quot;Electron&quot; modified=&quot;2024-05-26T19:53:40.484Z&quot; agent=&quot;Mozilla/5.0 (Windows NT 10.0; Win64; x64) AppleWebKit/537.36 (KHTML, like Gecko) draw.io/24.4.8 Chrome/124.0.6367.207 Electron/30.0.6 Safari/537.36&quot; version=&quot;24.4.8&quot; etag=&quot;naPjtWAxRwSy1gIBRMpJ&quot; type=&quot;device&quot; scale=&quot;1&quot; border=&quot;0&quot;&gt;&#10;  &lt;diagram name=&quot;Page-1&quot; id=&quot;wO5onFprPnTQR9wTd0MK&quot;&gt;&#10;    &lt;mxGraphModel dx=&quot;519&quot; dy=&quot;352&quot; grid=&quot;1&quot; gridSize=&quot;10&quot; guides=&quot;1&quot; tooltips=&quot;1&quot; connect=&quot;1&quot; arrows=&quot;1&quot; fold=&quot;1&quot; page=&quot;1&quot; pageScale=&quot;1&quot; pageWidth=&quot;827&quot; pageHeight=&quot;1169&quot; math=&quot;0&quot; shadow=&quot;0&quot;&gt;&#10;      &lt;root&gt;&#10;        &lt;mxCell id=&quot;0&quot; /&gt;&#10;        &lt;mxCell id=&quot;1&quot; parent=&quot;0&quot; /&gt;&#10;        &lt;mxCell id=&quot;2&quot; value=&quot;&quot; style=&quot;points=[[0.02,0.015,0],[0.5,0,0],[0.98,0.015,0],[1,0.38,0],[0.895,0.98,0],[0.5,1,0],[0.105,0.98,0],[0,0.38,0]];verticalLabelPosition=bottom;sketch=0;html=1;verticalAlign=top;aspect=fixed;align=center;pointerEvents=1;shape=mxgraph.cisco19.secure_endpoint_pc;fillColor=#3C708A;strokeColor=none;&quot; vertex=&quot;1&quot; parent=&quot;1&quot;&gt;&#10;          &lt;mxGeometry x=&quot;437.38&quot; y=&quot;180&quot; width=&quot;46.25&quot; height=&quot;37&quot; as=&quot;geometry&quot; /&gt;&#10;        &lt;/mxCell&gt;&#10;      &lt;/root&gt;&#10;    &lt;/mxGraphModel&gt;&#10;  &lt;/diagram&gt;&#10;&lt;/mxfile&gt;&#10;"><defs/><g><g><rect x="-0.62" y="0" width="46.25" height="37" fill="none" stroke="none" pointer-events="all"/><path d="M 2.08 0 C 0.59 0 -0.62 1.03 -0.62 2.3 L -0.62 24.94 C -0.62 26.21 0.59 27.24 2.08 27.24 L 42.93 27.24 C 44.42 27.24 45.63 26.21 45.63 24.94 L 45.63 2.3 C 45.63 1.03 44.42 0 42.93 0 Z M 2.08 0.7 L 42.93 0.7 C 43.98 0.7 44.81 1.41 44.81 2.3 L 44.81 24.94 C 44.81 25.83 43.98 26.54 42.93 26.54 L 2.08 26.54 C 1.03 26.54 0.2 25.83 0.2 24.94 L 0.2 2.3 C 0.2 1.41 1.03 0.7 2.08 0.7 Z M 2.57 2.83 L 2.57 24.31 L 42.36 24.31 L 42.36 2.83 Z M 22.45 6.89 C 24.42 6.89 26.54 8.42 26.54 10.46 L 26.54 12.83 L 29.01 12.83 L 29.01 20.25 L 15.92 20.25 L 15.92 12.83 L 18.36 12.83 L 18.36 10.46 C 18.36 8.5 20.38 6.89 22.45 6.89 Z M 22.45 7.62 C 20.93 7.62 19.22 8.94 19.22 10.46 L 19.22 12.83 L 25.68 12.83 L 25.68 10.46 C 25.68 8.87 23.87 7.62 22.45 7.62 Z M 22.41 15.21 C 21.92 15.21 21.53 15.54 21.53 15.95 C 21.53 16.23 21.72 16.49 22.02 16.62 L 22.02 18.38 L 22.79 18.38 L 22.79 16.62 C 23.09 16.49 23.28 16.23 23.28 15.95 C 23.28 15.54 22.89 15.21 22.41 15.21 Z M 6.12 28.43 C 4.77 28.43 3.67 29.36 3.67 30.51 L 3.67 34.92 C 3.67 36.06 4.77 37 6.12 37 L 38.98 37 C 40.33 37 41.43 36.06 41.43 34.92 L 41.43 30.51 C 41.43 29.36 40.33 28.43 38.98 28.43 Z M 6.12 29.13 L 38.98 29.13 C 39.88 29.13 40.6 29.74 40.6 30.51 L 40.6 34.92 C 40.6 35.69 39.88 36.3 38.98 36.3 L 6.12 36.3 C 5.21 36.3 4.49 35.69 4.49 34.92 L 4.49 30.51 C 4.49 29.74 5.21 29.13 6.12 29.13 Z M 9.12 31.59 C 8.77 31.59 8.44 31.7 8.2 31.91 C 7.96 32.12 7.82 32.4 7.82 32.69 C 7.82 32.98 7.96 33.26 8.2 33.47 C 8.44 33.68 8.77 33.79 9.12 33.79 C 9.46 33.79 9.79 33.68 10.03 33.47 C 10.28 33.26 10.41 32.98 10.41 32.69 C 10.41 32.08 9.83 31.59 9.12 31.59 Z M 26.6 31.96 L 26.6 33.43 L 37.91 33.43 L 37.91 31.96 Z" fill="#3c708a" stroke="none" pointer-events="all"/></g></g></svg>