<?xml version="1.0" encoding="UTF-8"?>
<!-- Do not edit this file with editors other than draw.io -->
<!DOCTYPE svg PUBLIC "-//W3C//DTD SVG 1.1//EN" "http://www.w3.org/Graphics/SVG/1.1/DTD/svg11.dtd">
<svg xmlns="http://www.w3.org/2000/svg" xmlns:xlink="http://www.w3.org/1999/xlink" version="1.1" width="59px" height="46px" viewBox="-0.5 -0.5 59 46" content="&lt;mxfile host=&quot;Electron&quot; modified=&quot;2024-05-26T21:49:13.202Z&quot; agent=&quot;Mozilla/5.0 (Windows NT 10.0; Win64; x64) AppleWebKit/537.36 (KHTML, like Gecko) draw.io/24.4.8 Chrome/124.0.6367.207 Electron/30.0.6 Safari/537.36&quot; version=&quot;24.4.8&quot; etag=&quot;HallAimrMQczL04uEPsR&quot; type=&quot;device&quot; scale=&quot;1&quot; border=&quot;0&quot;&gt;&#10;  &lt;diagram name=&quot;Page-1&quot; id=&quot;8ZnIiW6Gf7ko90g99NIY&quot;&gt;&#10;    &lt;mxGraphModel dx=&quot;519&quot; dy=&quot;352&quot; grid=&quot;1&quot; gridSize=&quot;10&quot; guides=&quot;1&quot; tooltips=&quot;1&quot; connect=&quot;1&quot; arrows=&quot;1&quot; fold=&quot;1&quot; page=&quot;1&quot; pageScale=&quot;1&quot; pageWidth=&quot;827&quot; pageHeight=&quot;1169&quot; math=&quot;0&quot; shadow=&quot;0&quot;&gt;&#10;      &lt;root&gt;&#10;        &lt;mxCell id=&quot;0&quot; /&gt;&#10;        &lt;mxCell id=&quot;1&quot; parent=&quot;0&quot; /&gt;&#10;        &lt;mxCell id=&quot;2&quot; value=&quot;&quot; style=&quot;sketch=0;points=[[0.015,0.015,0],[0.985,0.015,0],[0.985,0.985,0],[0.015,0.985,0],[0.25,0,0],[0.5,0,0],[0.75,0,0],[1,0.25,0],[1,0.5,0],[1,0.75,0],[0.75,1,0],[0.5,1,0],[0.25,1,0],[0,0.75,0],[0,0.5,0],[0,0.25,0]];verticalLabelPosition=bottom;html=1;verticalAlign=top;aspect=fixed;align=center;pointerEvents=1;shape=mxgraph.cisco19.rect;prIcon=firewall;fillColor=#FAFAFA;strokeColor=#BA4E38;container=0;gradientColor=none;&quot; vertex=&quot;1&quot; parent=&quot;1&quot;&gt;&#10;          &lt;mxGeometry x=&quot;613&quot; y=&quot;103.09&quot; width=&quot;57.6&quot; height=&quot;45&quot; as=&quot;geometry&quot; /&gt;&#10;        &lt;/mxCell&gt;&#10;      &lt;/root&gt;&#10;    &lt;/mxGraphModel&gt;&#10;  &lt;/diagram&gt;&#10;&lt;/mxfile&gt;&#10;"><defs/><g><g><rect x="0" y="0.09" width="57.6" height="45" fill="none" stroke="none" pointer-events="all"/><path d="M 2.72 0.09 C 1.22 0.09 0 1.33 0 2.84 L 0 42.34 C 0 43.85 1.22 45.09 2.72 45.09 L 54.88 45.09 C 56.37 45.09 57.6 43.85 57.6 42.34 L 57.6 2.84 C 57.6 1.33 56.37 0.09 54.88 0.09 Z" fill="#fafafa" stroke="none" pointer-events="all"/><rect x="0" y="0.09" width="57.6" height="45" fill="none" stroke="none" pointer-events="all"/><path d="M 2.61 2.93 L 2.61 5 L 17.84 5 L 17.84 10.35 L 2.61 10.35 L 2.61 12.42 L 7.64 12.42 L 7.64 17.78 L 2.61 17.78 L 2.61 19.85 L 17.84 19.85 L 17.84 25.2 L 2.61 25.2 L 2.61 27.27 L 7.64 27.27 L 7.64 32.63 L 2.61 32.63 L 2.61 34.7 L 17.84 34.7 L 17.84 40.05 L 2.61 40.05 L 2.61 42.12 L 55.16 42.12 L 55.16 40.05 L 40.28 40.05 L 40.28 34.7 L 55.16 34.7 L 55.16 32.63 L 50.47 32.63 L 50.47 27.27 L 55.16 27.27 L 55.16 25.2 L 40.28 25.2 L 40.28 19.85 L 55.16 19.85 L 55.16 17.78 L 50.47 17.78 L 50.47 12.42 L 55.16 12.42 L 55.16 10.35 L 40.28 10.35 L 40.28 5 L 55.16 5 L 55.16 2.93 Z M 19.88 5 L 38.23 5 L 38.23 10.35 L 19.88 10.35 Z M 9.69 12.42 L 28.03 12.42 L 28.03 17.78 L 9.69 17.78 Z M 30.08 12.42 L 48.42 12.42 L 48.42 17.78 L 30.08 17.78 Z M 19.88 19.85 L 38.23 19.85 L 38.23 25.2 L 19.88 25.2 Z M 9.69 27.27 L 28.03 27.27 L 28.03 32.63 L 9.69 32.63 Z M 30.08 27.27 L 48.42 27.27 L 48.42 32.63 L 30.08 32.63 Z M 19.88 34.7 L 38.23 34.7 L 38.23 40.05 L 19.88 40.05 Z M 2.72 0.09 C 1.22 0.09 0 1.33 0 2.84 L 0 42.34 C 0 43.85 1.22 45.09 2.72 45.09 L 54.88 45.09 C 56.38 45.09 57.6 43.85 57.6 42.34 L 57.6 2.84 C 57.6 1.33 56.38 0.09 54.88 0.09 Z M 2.72 1.33 L 54.88 1.33 C 55.72 1.33 56.37 1.99 56.37 2.84 L 56.37 42.34 C 56.37 43.19 55.72 43.85 54.88 43.85 L 2.72 43.85 C 1.88 43.85 1.23 43.19 1.23 42.34 L 1.23 2.84 C 1.23 1.99 1.88 1.33 2.72 1.33 Z" fill="#ba4e38" stroke="none" pointer-events="all"/></g></g></svg>