<?xml version="1.0" encoding="UTF-8"?>
<!-- Do not edit this file with editors other than draw.io -->
<!DOCTYPE svg PUBLIC "-//W3C//DTD SVG 1.1//EN" "http://www.w3.org/Graphics/SVG/1.1/DTD/svg11.dtd">
<svg xmlns="http://www.w3.org/2000/svg" xmlns:xlink="http://www.w3.org/1999/xlink" version="1.1" width="47px" height="37px" viewBox="-0.5 -0.5 47 37" content="&lt;mxfile host=&quot;Electron&quot; modified=&quot;2024-05-26T19:55:22.793Z&quot; agent=&quot;Mozilla/5.0 (Windows NT 10.0; Win64; x64) AppleWebKit/537.36 (KHTML, like Gecko) draw.io/24.4.8 Chrome/124.0.6367.207 Electron/30.0.6 Safari/537.36&quot; version=&quot;24.4.8&quot; etag=&quot;4cdyzOet4bETgm_Rjp_k&quot; type=&quot;device&quot; scale=&quot;1&quot; border=&quot;0&quot;&gt;&#10;  &lt;diagram name=&quot;Page-1&quot; id=&quot;v5L3uS7iQ0RyEF255vM-&quot;&gt;&#10;    &lt;mxGraphModel dx=&quot;519&quot; dy=&quot;352&quot; grid=&quot;1&quot; gridSize=&quot;10&quot; guides=&quot;1&quot; tooltips=&quot;1&quot; connect=&quot;1&quot; arrows=&quot;1&quot; fold=&quot;1&quot; page=&quot;1&quot; pageScale=&quot;1&quot; pageWidth=&quot;827&quot; pageHeight=&quot;1169&quot; math=&quot;0&quot; shadow=&quot;0&quot;&gt;&#10;      &lt;root&gt;&#10;        &lt;mxCell id=&quot;0&quot; /&gt;&#10;        &lt;mxCell id=&quot;1&quot; parent=&quot;0&quot; /&gt;&#10;        &lt;mxCell id=&quot;2&quot; value=&quot;&quot; style=&quot;points=[[0.015,0.14,0],[0.5,0,0],[0.985,0.14,0],[1,0.57,0],[0.99,0.98,0],[0.5,1,0],[0.01,0.98,0],[0,0.57,0]];verticalLabelPosition=bottom;sketch=0;html=1;verticalAlign=top;aspect=fixed;align=center;pointerEvents=1;shape=mxgraph.cisco19.tablet;fillColor=#3C708A;strokeColor=none;&quot; vertex=&quot;1&quot; parent=&quot;1&quot;&gt;&#10;          &lt;mxGeometry x=&quot;519&quot; y=&quot;370&quot; width=&quot;46.25&quot; height=&quot;37&quot; as=&quot;geometry&quot; /&gt;&#10;        &lt;/mxCell&gt;&#10;      &lt;/root&gt;&#10;    &lt;/mxGraphModel&gt;&#10;  &lt;/diagram&gt;&#10;&lt;/mxfile&gt;&#10;"><defs/><g><g><rect x="0" y="0" width="46.25" height="37" fill="none" stroke="none" pointer-events="all"/><path d="M 31.1 10.21 L 40.87 10.21 L 40.87 10.8 L 31.1 10.8 Z M 14.42 10.21 L 24.2 10.21 L 24.2 10.8 L 14.42 10.8 Z M 5.38 12.47 C 7.06 12.47 8.35 16.7 8.35 21.98 C 8.35 26.71 7.25 31.5 5.38 31.5 Z M 14.42 12.47 L 40.87 12.47 L 40.87 31.5 L 14.42 31.5 Z M 5.78 2.97 C 5.05 2.97 4.36 2.33 4.36 1.49 C 4.36 0.7 4.96 0 5.78 0 L 22.99 0 C 23.36 0 23.62 0.13 23.84 0.26 L 39.4 0.26 L 39.4 0.56 L 41.88 1.47 L 39.4 2.39 L 39.4 2.66 L 23.84 2.66 C 23.61 2.83 23.27 2.97 22.99 2.97 Z M 2.11 4.71 C 0.95 4.71 0 5.56 0 6.61 L 0 35.09 C 0 36.14 0.95 37 2.11 37 L 44.14 37 C 45.3 37 46.25 36.14 46.25 35.09 L 46.25 6.61 C 46.25 5.56 45.3 4.71 44.14 4.71 Z M 2.11 5.44 L 44.14 5.44 C 44.86 5.44 45.43 5.96 45.43 6.61 L 45.43 35.09 C 45.43 35.75 44.86 36.26 44.14 36.26 L 2.11 36.26 C 1.39 36.26 0.82 35.75 0.82 35.09 L 0.82 6.61 C 0.82 5.96 1.39 5.44 2.11 5.44 Z" fill="#3c708a" stroke="none" pointer-events="all"/></g></g></svg>