<?xml version="1.0" encoding="UTF-8"?>
<!-- Do not edit this file with editors other than draw.io -->
<!DOCTYPE svg PUBLIC "-//W3C//DTD SVG 1.1//EN" "http://www.w3.org/Graphics/SVG/1.1/DTD/svg11.dtd">
<svg xmlns="http://www.w3.org/2000/svg" xmlns:xlink="http://www.w3.org/1999/xlink" version="1.1" width="67px" height="38px" viewBox="-0.5 -0.5 67 38" content="&lt;mxfile host=&quot;app.diagrams.net&quot; modified=&quot;2024-05-26T08:24:35.833Z&quot; agent=&quot;Mozilla/5.0 (Windows NT 10.0; Win64; x64; rv:126.0) Gecko/20100101 Firefox/126.0&quot; version=&quot;24.4.8&quot; etag=&quot;h89IYyFmFIAhbkAOtY3C&quot; type=&quot;onedrive&quot; scale=&quot;1&quot; border=&quot;0&quot;&gt;&#xA;  &lt;diagram name=&quot;Page-1&quot; id=&quot;Fni_m9vKPdeZdG2KIdIU&quot;&gt;&#xA;    &lt;mxGraphModel dx=&quot;1050&quot; dy=&quot;579&quot; grid=&quot;1&quot; gridSize=&quot;10&quot; guides=&quot;1&quot; tooltips=&quot;1&quot; connect=&quot;1&quot; arrows=&quot;1&quot; fold=&quot;1&quot; page=&quot;1&quot; pageScale=&quot;1&quot; pageWidth=&quot;827&quot; pageHeight=&quot;1169&quot; math=&quot;0&quot; shadow=&quot;0&quot;&gt;&#xA;      &lt;root&gt;&#xA;        &lt;mxCell id=&quot;0&quot; /&gt;&#xA;        &lt;mxCell id=&quot;1&quot; parent=&quot;0&quot; /&gt;&#xA;        &lt;mxCell id=&quot;2&quot; value=&quot;&quot; style=&quot;shape=mxgraph.cisco.routers.router;sketch=0;html=1;pointerEvents=1;dashed=0;fillColor=#3c708a;strokeColor=#ffffff;strokeWidth=2;verticalLabelPosition=bottom;verticalAlign=top;align=center;outlineConnect=0;points=[[0,0.5,0,0,0],[0.12,0.1,0,0,0],[0.12,0.9,0,0,0],[0.31,0,0,0,0],[0.31,1,0,0,0],[0.5,0,0,0,0],[0.5,1,0,0,0],[0.67,0,0,0,0],[0.67,1,0,0,0],[0.88,0.1,0,0,0],[0.88,0.9,0,0,0],[1,0.5,0,0,0]];&quot; vertex=&quot;1&quot; parent=&quot;1&quot;&gt;&#xA;          &lt;mxGeometry x=&quot;263&quot; y=&quot;442.5&quot; width=&quot;65&quot; height=&quot;36&quot; as=&quot;geometry&quot; /&gt;&#xA;        &lt;/mxCell&gt;&#xA;      &lt;/root&gt;&#xA;    &lt;/mxGraphModel&gt;&#xA;  &lt;/diagram&gt;&#xA;&lt;/mxfile&gt;&#xA;"><defs/><g><g><rect x="1" y="0.5" width="65" height="36" fill="none" stroke="none" pointer-events="all"/><path d="M 66 10.94 C 66 16.7 51.51 21.38 33.49 21.38 C 15.49 21.38 1 16.7 1 10.94 C 1 26.07 1 26.07 1 26.07 C 1 31.82 15.49 36.5 33.49 36.5 C 51.51 36.5 66 31.82 66 26.07 Z M 33.49 21.38 C 51.51 21.38 66 16.7 66 10.94 C 66 5.18 51.51 0.5 33.49 0.5 C 15.49 0.5 1 5.18 1 10.94 C 1 16.7 15.49 21.38 33.49 21.38 Z" fill="#3c708a" stroke="#ffffff" stroke-width="2" stroke-linejoin="round" stroke-miterlimit="10" pointer-events="all"/><path d="M 26.04 6.98 L 28.67 10.22 L 18.56 12.02 L 20.76 10.58 L 5.39 8.42 L 9.34 5.9 L 24.27 8.06 Z M 40.53 14.9 L 38.33 11.66 L 47.55 9.86 L 46.24 11.3 L 61.16 13.46 L 57.66 15.62 L 42.28 13.46 Z M 35.26 5.18 L 45.35 3.02 L 45.8 6.26 L 43.17 5.9 L 38.33 9.5 L 33.49 8.78 L 38.33 5.54 Z M 30.86 18.14 L 21.2 19.59 L 20.76 15.62 L 23.83 16.35 L 29.11 12.38 L 33.94 13.1 L 28.22 17.43 Z" fill="#ffffff" stroke="none" pointer-events="all"/></g></g></svg>