<?xml version="1.0" encoding="UTF-8"?>
<!-- Do not edit this file with editors other than draw.io -->
<!DOCTYPE svg PUBLIC "-//W3C//DTD SVG 1.1//EN" "http://www.w3.org/Graphics/SVG/1.1/DTD/svg11.dtd">
<svg xmlns="http://www.w3.org/2000/svg" xmlns:xlink="http://www.w3.org/1999/xlink" version="1.1" width="64px" height="34px" viewBox="-0.5 -0.5 64 34" content="&lt;mxfile host=&quot;app.diagrams.net&quot; modified=&quot;2024-05-26T08:44:23.002Z&quot; agent=&quot;Mozilla/5.0 (Windows NT 10.0; Win64; x64; rv:126.0) Gecko/20100101 Firefox/126.0&quot; version=&quot;24.4.8&quot; etag=&quot;ovNV0tPGYY1qbbUYHd_-&quot; type=&quot;onedrive&quot; scale=&quot;1&quot; border=&quot;0&quot;&gt;&#xA;  &lt;diagram name=&quot;Page-1&quot; id=&quot;zBceeZ_c5b22r3yq_QsA&quot;&gt;&#xA;    &lt;mxGraphModel dx=&quot;525&quot; dy=&quot;290&quot; grid=&quot;1&quot; gridSize=&quot;10&quot; guides=&quot;1&quot; tooltips=&quot;1&quot; connect=&quot;1&quot; arrows=&quot;1&quot; fold=&quot;1&quot; page=&quot;1&quot; pageScale=&quot;1&quot; pageWidth=&quot;827&quot; pageHeight=&quot;1169&quot; math=&quot;0&quot; shadow=&quot;0&quot;&gt;&#xA;      &lt;root&gt;&#xA;        &lt;mxCell id=&quot;0&quot; /&gt;&#xA;        &lt;mxCell id=&quot;1&quot; parent=&quot;0&quot; /&gt;&#xA;        &lt;mxCell id=&quot;2&quot; value=&quot;&quot; style=&quot;shape=mxgraph.cisco.routers.router;sketch=0;html=1;pointerEvents=1;dashed=0;fillColor=#3c708a;strokeColor=#4B8CAD;strokeWidth=2;verticalLabelPosition=bottom;verticalAlign=top;align=center;outlineConnect=0;points=[[0,0.5,0,0,0],[0.12,0.1,0,0,0],[0.12,0.9,0,0,0],[0.31,0,0,0,0],[0.31,1,0,0,0],[0.5,0,0,0,0],[0.5,1,0,0,0],[0.67,0,0,0,0],[0.67,1,0,0,0],[0.88,0.1,0,0,0],[0.88,0.9,0,0,0],[1,0.5,0,0,0]];&quot; vertex=&quot;1&quot; parent=&quot;1&quot;&gt;&#xA;          &lt;mxGeometry x=&quot;263&quot; y=&quot;442.5&quot; width=&quot;62&quot; height=&quot;32&quot; as=&quot;geometry&quot; /&gt;&#xA;        &lt;/mxCell&gt;&#xA;      &lt;/root&gt;&#xA;    &lt;/mxGraphModel&gt;&#xA;  &lt;/diagram&gt;&#xA;&lt;/mxfile&gt;&#xA;"><defs/><g><g><rect x="1" y="0.5" width="62" height="32" fill="none" stroke="none" pointer-events="all"/><path d="M 63 9.78 C 63 14.9 49.17 19.06 31.99 19.06 C 14.83 19.06 1 14.9 1 9.78 C 1 23.23 1 23.23 1 23.23 C 1 28.34 14.83 32.5 31.99 32.5 C 49.17 32.5 63 28.34 63 23.23 Z M 31.99 19.06 C 49.17 19.06 63 14.9 63 9.78 C 63 4.66 49.17 0.5 31.99 0.5 C 14.83 0.5 1 4.66 1 9.78 C 1 14.9 14.83 19.06 31.99 19.06 Z" fill="#3c708a" stroke="#4b8cad" stroke-width="2" stroke-linejoin="round" stroke-miterlimit="10" pointer-events="all"/><path d="M 24.88 6.26 L 27.39 9.14 L 17.75 10.74 L 19.85 9.46 L 5.19 7.54 L 8.96 5.3 L 23.2 7.22 Z M 38.71 13.3 L 36.61 10.42 L 45.4 8.82 L 44.15 10.1 L 58.39 12.02 L 55.04 13.94 L 40.38 12.02 Z M 33.68 4.66 L 43.31 2.74 L 43.73 5.62 L 41.22 5.3 L 36.61 8.5 L 31.99 7.86 L 36.61 4.98 Z M 29.48 16.18 L 20.27 17.46 L 19.85 13.94 L 22.78 14.58 L 27.81 11.06 L 32.42 11.7 L 26.97 15.54 Z" fill="#ffffff" stroke="none" pointer-events="all"/></g></g></svg>