<?xml version="1.0" encoding="UTF-8"?>
<!-- Do not edit this file with editors other than draw.io -->
<!DOCTYPE svg PUBLIC "-//W3C//DTD SVG 1.1//EN" "http://www.w3.org/Graphics/SVG/1.1/DTD/svg11.dtd">
<svg xmlns="http://www.w3.org/2000/svg" xmlns:xlink="http://www.w3.org/1999/xlink" version="1.1" width="59px" height="46px" viewBox="-0.5 -0.5 59 46" content="&lt;mxfile host=&quot;Electron&quot; modified=&quot;2024-05-27T22:34:08.663Z&quot; agent=&quot;Mozilla/5.0 (Windows NT 10.0; Win64; x64) AppleWebKit/537.36 (KHTML, like Gecko) draw.io/24.4.8 Chrome/124.0.6367.207 Electron/30.0.6 Safari/537.36&quot; version=&quot;24.4.8&quot; etag=&quot;n5_aeJJu7eD6Tr6hw_W2&quot; type=&quot;device&quot; scale=&quot;1&quot; border=&quot;0&quot;&gt;&#10;  &lt;diagram name=&quot;Page-1&quot; id=&quot;HJBv0SRlc7CJH3MxeNDF&quot;&gt;&#10;    &lt;mxGraphModel dx=&quot;519&quot; dy=&quot;352&quot; grid=&quot;1&quot; gridSize=&quot;10&quot; guides=&quot;1&quot; tooltips=&quot;1&quot; connect=&quot;1&quot; arrows=&quot;1&quot; fold=&quot;1&quot; page=&quot;1&quot; pageScale=&quot;1&quot; pageWidth=&quot;827&quot; pageHeight=&quot;1169&quot; math=&quot;0&quot; shadow=&quot;0&quot;&gt;&#10;      &lt;root&gt;&#10;        &lt;mxCell id=&quot;0&quot; /&gt;&#10;        &lt;mxCell id=&quot;1&quot; parent=&quot;0&quot; /&gt;&#10;        &lt;mxCell id=&quot;2&quot; value=&quot;&quot; style=&quot;sketch=0;points=[[0.015,0.015,0],[0.985,0.015,0],[0.985,0.985,0],[0.015,0.985,0],[0.25,0,0],[0.5,0,0],[0.75,0,0],[1,0.25,0],[1,0.5,0],[1,0.75,0],[0.75,1,0],[0.5,1,0],[0.25,1,0],[0,0.75,0],[0,0.5,0],[0,0.25,0]];verticalLabelPosition=bottom;html=1;verticalAlign=top;aspect=fixed;align=center;pointerEvents=1;shape=mxgraph.cisco19.rect;prIcon=router_with_firewall2;fillColor=#FAFAFA;strokeColor=#3C708A;&quot; vertex=&quot;1&quot; parent=&quot;1&quot;&gt;&#10;          &lt;mxGeometry x=&quot;517.5&quot; y=&quot;183.63&quot; width=&quot;57.6&quot; height=&quot;45&quot; as=&quot;geometry&quot; /&gt;&#10;        &lt;/mxCell&gt;&#10;      &lt;/root&gt;&#10;    &lt;/mxGraphModel&gt;&#10;  &lt;/diagram&gt;&#10;&lt;/mxfile&gt;&#10;"><defs/><g><g><rect x="0.5" y="-0.37" width="57.6" height="45" fill="none" stroke="none" pointer-events="all"/><path d="M 3.22 -0.37 C 1.72 -0.37 0.5 0.87 0.5 2.38 L 0.5 41.88 C 0.5 43.39 1.72 44.63 3.22 44.63 L 55.38 44.63 C 56.87 44.63 58.1 43.39 58.1 41.88 L 58.1 2.38 C 58.1 0.87 56.87 -0.37 55.38 -0.37 Z" fill="#fafafa" stroke="none" pointer-events="all"/><rect x="0.5" y="-0.37" width="57.6" height="45" fill="none" stroke="none" pointer-events="all"/><path d="M 23.08 28.52 L 23.08 16.09 L 33.41 22.33 Z M 20.38 30.12 L 19.36 29.11 L 12.67 35.96 L 13.69 36.97 L 10.06 37.65 L 10.69 33.98 L 11.71 34.99 L 18.4 28.14 L 17.38 27.13 L 21.02 26.42 Z M 20.39 14.5 L 19.38 15.51 L 12.69 8.66 L 13.7 7.65 L 10.08 6.97 L 10.71 10.64 L 11.73 9.62 L 18.41 16.48 L 17.4 17.49 L 21.04 18.2 Z M 17.98 20.19 L 17.98 21.63 L 8.46 21.63 L 8.46 20.2 L 5.44 22.33 L 8.46 24.45 L 8.46 23 L 17.98 23 L 17.98 24.45 L 21.04 22.33 Z M 3.22 0.87 L 55.38 0.87 C 56.22 0.87 56.87 1.53 56.87 2.38 L 56.87 41.88 C 56.87 42.73 56.22 43.39 55.38 43.39 L 3.22 43.39 C 2.38 43.39 1.73 42.73 1.73 41.88 L 1.73 2.38 C 1.73 1.53 2.38 0.87 3.22 0.87 Z M 3.22 -0.37 C 1.72 -0.37 0.5 0.87 0.5 2.38 L 0.5 41.88 C 0.5 43.39 1.72 44.63 3.22 44.63 L 55.38 44.63 C 56.87 44.63 58.1 43.39 58.1 41.88 L 58.1 2.38 C 58.1 0.87 56.87 -0.37 55.38 -0.37 Z M 47.69 18.31 L 47.69 21 L 41.27 21 L 41.27 18.31 L 35.6 22.3 L 41.27 26.27 L 41.27 23.57 L 47.69 23.57 L 47.69 26.27 L 53.41 22.3 Z" fill="#3c708a" stroke="none" pointer-events="all"/></g></g></svg>