<?xml version="1.0" encoding="UTF-8"?>
<!-- Do not edit this file with editors other than draw.io -->
<!DOCTYPE svg PUBLIC "-//W3C//DTD SVG 1.1//EN" "http://www.w3.org/Graphics/SVG/1.1/DTD/svg11.dtd">
<svg xmlns="http://www.w3.org/2000/svg" xmlns:xlink="http://www.w3.org/1999/xlink" version="1.1" width="50px" height="40px" viewBox="-0.5 -0.5 50 40" content="&lt;mxfile host=&quot;Electron&quot; modified=&quot;2024-05-27T21:24:18.452Z&quot; agent=&quot;Mozilla/5.0 (Windows NT 10.0; Win64; x64) AppleWebKit/537.36 (KHTML, like Gecko) draw.io/24.4.8 Chrome/124.0.6367.207 Electron/30.0.6 Safari/537.36&quot; version=&quot;24.4.8&quot; etag=&quot;oCNa8ytnG6LpbYsSPQIq&quot; type=&quot;device&quot; scale=&quot;1&quot; border=&quot;0&quot;&gt;&#10;  &lt;diagram name=&quot;Page-1&quot; id=&quot;dwat1DmDz0qbvfQWzCRo&quot;&gt;&#10;    &lt;mxGraphModel dx=&quot;519&quot; dy=&quot;352&quot; grid=&quot;1&quot; gridSize=&quot;10&quot; guides=&quot;1&quot; tooltips=&quot;1&quot; connect=&quot;1&quot; arrows=&quot;1&quot; fold=&quot;1&quot; page=&quot;1&quot; pageScale=&quot;1&quot; pageWidth=&quot;827&quot; pageHeight=&quot;1169&quot; math=&quot;0&quot; shadow=&quot;0&quot;&gt;&#10;      &lt;root&gt;&#10;        &lt;mxCell id=&quot;0&quot; /&gt;&#10;        &lt;mxCell id=&quot;1&quot; parent=&quot;0&quot; /&gt;&#10;        &lt;mxCell id=&quot;2&quot; value=&quot;&quot; style=&quot;points=[[0.03,0.03,0],[0.5,0,0],[0.97,0.03,0],[1,0.4,0],[0.97,0.745,0],[0.5,1,0],[0.03,0.745,0],[0,0.4,0]];verticalLabelPosition=bottom;sketch=0;html=1;verticalAlign=top;aspect=fixed;align=center;pointerEvents=1;shape=mxgraph.cisco19.stealthwatch_management_console_smc;fillColor=#3C708A;strokeColor=none;&quot; vertex=&quot;1&quot; parent=&quot;1&quot;&gt;&#10;          &lt;mxGeometry x=&quot;505.63&quot; y=&quot;751&quot; width=&quot;50&quot; height=&quot;40&quot; as=&quot;geometry&quot; /&gt;&#10;        &lt;/mxCell&gt;&#10;      &lt;/root&gt;&#10;    &lt;/mxGraphModel&gt;&#10;  &lt;/diagram&gt;&#10;&lt;/mxfile&gt;&#10;"><defs/><g><g><rect x="-0.37" y="0" width="50" height="40" fill="none" stroke="none" pointer-events="all"/><path d="M 4.59 0 C 1.86 0 -0.37 2.08 -0.37 4.61 L -0.37 26.52 C -0.37 29.06 1.86 31.14 4.59 31.14 L 20.18 31.14 L 20.18 35.7 L 12.73 35.7 C 11.46 35.7 10.42 36.66 10.42 37.84 C 10.42 39.03 11.46 39.99 12.73 39.99 L 36.3 39.99 C 37.57 39.99 38.6 39.03 38.6 37.84 C 38.6 36.66 37.57 35.7 36.3 35.7 L 29.87 35.7 L 29.87 31.14 L 44.67 31.14 C 47.4 31.14 49.63 29.06 49.63 26.52 L 49.63 4.61 C 49.63 2.08 47.4 0 44.67 0 Z M 4.59 2 L 44.67 2 C 46.24 2 47.48 3.15 47.48 4.61 L 47.48 26.52 C 47.48 27.98 46.24 29.13 44.67 29.13 L 4.59 29.13 C 3.01 29.13 1.78 27.98 1.78 26.52 L 1.78 4.61 C 1.78 3.15 3.01 2 4.59 2 Z M 24.62 2.2 C 18.26 2.2 13.08 7.02 13.08 12.93 C 13.08 15.5 14.06 17.85 15.67 19.7 L 9.17 25.96 L 11.92 28.44 L 18.55 22.06 C 20.32 23.08 22.39 23.67 24.62 23.67 C 30.97 23.67 36.15 18.85 36.15 12.93 C 36.15 7.02 30.97 2.2 24.62 2.2 Z M 24.62 4.65 C 29.55 4.65 33.52 8.34 33.52 12.93 C 33.52 17.52 29.55 21.22 24.62 21.22 C 19.68 21.22 15.71 17.52 15.71 12.93 C 15.71 8.34 19.68 4.65 24.62 4.65 Z M 24.79 5.65 C 22.63 5.65 21.39 7.3 21.39 8.76 L 21.39 11.31 L 19.14 11.31 L 19.14 18.29 L 30.1 18.29 L 30.1 11.31 L 28.18 11.31 L 28.18 8.76 C 28.18 7 26.59 5.65 24.79 5.65 Z M 24.79 6.35 C 26.2 6.35 27.43 7.39 27.43 8.76 L 27.43 11.31 L 22.14 11.31 L 22.14 8.76 C 22.14 7.66 23.03 6.35 24.79 6.35 Z M 24.62 13.5 C 25.04 13.5 25.38 13.82 25.38 14.21 C 25.38 14.49 25.2 14.75 24.92 14.86 L 24.92 16.5 L 24.32 16.5 L 24.32 14.86 C 24.04 14.75 23.86 14.49 23.86 14.21 C 23.86 13.82 24.2 13.5 24.62 13.5 Z" fill="#3c708a" stroke="none" pointer-events="all"/></g></g></svg>