<?xml version="1.0" encoding="UTF-8"?>
<!-- Do not edit this file with editors other than draw.io -->
<!DOCTYPE svg PUBLIC "-//W3C//DTD SVG 1.1//EN" "http://www.w3.org/Graphics/SVG/1.1/DTD/svg11.dtd">
<svg xmlns="http://www.w3.org/2000/svg" xmlns:xlink="http://www.w3.org/1999/xlink" version="1.1" width="50px" height="40px" viewBox="-0.5 -0.5 50 40" content="&lt;mxfile host=&quot;Electron&quot; modified=&quot;2024-05-27T21:14:45.857Z&quot; agent=&quot;Mozilla/5.0 (Windows NT 10.0; Win64; x64) AppleWebKit/537.36 (KHTML, like Gecko) draw.io/24.4.8 Chrome/124.0.6367.207 Electron/30.0.6 Safari/537.36&quot; version=&quot;24.4.8&quot; etag=&quot;cYAdstVSuv_U0wBDQTou&quot; type=&quot;device&quot; scale=&quot;1&quot; border=&quot;0&quot;&gt;&#10;  &lt;diagram name=&quot;Page-1&quot; id=&quot;Xkg6yDNyK8J1BZBNjD6G&quot;&gt;&#10;    &lt;mxGraphModel dx=&quot;519&quot; dy=&quot;352&quot; grid=&quot;1&quot; gridSize=&quot;10&quot; guides=&quot;1&quot; tooltips=&quot;1&quot; connect=&quot;1&quot; arrows=&quot;1&quot; fold=&quot;1&quot; page=&quot;1&quot; pageScale=&quot;1&quot; pageWidth=&quot;827&quot; pageHeight=&quot;1169&quot; math=&quot;0&quot; shadow=&quot;0&quot;&gt;&#10;      &lt;root&gt;&#10;        &lt;mxCell id=&quot;0&quot; /&gt;&#10;        &lt;mxCell id=&quot;1&quot; parent=&quot;0&quot; /&gt;&#10;        &lt;mxCell id=&quot;2&quot; value=&quot;&quot; style=&quot;points=[[0.03,0.03,0],[0.5,0,0],[0.97,0.03,0],[1,0.4,0],[0.97,0.745,0],[0.5,1,0],[0.03,0.745,0],[0,0.4,0]];verticalLabelPosition=bottom;sketch=0;html=1;verticalAlign=top;aspect=fixed;align=center;pointerEvents=1;shape=mxgraph.cisco19.stealthwatch_management_console_smc;fillColor=#3C708A;strokeColor=none;&quot; vertex=&quot;1&quot; parent=&quot;1&quot;&gt;&#10;          &lt;mxGeometry x=&quot;384.2&quot; y=&quot;816.5&quot; width=&quot;50&quot; height=&quot;40&quot; as=&quot;geometry&quot; /&gt;&#10;        &lt;/mxCell&gt;&#10;      &lt;/root&gt;&#10;    &lt;/mxGraphModel&gt;&#10;  &lt;/diagram&gt;&#10;&lt;/mxfile&gt;&#10;"><defs/><g><g><rect x="-0.8" y="-0.5" width="50" height="40" fill="none" stroke="none" pointer-events="all"/><path d="M 4.16 -0.5 C 1.43 -0.5 -0.8 1.58 -0.8 4.11 L -0.8 26.02 C -0.8 28.56 1.43 30.64 4.16 30.64 L 19.75 30.64 L 19.75 35.2 L 12.3 35.2 C 11.03 35.2 9.99 36.16 9.99 37.34 C 9.99 38.53 11.03 39.49 12.3 39.49 L 35.87 39.49 C 37.14 39.49 38.17 38.53 38.17 37.34 C 38.17 36.16 37.14 35.2 35.87 35.2 L 29.44 35.2 L 29.44 30.64 L 44.24 30.64 C 46.97 30.64 49.2 28.56 49.2 26.02 L 49.2 4.11 C 49.2 1.58 46.97 -0.5 44.24 -0.5 Z M 4.16 1.5 L 44.24 1.5 C 45.81 1.5 47.05 2.65 47.05 4.11 L 47.05 26.02 C 47.05 27.48 45.81 28.63 44.24 28.63 L 4.16 28.63 C 2.58 28.63 1.35 27.48 1.35 26.02 L 1.35 4.11 C 1.35 2.65 2.58 1.5 4.16 1.5 Z M 24.19 1.7 C 17.83 1.7 12.65 6.52 12.65 12.43 C 12.65 15 13.63 17.35 15.24 19.2 L 8.74 25.46 L 11.49 27.94 L 18.12 21.56 C 19.89 22.58 21.96 23.17 24.19 23.17 C 30.54 23.17 35.72 18.35 35.72 12.43 C 35.72 6.52 30.54 1.7 24.19 1.7 Z M 24.19 4.15 C 29.12 4.15 33.09 7.84 33.09 12.43 C 33.09 17.02 29.12 20.72 24.19 20.72 C 19.25 20.72 15.28 17.02 15.28 12.43 C 15.28 7.84 19.25 4.15 24.19 4.15 Z M 24.36 5.15 C 22.2 5.15 20.96 6.8 20.96 8.26 L 20.96 10.81 L 18.71 10.81 L 18.71 17.79 L 29.67 17.79 L 29.67 10.81 L 27.75 10.81 L 27.75 8.26 C 27.75 6.5 26.16 5.15 24.36 5.15 Z M 24.36 5.85 C 25.77 5.85 27 6.89 27 8.26 L 27 10.81 L 21.71 10.81 L 21.71 8.26 C 21.71 7.16 22.6 5.85 24.36 5.85 Z M 24.19 13 C 24.61 13 24.95 13.32 24.95 13.71 C 24.95 13.99 24.77 14.25 24.49 14.36 L 24.49 16 L 23.89 16 L 23.89 14.36 C 23.61 14.25 23.43 13.99 23.43 13.71 C 23.43 13.32 23.77 13 24.19 13 Z" fill="#3c708a" stroke="none" pointer-events="all"/></g></g></svg>