<?xml version="1.0" encoding="UTF-8"?>
<!-- Do not edit this file with editors other than draw.io -->
<!DOCTYPE svg PUBLIC "-//W3C//DTD SVG 1.1//EN" "http://www.w3.org/Graphics/SVG/1.1/DTD/svg11.dtd">
<svg xmlns="http://www.w3.org/2000/svg" xmlns:xlink="http://www.w3.org/1999/xlink" version="1.1" width="51px" height="51px" viewBox="-0.5 -0.5 51 51" content="&lt;mxfile host=&quot;Electron&quot; modified=&quot;2024-05-27T21:38:17.007Z&quot; agent=&quot;Mozilla/5.0 (Windows NT 10.0; Win64; x64) AppleWebKit/537.36 (KHTML, like Gecko) draw.io/24.4.8 Chrome/124.0.6367.207 Electron/30.0.6 Safari/537.36&quot; version=&quot;24.4.8&quot; etag=&quot;EFomJspNngSLGD7PpTpU&quot; type=&quot;device&quot; scale=&quot;1&quot; border=&quot;0&quot;&gt;&#10;  &lt;diagram name=&quot;Page-1&quot; id=&quot;9JdVJnAiu5zPVV9Udyqm&quot;&gt;&#10;    &lt;mxGraphModel dx=&quot;519&quot; dy=&quot;352&quot; grid=&quot;1&quot; gridSize=&quot;10&quot; guides=&quot;1&quot; tooltips=&quot;1&quot; connect=&quot;1&quot; arrows=&quot;1&quot; fold=&quot;1&quot; page=&quot;1&quot; pageScale=&quot;1&quot; pageWidth=&quot;827&quot; pageHeight=&quot;1169&quot; math=&quot;0&quot; shadow=&quot;0&quot;&gt;&#10;      &lt;root&gt;&#10;        &lt;mxCell id=&quot;0&quot; /&gt;&#10;        &lt;mxCell id=&quot;1&quot; parent=&quot;0&quot; /&gt;&#10;        &lt;mxCell id=&quot;2&quot; value=&quot;&quot; style=&quot;sketch=0;points=[[0.5,0,0],[1,0.5,0],[0.5,1,0],[0,0.5,0],[0.145,0.145,0],[0.8555,0.145,0],[0.855,0.8555,0],[0.145,0.855,0]];verticalLabelPosition=bottom;html=1;verticalAlign=top;aspect=fixed;align=center;pointerEvents=1;shape=mxgraph.cisco19.rect;prIcon=vmanage;fillColor=#FFFFFF;strokeColor=#3C708A;&quot; vertex=&quot;1&quot; parent=&quot;1&quot;&gt;&#10;          &lt;mxGeometry x=&quot;90.5&quot; y=&quot;507.5&quot; width=&quot;50&quot; height=&quot;50&quot; as=&quot;geometry&quot; /&gt;&#10;        &lt;/mxCell&gt;&#10;      &lt;/root&gt;&#10;    &lt;/mxGraphModel&gt;&#10;  &lt;/diagram&gt;&#10;&lt;/mxfile&gt;&#10;"><defs/><g><g><ellipse cx="25.5" cy="25.5" rx="25" ry="25" fill="#ffffff" stroke="none" pointer-events="all"/><rect x="0.5" y="0.5" width="50" height="50" fill="none" stroke="none" pointer-events="all"/><path d="M 23.63 8.96 C 22.57 8.96 21.72 9.81 21.72 10.87 L 21.72 14.66 C 21.72 15.72 22.57 16.57 23.63 16.57 L 24.66 16.57 L 24.66 21.35 L 9.45 21.35 C 8.37 21.35 7.5 22.22 7.5 23.31 L 7.5 26.95 C 7.5 28.03 8.37 28.91 9.45 28.91 L 11.65 28.91 L 11.65 33.57 C 10.59 33.93 9.88 34.92 9.87 36.04 C 9.87 37.49 11.04 38.66 12.49 38.66 C 13.93 38.66 15.1 37.49 15.1 36.04 C 15.1 34.92 14.38 33.93 13.32 33.57 L 13.32 28.91 L 20.33 28.91 L 20.33 33.57 C 19.27 33.93 18.55 34.92 18.55 36.04 C 18.55 37.49 19.72 38.66 21.16 38.66 C 22.61 38.66 23.78 37.49 23.78 36.04 C 23.77 34.92 23.06 33.93 22 33.57 L 22 28.91 L 29 28.91 L 29 33.57 C 27.94 33.93 27.23 34.92 27.22 36.04 C 27.22 37.49 28.39 38.66 29.84 38.66 C 31.28 38.66 32.45 37.49 32.45 36.04 C 32.45 34.92 31.73 33.93 30.67 33.57 L 30.67 28.91 L 37.68 28.91 L 37.68 33.57 C 36.62 33.93 35.9 34.93 35.9 36.04 C 35.9 37.49 37.07 38.66 38.51 38.66 C 39.96 38.66 41.13 37.49 41.13 36.04 C 41.12 34.92 40.41 33.93 39.35 33.57 L 39.35 28.91 L 41.55 28.91 C 42.63 28.91 43.5 28.03 43.5 26.95 L 43.5 23.31 C 43.5 22.22 42.63 21.35 41.55 21.35 L 26.34 21.35 L 26.34 16.57 L 27.37 16.57 C 28.43 16.57 29.28 15.72 29.28 14.66 L 29.28 10.87 C 29.28 9.81 28.43 8.96 27.37 8.96 Z M 25.5 1.13 C 38.96 1.13 49.87 12.04 49.87 25.5 C 49.87 38.96 38.96 49.87 25.5 49.87 C 12.04 49.87 1.13 38.96 1.13 25.5 C 1.13 12.04 12.04 1.13 25.5 1.13 Z M 25.5 0.5 C 11.7 0.5 0.5 11.7 0.5 25.5 C 0.5 39.3 11.7 50.5 25.5 50.5 C 39.3 50.5 50.5 39.3 50.5 25.5 C 50.5 11.7 39.3 0.5 25.5 0.5 Z" fill="#3c708a" stroke="none" pointer-events="all"/></g></g></svg>