<?xml version="1.0" encoding="UTF-8"?>
<!-- Do not edit this file with editors other than draw.io -->
<!DOCTYPE svg PUBLIC "-//W3C//DTD SVG 1.1//EN" "http://www.w3.org/Graphics/SVG/1.1/DTD/svg11.dtd">
<svg xmlns="http://www.w3.org/2000/svg" xmlns:xlink="http://www.w3.org/1999/xlink" version="1.1" width="51px" height="51px" viewBox="-0.5 -0.5 51 51" content="&lt;mxfile host=&quot;Electron&quot; modified=&quot;2024-05-27T21:38:41.471Z&quot; agent=&quot;Mozilla/5.0 (Windows NT 10.0; Win64; x64) AppleWebKit/537.36 (KHTML, like Gecko) draw.io/24.4.8 Chrome/124.0.6367.207 Electron/30.0.6 Safari/537.36&quot; version=&quot;24.4.8&quot; etag=&quot;h3Dr07gf4hHsZKPVOJsN&quot; type=&quot;device&quot; scale=&quot;1&quot; border=&quot;0&quot;&gt;&#10;  &lt;diagram name=&quot;Page-1&quot; id=&quot;gp55KjQfUnTsLRbs1fCX&quot;&gt;&#10;    &lt;mxGraphModel dx=&quot;519&quot; dy=&quot;352&quot; grid=&quot;1&quot; gridSize=&quot;10&quot; guides=&quot;1&quot; tooltips=&quot;1&quot; connect=&quot;1&quot; arrows=&quot;1&quot; fold=&quot;1&quot; page=&quot;1&quot; pageScale=&quot;1&quot; pageWidth=&quot;827&quot; pageHeight=&quot;1169&quot; math=&quot;0&quot; shadow=&quot;0&quot;&gt;&#10;      &lt;root&gt;&#10;        &lt;mxCell id=&quot;0&quot; /&gt;&#10;        &lt;mxCell id=&quot;1&quot; parent=&quot;0&quot; /&gt;&#10;        &lt;mxCell id=&quot;2&quot; value=&quot;&quot; style=&quot;sketch=0;points=[[0.5,0,0],[1,0.5,0],[0.5,1,0],[0,0.5,0],[0.145,0.145,0],[0.8555,0.145,0],[0.855,0.8555,0],[0.145,0.855,0]];verticalLabelPosition=bottom;html=1;verticalAlign=top;aspect=fixed;align=center;pointerEvents=1;shape=mxgraph.cisco19.rect;prIcon=vsmart;fillColor=default;strokeColor=#00994D;&quot; vertex=&quot;1&quot; parent=&quot;1&quot;&gt;&#10;          &lt;mxGeometry x=&quot;10&quot; y=&quot;471&quot; width=&quot;50&quot; height=&quot;50&quot; as=&quot;geometry&quot; /&gt;&#10;        &lt;/mxCell&gt;&#10;      &lt;/root&gt;&#10;    &lt;/mxGraphModel&gt;&#10;  &lt;/diagram&gt;&#10;&lt;/mxfile&gt;&#10;"><defs/><g><g><ellipse cx="25" cy="25" rx="25" ry="25" fill="rgb(255, 255, 255)" stroke="none" pointer-events="all"/><rect x="0" y="0" width="50" height="50" fill="none" stroke="none" pointer-events="all"/><path d="M 25 6.1 C 22.98 6.1 21.34 7.74 21.34 9.77 C 21.34 11.43 22.46 12.89 24.08 13.31 L 24.08 18.86 C 21.78 19.17 19.8 20.62 18.79 22.71 L 13.3 20.9 C 13.41 19.23 12.38 17.71 10.8 17.18 C 9.88 16.88 8.87 16.95 8 17.39 C 7.13 17.83 6.48 18.59 6.17 19.51 C 5.54 21.43 6.58 23.51 8.5 24.14 C 10.15 24.69 11.96 23.99 12.83 22.48 L 18.26 24.27 C 18.16 24.73 18.11 25.2 18.11 25.68 C 18.12 27.74 19.05 29.7 20.65 31 L 17.16 35.17 C 15.65 34.46 13.86 34.85 12.79 36.13 C 12.16 36.87 11.86 37.83 11.95 38.8 C 12.03 39.77 12.5 40.66 13.25 41.29 C 13.99 41.91 14.95 42.21 15.92 42.13 C 16.89 42.04 17.78 41.57 18.41 40.83 C 19.52 39.49 19.54 37.55 18.45 36.19 L 22.05 31.89 C 22.97 32.33 23.98 32.56 25 32.56 C 26.02 32.56 27.03 32.33 27.95 31.89 L 31.55 36.19 C 30.46 37.55 30.48 39.49 31.59 40.83 C 32.22 41.57 33.11 42.04 34.08 42.13 C 35.05 42.21 36.01 41.91 36.75 41.29 C 37.5 40.66 37.97 39.77 38.05 38.8 C 38.14 37.83 37.84 36.87 37.21 36.13 C 36.14 34.85 34.34 34.46 32.84 35.17 L 29.35 31 C 30.95 29.7 31.88 27.74 31.89 25.68 C 31.88 25.2 31.83 24.73 31.73 24.27 L 37.17 22.48 C 38.04 23.99 39.84 24.68 41.5 24.14 C 42.42 23.84 43.19 23.18 43.62 22.31 C 44.06 21.44 44.13 20.44 43.83 19.51 C 43.52 18.59 42.87 17.83 42 17.39 C 41.13 16.95 40.12 16.88 39.2 17.18 C 37.62 17.71 36.59 19.23 36.7 20.9 L 31.21 22.71 C 30.18 20.55 28.1 19.08 25.72 18.83 L 25.72 13.35 C 27.43 13.01 28.66 11.51 28.66 9.77 C 28.66 8.8 28.28 7.86 27.59 7.18 C 26.9 6.49 25.97 6.1 25 6.1 Z M 25 0.63 C 38.46 0.63 49.37 11.54 49.37 25 C 49.37 38.46 38.46 49.37 25 49.37 C 11.54 49.37 0.63 38.46 0.63 25 C 0.63 11.54 11.54 0.63 25 0.63 Z M 25 0 C 11.2 0 0 11.2 0 25 C 0 38.8 11.2 50 25 50 C 38.8 50 50 38.8 50 25 C 50 11.2 38.8 0 25 0 Z" fill="#00994d" stroke="none" pointer-events="all"/></g></g></svg>