<?xml version="1.0" encoding="UTF-8"?>
<!-- Do not edit this file with editors other than draw.io -->
<!DOCTYPE svg PUBLIC "-//W3C//DTD SVG 1.1//EN" "http://www.w3.org/Graphics/SVG/1.1/DTD/svg11.dtd">
<svg xmlns="http://www.w3.org/2000/svg" xmlns:xlink="http://www.w3.org/1999/xlink" version="1.1" width="51px" height="51px" viewBox="-0.5 -0.5 51 51" content="&lt;mxfile host=&quot;Electron&quot; modified=&quot;2024-05-27T21:13:55.396Z&quot; agent=&quot;Mozilla/5.0 (Windows NT 10.0; Win64; x64) AppleWebKit/537.36 (KHTML, like Gecko) draw.io/24.4.8 Chrome/124.0.6367.207 Electron/30.0.6 Safari/537.36&quot; version=&quot;24.4.8&quot; etag=&quot;_oGcRpFxdDtNlM_3ZXa4&quot; type=&quot;device&quot; scale=&quot;1&quot; border=&quot;0&quot;&gt;&#10;  &lt;diagram name=&quot;Page-1&quot; id=&quot;PyIu57TTQzeRo6ok4ok1&quot;&gt;&#10;    &lt;mxGraphModel dx=&quot;519&quot; dy=&quot;352&quot; grid=&quot;1&quot; gridSize=&quot;10&quot; guides=&quot;1&quot; tooltips=&quot;1&quot; connect=&quot;1&quot; arrows=&quot;1&quot; fold=&quot;1&quot; page=&quot;1&quot; pageScale=&quot;1&quot; pageWidth=&quot;827&quot; pageHeight=&quot;1169&quot; math=&quot;0&quot; shadow=&quot;0&quot;&gt;&#10;      &lt;root&gt;&#10;        &lt;mxCell id=&quot;0&quot; /&gt;&#10;        &lt;mxCell id=&quot;1&quot; parent=&quot;0&quot; /&gt;&#10;        &lt;mxCell id=&quot;2&quot; value=&quot;&quot; style=&quot;sketch=0;points=[[0.5,0,0],[1,0.5,0],[0.5,1,0],[0,0.5,0],[0.145,0.145,0],[0.8555,0.145,0],[0.855,0.8555,0],[0.145,0.855,0]];verticalLabelPosition=bottom;html=1;verticalAlign=top;aspect=fixed;align=center;pointerEvents=1;shape=mxgraph.cisco19.rect;prIcon=router_with_firewall;fillColor=#FAFAFA;strokeColor=#3C708A;&quot; vertex=&quot;1&quot; parent=&quot;1&quot;&gt;&#10;          &lt;mxGeometry x=&quot;457&quot; y=&quot;787.5&quot; width=&quot;50&quot; height=&quot;50&quot; as=&quot;geometry&quot; /&gt;&#10;        &lt;/mxCell&gt;&#10;      &lt;/root&gt;&#10;    &lt;/mxGraphModel&gt;&#10;  &lt;/diagram&gt;&#10;&lt;/mxfile&gt;&#10;"><defs/><g><g><ellipse cx="25" cy="25.5" rx="25" ry="25" fill="#fafafa" stroke="none" pointer-events="all"/><rect x="0" y="0.5" width="50" height="50" fill="none" stroke="none" pointer-events="all"/><path d="M 8.78 6.83 L 13.55 6.83 L 13.55 13.1 L 3.68 13.1 L 2.45 15.49 L 2.45 20.81 L 0.79 20.81 L 0.52 22.33 L 13.55 22.33 L 13.55 28.54 L 0.57 28.54 L 0.78 30.06 L 2.45 30.06 L 2.45 35.47 L 3.61 37.85 L 13.55 37.85 L 13.55 44.19 L 9.02 44.19 L 10.98 45.71 L 38.93 45.71 L 41.03 44.19 L 37.3 44.19 L 37.3 37.85 L 46.32 37.85 L 48.42 33.19 L 48.42 30.06 L 49.1 30.06 L 49.43 28.54 L 37.3 28.54 L 37.3 22.33 L 49.38 22.33 L 49.11 20.81 L 48.42 20.81 L 48.42 17.66 L 46.41 13.1 L 37.3 13.1 L 37.3 6.83 L 41.13 6.83 L 39.16 5.31 L 10.75 5.31 Z M 15.07 6.83 L 35.78 6.83 L 35.78 13.1 L 15.07 13.1 Z M 3.97 14.62 L 24.67 14.62 L 24.67 20.81 L 3.97 20.81 Z M 26.2 14.62 L 46.9 14.62 L 46.9 20.81 L 26.2 20.81 Z M 15.07 22.33 L 35.78 22.33 L 35.78 28.54 L 15.07 28.54 Z M 3.97 30.06 L 24.67 30.06 L 24.67 36.33 L 3.97 36.33 Z M 26.2 30.06 L 46.9 30.06 L 46.9 36.33 L 26.2 36.33 Z M 15.07 37.85 L 35.78 37.85 L 35.78 44.19 L 15.07 44.19 Z" fill="#3c708a" stroke="none" pointer-events="all"/><path d="M 8.78 6.83 L 13.55 6.83 L 13.55 13.1 L 3.68 13.1 L 2.45 15.49 L 2.45 20.81 L 0.79 20.81 L 0.52 22.33 L 13.55 22.33 L 13.55 28.54 L 0.57 28.54 L 0.78 30.06 L 2.45 30.06 L 2.45 35.47 L 3.61 37.85 L 13.55 37.85 L 13.55 44.19 L 9.02 44.19 L 10.98 45.71 L 38.93 45.71 L 41.03 44.19 L 37.3 44.19 L 37.3 37.85 L 46.32 37.85 L 48.42 33.19 L 48.42 30.06 L 49.1 30.06 L 49.43 28.54 L 37.3 28.54 L 37.3 22.33 L 49.38 22.33 L 49.11 20.81 L 48.42 20.81 L 48.42 17.66 L 46.41 13.1 L 37.3 13.1 L 37.3 6.83 L 41.13 6.83 L 39.16 5.31 L 10.75 5.31 Z M 15.07 6.83 L 35.78 6.83 L 35.78 13.1 L 15.07 13.1 Z M 3.97 14.62 L 24.67 14.62 L 24.67 20.81 L 3.97 20.81 Z M 26.2 14.62 L 46.9 14.62 L 46.9 20.81 L 26.2 20.81 Z M 15.07 22.33 L 35.78 22.33 L 35.78 28.54 L 15.07 28.54 Z M 3.97 30.06 L 24.67 30.06 L 24.67 36.33 L 3.97 36.33 Z M 26.2 30.06 L 46.9 30.06 L 46.9 36.33 L 26.2 36.33 Z M 15.07 37.85 L 35.78 37.85 L 35.78 44.19 L 15.07 44.19 Z" fill-opacity="0.5" fill="#ffffff" stroke="none" pointer-events="all"/><rect x="0" y="0.5" width="0" height="0" fill="none" stroke="#3c708a" pointer-events="all"/><path d="M 38.34 41.24 L 31.96 34.97 L 29.36 37.62 L 27.37 28.06 L 36.99 29.84 L 34.41 32.46 L 40.8 38.73 Z M 24.01 29.08 L 17.75 35.47 L 20.4 38.07 L 10.84 40.05 L 12.61 30.43 L 15.24 33.01 L 21.5 26.62 Z M 11.95 10.04 L 18.34 16.31 L 20.94 13.66 L 22.93 23.22 L 13.31 21.44 L 15.88 18.82 L 9.49 12.55 Z M 26.02 22.13 L 32.29 15.74 L 29.64 13.14 L 39.19 11.15 L 37.42 20.77 L 34.79 18.2 L 28.53 24.59 Z M 25 0.5 C 11.2 0.5 0 11.7 0 25.5 C 0 39.3 11.2 50.5 25 50.5 C 38.8 50.5 50 39.3 50 25.5 C 50 11.7 38.8 0.5 25 0.5 Z M 25 1.13 C 38.46 1.13 49.37 12.04 49.37 25.5 C 49.37 38.96 38.46 49.87 25 49.87 C 11.54 49.87 0.63 38.96 0.63 25.5 C 0.63 12.04 11.54 1.13 25 1.13 Z" fill="#3c708a" stroke="none" pointer-events="all"/></g></g></svg>