<?xml version="1.0" encoding="UTF-8"?>
<!-- Do not edit this file with editors other than draw.io -->
<!DOCTYPE svg PUBLIC "-//W3C//DTD SVG 1.1//EN" "http://www.w3.org/Graphics/SVG/1.1/DTD/svg11.dtd">
<svg xmlns="http://www.w3.org/2000/svg" xmlns:xlink="http://www.w3.org/1999/xlink" version="1.1" width="51px" height="51px" viewBox="-0.5 -0.5 51 51" content="&lt;mxfile host=&quot;Electron&quot; modified=&quot;2024-05-27T08:23:34.515Z&quot; agent=&quot;Mozilla/5.0 (Windows NT 10.0; Win64; x64) AppleWebKit/537.36 (KHTML, like Gecko) draw.io/24.4.8 Chrome/124.0.6367.207 Electron/30.0.6 Safari/537.36&quot; version=&quot;24.4.8&quot; etag=&quot;W0xVw_YdprdZ5zqJ_YpA&quot; type=&quot;device&quot; scale=&quot;1&quot; border=&quot;0&quot;&gt;&#10;  &lt;diagram name=&quot;Page-1&quot; id=&quot;BaLd6ucCT4xyU8Mj5Gb0&quot;&gt;&#10;    &lt;mxGraphModel dx=&quot;519&quot; dy=&quot;352&quot; grid=&quot;1&quot; gridSize=&quot;10&quot; guides=&quot;1&quot; tooltips=&quot;1&quot; connect=&quot;1&quot; arrows=&quot;1&quot; fold=&quot;1&quot; page=&quot;1&quot; pageScale=&quot;1&quot; pageWidth=&quot;827&quot; pageHeight=&quot;1169&quot; math=&quot;0&quot; shadow=&quot;0&quot;&gt;&#10;      &lt;root&gt;&#10;        &lt;mxCell id=&quot;0&quot; /&gt;&#10;        &lt;mxCell id=&quot;1&quot; parent=&quot;0&quot; /&gt;&#10;        &lt;mxCell id=&quot;2&quot; value=&quot;&quot; style=&quot;points=[[0.5,0,0],[1,0.5,0],[0.5,1,0],[0,0.5,0],[0.305,0.305,0],[0.695,0.305,0],[0.7,0.7,0],[0.3,0.7,0]];verticalLabelPosition=bottom;sketch=0;html=1;verticalAlign=top;aspect=fixed;align=center;pointerEvents=1;shape=mxgraph.cisco19.rect;prIcon=aci;fillColor=#FAFAFA;strokeColor=#3C708A;&quot; vertex=&quot;1&quot; parent=&quot;1&quot;&gt;&#10;          &lt;mxGeometry x=&quot;313&quot; y=&quot;780&quot; width=&quot;50&quot; height=&quot;50&quot; as=&quot;geometry&quot; /&gt;&#10;        &lt;/mxCell&gt;&#10;      &lt;/root&gt;&#10;    &lt;/mxGraphModel&gt;&#10;  &lt;/diagram&gt;&#10;&lt;/mxfile&gt;&#10;"><defs/><g><g><rect x="9.75" y="9.75" width="30.5" height="30.5" fill="none" stroke="none" pointer-events="all"/><path d="M 29.07 9.75 L 40.25 20.95 C 38.87 22.24 38.5 23.77 38.43 25.37 C 38.63 27.2 39.28 28.48 40.25 29.36 L 29.47 40.25 C 28.71 39.24 27.44 38.19 25.39 37.88 C 23.01 37.96 21.62 38.96 20.54 40.25 L 9.75 29.43 C 10.68 28.37 11.5 27.18 11.57 25.24 C 11.55 23.79 11.23 22.33 9.75 20.88 L 20.87 9.75 C 21.98 10.91 23.34 11.5 24.92 11.56 C 26.6 11.59 27.94 10.89 29.07 9.75 Z" fill="#fafafa" stroke="none" pointer-events="all"/><rect x="0" y="0" width="50" height="50" fill="none" stroke="none" pointer-events="all"/><path d="M 24.99 0 C 21.71 0 19.03 2.71 19.03 6.05 C 19.03 7.54 19.57 8.91 20.45 9.96 L 9.79 20.77 C 8.75 19.89 7.42 19.35 5.96 19.35 C 2.67 19.35 0 22.07 0 25.41 C 0 28.75 2.67 31.46 5.96 31.46 C 7.41 31.46 8.73 30.94 9.77 30.06 L 20.09 40.51 C 19.43 41.48 19.03 42.67 19.03 43.95 C 19.03 47.29 21.71 50 24.99 50 C 28.28 50 30.96 47.29 30.96 43.95 C 30.96 42.67 30.56 41.49 29.9 40.51 L 40.21 30.04 C 41.24 30.93 42.58 31.46 44.04 31.46 C 47.33 31.46 50 28.75 50 25.41 C 50 22.07 47.33 19.35 44.04 19.35 C 42.58 19.35 41.24 19.89 40.2 20.78 L 29.54 9.96 C 30.42 8.91 30.95 7.54 30.95 6.05 C 30.95 2.71 28.28 0 24.99 0 Z M 24.99 0.67 C 27.93 0.67 30.3 3.08 30.3 6.05 C 30.3 9.03 27.93 11.44 24.99 11.44 C 22.06 11.44 19.69 9.03 19.69 6.05 C 19.69 3.08 22.06 0.67 24.99 0.67 Z M 24.98 3.31 C 24.06 3.31 23.3 4.03 23.3 4.91 C 23.3 5.6 23.74 6.07 24.2 6.42 C 22.9 6.81 22.18 7.87 22.18 9.01 L 27.76 9.02 C 27.76 8.08 27.3 6.85 25.82 6.43 C 26.28 6.15 26.68 5.65 26.68 4.99 C 26.68 4.04 25.97 3.31 24.98 3.31 Z M 29.18 10.36 L 39.82 21.14 C 38.74 22.23 38.08 23.74 38.08 25.41 C 38.08 27.07 38.74 28.58 39.82 29.68 L 29.58 40.08 C 28.49 38.74 26.84 37.89 24.99 37.89 C 23.15 37.89 21.51 38.74 20.41 40.08 L 10.16 29.7 C 11.25 28.61 11.92 27.09 11.92 25.41 C 11.92 23.74 11.25 22.23 10.18 21.13 L 20.81 10.36 C 21.88 11.44 23.36 12.11 24.99 12.11 C 26.63 12.11 28.11 11.44 29.18 10.36 Z M 5.96 20.02 C 8.89 20.02 11.26 22.43 11.26 25.41 C 11.26 28.39 8.89 30.79 5.96 30.79 C 3.03 30.79 0.66 28.39 0.66 25.41 C 0.66 22.43 3.03 20.02 5.96 20.02 Z M 44.04 20.02 C 46.97 20.02 49.34 22.43 49.34 25.41 C 49.34 28.39 46.97 30.79 44.04 30.79 C 41.11 30.79 38.74 28.39 38.74 25.41 C 38.74 22.43 41.11 20.02 44.04 20.02 Z M 44.08 21.41 C 42.98 21.41 42.2 22.24 42.2 23.07 L 42.2 24.67 L 41.09 24.67 L 41.09 28.56 L 47.03 28.56 L 47.03 24.67 L 45.96 24.67 L 45.96 23.07 C 45.96 22.64 45.72 22.25 45.38 21.94 C 45.04 21.63 44.58 21.41 44.08 21.41 Z M 5.94 21.88 C 4.05 21.88 2.52 23.43 2.52 25.35 C 2.52 27.26 4.05 28.82 5.94 28.82 C 7.82 28.82 9.35 27.26 9.35 25.35 C 9.35 23.43 7.82 21.88 5.94 21.88 Z M 44.08 21.95 C 44.42 21.95 44.77 22.11 45.03 22.34 C 45.29 22.57 45.43 22.87 45.43 23.07 L 45.43 24.67 L 42.73 24.67 L 42.73 23.07 C 42.73 22.61 43.24 21.95 44.08 21.95 Z M 32.87 22.34 C 31.86 22.34 31.06 22.62 30.47 23.2 C 29.87 23.77 29.58 24.56 29.58 25.54 C 29.58 26.53 29.87 27.31 30.47 27.89 C 31.06 28.46 31.86 28.75 32.87 28.75 C 33.21 28.75 33.54 28.71 33.85 28.63 C 34.17 28.56 34.47 28.44 34.75 28.29 L 34.75 27.01 C 34.46 27.21 34.18 27.36 33.89 27.45 C 33.61 27.55 33.31 27.59 33 27.59 C 32.44 27.59 32 27.41 31.68 27.05 C 31.36 26.68 31.2 26.18 31.2 25.54 C 31.2 24.9 31.36 24.4 31.68 24.04 C 32 23.67 32.44 23.49 33 23.49 C 33.31 23.49 33.61 23.54 33.89 23.63 C 34.18 23.72 34.46 23.87 34.75 24.07 L 34.75 22.8 C 34.47 22.64 34.17 22.53 33.85 22.45 C 33.54 22.37 33.21 22.34 32.87 22.34 Z M 5.79 22.41 L 5.79 23.2 C 5.79 23.31 5.88 23.4 5.99 23.4 C 6.1 23.4 6.19 23.31 6.19 23.2 L 6.19 22.42 C 6.82 22.48 7.39 22.74 7.85 23.14 L 7.33 23.66 C 7.26 23.74 7.26 23.87 7.33 23.94 C 7.41 24.02 7.53 24.02 7.61 23.94 L 8.12 23.42 C 8.52 23.88 8.77 24.47 8.82 25.12 L 8.16 25.12 C 8.05 25.12 7.96 25.21 7.96 25.32 C 7.96 25.43 8.05 25.52 8.16 25.52 L 8.82 25.52 C 8.74 27.06 7.48 28.28 5.94 28.28 C 4.4 28.28 3.14 27.06 3.05 25.52 L 3.82 25.52 C 3.93 25.52 4.02 25.43 4.02 25.32 C 4.02 25.21 3.93 25.12 3.82 25.12 L 3.06 25.12 C 3.11 24.47 3.36 23.87 3.76 23.41 L 4.29 23.94 C 4.34 24 4.41 24.02 4.48 24 C 4.55 23.98 4.6 23.92 4.62 23.85 C 4.64 23.79 4.62 23.71 4.57 23.66 L 4.04 23.13 C 4.52 22.71 5.12 22.45 5.79 22.41 Z M 16.66 22.45 L 14.4 28.63 L 15.98 28.63 L 16.37 27.5 L 18.82 27.5 L 19.2 28.63 L 20.78 28.63 L 18.53 22.45 Z M 21.34 22.45 L 21.34 28.63 L 22.91 28.63 L 22.91 26.48 L 23.94 26.48 C 24.72 26.48 25.31 26.31 25.73 25.96 C 26.14 25.61 26.35 25.11 26.35 24.46 C 26.35 23.82 26.14 23.32 25.73 22.97 C 25.31 22.62 24.72 22.45 23.94 22.45 Z M 27.29 22.45 L 27.29 28.63 L 28.86 28.63 L 28.86 22.45 Z M 22.91 23.6 L 23.78 23.6 C 24.08 23.6 24.32 23.68 24.48 23.83 C 24.65 23.98 24.73 24.19 24.73 24.46 C 24.73 24.74 24.65 24.95 24.48 25.1 C 24.32 25.25 24.08 25.33 23.78 25.33 L 22.91 25.33 Z M 17.59 23.9 L 18.42 26.36 L 16.76 26.36 Z M 7.21 24.25 L 6.86 24.38 L 5.97 26.3 C 5.97 26.3 5.97 26.3 5.96 26.3 C 5.66 26.3 5.42 26.55 5.42 26.86 C 5.42 27.17 5.66 27.42 5.96 27.42 C 6.27 27.42 6.51 27.17 6.51 26.86 C 6.51 26.77 6.49 26.69 6.46 26.61 L 7.36 24.59 Z M 5.25 27 C 4.94 27.07 4.63 27.27 4.35 27.43 C 4.73 27.68 5.2 27.98 5.9 27.98 C 6.65 27.98 7.16 27.73 7.61 27.45 C 7.31 27.29 7.01 27.07 6.67 27 C 6.62 27.35 6.26 27.61 5.91 27.61 C 5.62 27.61 5.27 27.37 5.25 27 Z M 24.99 38.56 C 27.93 38.56 30.3 40.97 30.3 43.95 C 30.3 46.92 27.93 49.33 24.99 49.33 C 22.06 49.33 19.69 46.92 19.69 43.95 C 19.69 40.97 22.06 38.56 24.99 38.56 Z M 24.38 40.15 C 24.24 40.15 24.11 40.23 24.04 40.35 C 23.97 40.47 23.97 40.63 24.04 40.75 C 24.11 40.87 24.24 40.95 24.38 40.95 L 24.56 40.95 L 24.56 41.5 C 23.02 41.71 21.82 43.06 21.82 44.68 C 21.82 46.45 23.25 47.9 24.99 47.9 C 26.73 47.9 28.16 46.45 28.16 44.68 C 28.16 43.03 26.92 41.67 25.34 41.49 L 25.34 40.95 L 25.57 40.95 C 25.71 40.95 25.84 40.87 25.91 40.75 C 25.98 40.63 25.98 40.47 25.91 40.35 C 25.84 40.23 25.71 40.15 25.57 40.15 Z M 24.99 42.13 C 26.38 42.13 27.5 43.27 27.5 44.68 C 27.5 46.09 26.38 47.23 24.99 47.23 C 23.6 47.23 22.48 46.09 22.48 44.68 C 22.48 43.27 23.6 42.13 24.99 42.13 Z M 25.1 44.27 C 25 44.28 24.91 44.31 24.84 44.36 C 24.66 44.51 24.66 44.72 24.81 44.88 L 26.32 46.38 L 26.47 46.23 L 25.43 44.45 C 25.35 44.31 25.22 44.27 25.1 44.27 Z" fill="#3c708a" stroke="none" pointer-events="all"/></g></g></svg>