<?xml version="1.0" encoding="UTF-8"?>
<!-- Do not edit this file with editors other than draw.io -->
<!DOCTYPE svg PUBLIC "-//W3C//DTD SVG 1.1//EN" "http://www.w3.org/Graphics/SVG/1.1/DTD/svg11.dtd">
<svg xmlns="http://www.w3.org/2000/svg" xmlns:xlink="http://www.w3.org/1999/xlink" version="1.1" width="51px" height="51px" viewBox="-0.5 -0.5 51 51" content="&lt;mxfile host=&quot;Electron&quot; modified=&quot;2024-05-26T21:30:47.965Z&quot; agent=&quot;Mozilla/5.0 (Windows NT 10.0; Win64; x64) AppleWebKit/537.36 (KHTML, like Gecko) draw.io/24.4.8 Chrome/124.0.6367.207 Electron/30.0.6 Safari/537.36&quot; version=&quot;24.4.8&quot; etag=&quot;9Os2ig5ki2Xya9zQv7hh&quot; type=&quot;device&quot; scale=&quot;1&quot; border=&quot;0&quot;&gt;&#10;  &lt;diagram name=&quot;Page-1&quot; id=&quot;S68tRuLeNA_r-bn7PX-Q&quot;&gt;&#10;    &lt;mxGraphModel dx=&quot;692&quot; dy=&quot;469&quot; grid=&quot;1&quot; gridSize=&quot;10&quot; guides=&quot;1&quot; tooltips=&quot;1&quot; connect=&quot;1&quot; arrows=&quot;1&quot; fold=&quot;1&quot; page=&quot;1&quot; pageScale=&quot;1&quot; pageWidth=&quot;827&quot; pageHeight=&quot;1169&quot; math=&quot;0&quot; shadow=&quot;0&quot;&gt;&#10;      &lt;root&gt;&#10;        &lt;mxCell id=&quot;0&quot; /&gt;&#10;        &lt;mxCell id=&quot;1&quot; parent=&quot;0&quot; /&gt;&#10;        &lt;mxCell id=&quot;2&quot; value=&quot;&quot; style=&quot;sketch=0;points=[[0.015,0.015,0],[0.985,0.015,0],[0.985,0.985,0],[0.015,0.985,0],[0.25,0,0],[0.5,0,0],[0.75,0,0],[1,0.25,0],[1,0.5,0],[1,0.75,0],[0.75,1,0],[0.5,1,0],[0.25,1,0],[0,0.75,0],[0,0.5,0],[0,0.25,0]];verticalLabelPosition=bottom;html=1;verticalAlign=top;aspect=fixed;align=center;pointerEvents=1;shape=mxgraph.cisco19.rect;prIcon=unity;fillColor=#FAFAFA;strokeColor=#3C708A;&quot; vertex=&quot;1&quot; parent=&quot;1&quot;&gt;&#10;          &lt;mxGeometry x=&quot;700&quot; y=&quot;26.72&quot; width=&quot;50&quot; height=&quot;50&quot; as=&quot;geometry&quot; /&gt;&#10;        &lt;/mxCell&gt;&#10;      &lt;/root&gt;&#10;    &lt;/mxGraphModel&gt;&#10;  &lt;/diagram&gt;&#10;&lt;/mxfile&gt;&#10;"><defs/><g><g><rect x="0" y="-0.28" width="50" height="50" fill="none" stroke="none" pointer-events="all"/><path d="M 3.07 -0.28 C 1.38 -0.28 0 1.09 0 2.77 L 0 46.67 C 0 48.35 1.38 49.72 3.07 49.72 L 46.93 49.72 C 48.62 49.72 50 48.35 50 46.67 L 50 2.77 C 50 1.09 48.62 -0.28 46.93 -0.28 Z" fill="#fafafa" stroke="none" pointer-events="all"/><rect x="0" y="-0.28" width="50" height="50" fill="none" stroke="none" pointer-events="all"/><path d="M 24.73 12.86 C 31.33 12.86 36.67 18.16 36.67 24.73 C 36.67 31.3 31.33 36.61 24.73 36.61 C 18.13 36.61 12.8 31.3 12.8 24.73 C 12.8 18.16 18.13 12.86 24.73 12.86 Z M 20.74 20.02 L 20.74 26.93 C 20.74 28.16 21.22 29.22 21.99 29.89 C 22.76 30.57 23.76 30.86 24.73 30.86 C 25.76 30.86 26.78 30.54 27.57 29.87 C 28.36 29.19 28.88 28.14 28.88 26.93 L 28.88 20.02 L 26.78 20.02 L 26.78 26.93 C 26.78 27.58 26.56 27.98 26.2 28.28 C 25.84 28.59 25.31 28.78 24.73 28.78 C 24.18 28.78 23.69 28.61 23.38 28.33 C 23.06 28.05 22.83 27.66 22.83 26.93 L 22.83 20.02 Z M 3.07 -0.28 C 1.38 -0.28 0 1.09 0 2.77 L 0 46.67 C 0 48.35 1.38 49.72 3.07 49.72 L 46.93 49.72 C 48.62 49.72 50 48.35 50 46.67 L 50 2.77 C 50 1.09 48.62 -0.28 46.93 -0.28 Z M 3.07 1.1 L 46.93 1.1 C 47.88 1.1 48.62 1.83 48.62 2.77 L 48.62 46.67 C 48.62 47.61 47.88 48.34 46.93 48.34 L 3.07 48.34 C 2.12 48.34 1.38 47.61 1.38 46.67 L 1.38 2.77 C 1.38 1.83 2.12 1.1 3.07 1.1 Z M 11.92 5.93 L 7.88 11.01 L 15.96 11.01 Z M 38.81 7.88 L 38.81 15.92 L 43.91 11.9 Z M 24.74 11.07 L 24.74 11.08 C 24.73 11.08 24.73 11.08 24.73 11.08 C 19.59 11.08 15.11 13.91 12.76 18.09 L 12.76 11.62 L 11.09 11.62 L 11.09 23.36 C 11.04 23.81 11.02 24.27 11.02 24.73 C 11.02 29.88 13.9 34.37 18.13 36.69 L 11.54 36.69 L 11.54 38.36 L 23.9 38.36 C 24.17 38.37 24.45 38.38 24.73 38.38 C 29.92 38.38 34.43 35.51 36.76 31.28 L 36.76 37.86 L 38.43 37.86 L 38.43 25.33 C 38.44 25.13 38.45 24.93 38.45 24.73 C 38.45 19.56 35.54 15.05 31.27 12.73 L 38.19 12.73 L 38.19 11.07 Z M 10.93 33.5 L 5.82 37.53 L 10.93 41.55 Z M 33.56 38.47 L 37.6 43.55 L 41.64 38.47 Z" fill="#3c708a" stroke="none" pointer-events="all"/></g></g></svg>