<?xml version="1.0" encoding="UTF-8"?>
<!-- Do not edit this file with editors other than draw.io -->
<!DOCTYPE svg PUBLIC "-//W3C//DTD SVG 1.1//EN" "http://www.w3.org/Graphics/SVG/1.1/DTD/svg11.dtd">
<svg xmlns="http://www.w3.org/2000/svg" xmlns:xlink="http://www.w3.org/1999/xlink" version="1.1" width="59px" height="46px" viewBox="-0.5 -0.5 59 46" content="&lt;mxfile host=&quot;Electron&quot; modified=&quot;2024-05-26T22:36:48.968Z&quot; agent=&quot;Mozilla/5.0 (Windows NT 10.0; Win64; x64) AppleWebKit/537.36 (KHTML, like Gecko) draw.io/24.4.8 Chrome/124.0.6367.207 Electron/30.0.6 Safari/537.36&quot; version=&quot;24.4.8&quot; etag=&quot;g-glWcAXJsThqivD0GyK&quot; type=&quot;device&quot; scale=&quot;1&quot; border=&quot;0&quot;&gt;&#10;  &lt;diagram name=&quot;Page-1&quot; id=&quot;F79V-4HGgoWq2JLqMsHl&quot;&gt;&#10;    &lt;mxGraphModel dx=&quot;1038&quot; dy=&quot;704&quot; grid=&quot;1&quot; gridSize=&quot;10&quot; guides=&quot;1&quot; tooltips=&quot;1&quot; connect=&quot;1&quot; arrows=&quot;1&quot; fold=&quot;1&quot; page=&quot;1&quot; pageScale=&quot;1&quot; pageWidth=&quot;827&quot; pageHeight=&quot;1169&quot; math=&quot;0&quot; shadow=&quot;0&quot;&gt;&#10;      &lt;root&gt;&#10;        &lt;mxCell id=&quot;0&quot; /&gt;&#10;        &lt;mxCell id=&quot;1&quot; parent=&quot;0&quot; /&gt;&#10;        &lt;mxCell id=&quot;2&quot; value=&quot;&quot; style=&quot;sketch=0;points=[[0.015,0.015,0],[0.985,0.015,0],[0.985,0.985,0],[0.015,0.985,0],[0.25,0,0],[0.5,0,0],[0.75,0,0],[1,0.25,0],[1,0.5,0],[1,0.75,0],[0.75,1,0],[0.5,1,0],[0.25,1,0],[0,0.75,0],[0,0.5,0],[0,0.25,0]];verticalLabelPosition=bottom;html=1;verticalAlign=top;aspect=fixed;align=center;pointerEvents=1;shape=mxgraph.cisco19.rect;prIcon=cisco_unified_contact_center_enterprise_and_hosted;fillColor=#FAFAFA;strokeColor=#3C708A;&quot; vertex=&quot;1&quot; parent=&quot;1&quot;&gt;&#10;          &lt;mxGeometry x=&quot;300&quot; y=&quot;990&quot; width=&quot;57.6&quot; height=&quot;45&quot; as=&quot;geometry&quot; /&gt;&#10;        &lt;/mxCell&gt;&#10;      &lt;/root&gt;&#10;    &lt;/mxGraphModel&gt;&#10;  &lt;/diagram&gt;&#10;&lt;/mxfile&gt;&#10;"><defs/><g><g><rect x="0" y="0" width="57.6" height="45" fill="none" stroke="none" pointer-events="all"/><path d="M 2.72 0 C 1.22 0 0 1.24 0 2.75 L 0 42.25 C 0 43.76 1.22 45 2.72 45 L 54.88 45 C 56.37 45 57.6 43.76 57.6 42.25 L 57.6 2.75 C 57.6 1.24 56.37 0 54.88 0 Z" fill="#fafafa" stroke="none" pointer-events="all"/><rect x="0" y="0" width="57.6" height="45" fill="none" stroke="none" pointer-events="all"/><path d="M 33.63 17.47 C 32.77 17.47 31.99 17.67 31.28 18.06 C 30.57 18.45 30.02 19.03 29.64 19.79 C 29.25 20.54 29.06 21.43 29.06 22.45 C 29.06 23.38 29.23 24.25 29.57 25.07 C 29.91 25.88 30.41 26.5 31.06 26.93 C 31.72 27.36 32.56 27.57 33.61 27.57 C 34.61 27.57 35.46 27.29 36.16 26.74 C 36.86 26.18 37.34 25.37 37.61 24.31 L 36.33 23.98 C 36.15 24.8 35.82 25.42 35.32 25.84 C 34.82 26.26 34.22 26.47 33.5 26.47 C 32.91 26.47 32.36 26.31 31.86 26.01 C 31.35 25.7 30.98 25.24 30.74 24.62 C 30.5 24 30.38 23.27 30.38 22.44 C 30.38 21.8 30.48 21.17 30.68 20.57 C 30.89 19.96 31.24 19.47 31.73 19.11 C 32.23 18.75 32.86 18.57 33.6 18.57 C 34.25 18.57 34.78 18.74 35.21 19.06 C 35.64 19.38 35.96 19.9 36.19 20.61 L 37.45 20.31 C 37.19 19.41 36.73 18.71 36.07 18.21 C 35.41 17.72 34.59 17.47 33.63 17.47 Z M 23.86 17.47 C 23.01 17.47 22.23 17.67 21.52 18.06 C 20.81 18.45 20.26 19.03 19.87 19.79 C 19.49 20.54 19.3 21.43 19.3 22.45 C 19.3 23.38 19.47 24.25 19.81 25.07 C 20.15 25.88 20.65 26.5 21.3 26.93 C 21.95 27.36 22.8 27.57 23.84 27.57 C 24.85 27.57 25.7 27.29 26.4 26.74 C 27.1 26.18 27.58 25.37 27.85 24.31 L 26.57 23.98 C 26.39 24.8 26.06 25.42 25.56 25.84 C 25.06 26.26 24.46 26.47 23.74 26.47 C 23.15 26.47 22.6 26.31 22.1 26.01 C 21.59 25.7 21.22 25.24 20.97 24.62 C 20.74 24 20.62 23.27 20.62 22.44 C 20.62 21.8 20.72 21.17 20.92 20.57 C 21.12 19.96 21.47 19.47 21.97 19.11 C 22.47 18.75 23.09 18.57 23.84 18.57 C 24.48 18.57 25.02 18.74 25.45 19.06 C 25.87 19.38 26.2 19.9 26.42 20.61 L 27.68 20.31 C 27.42 19.41 26.96 18.71 26.3 18.21 C 25.64 17.72 24.83 17.47 23.86 17.47 Z M 28.42 9.98 C 35.3 9.98 40.86 15.6 40.86 22.55 C 40.86 29.51 35.3 35.12 28.42 35.12 C 21.54 35.12 15.98 29.51 15.98 22.55 C 15.98 15.6 21.54 9.98 28.42 9.98 Z M 2.72 1.24 L 54.88 1.24 C 55.72 1.24 56.37 1.9 56.37 2.75 L 56.37 42.25 C 56.37 43.1 55.72 43.76 54.88 43.76 L 2.72 43.76 C 1.88 43.76 1.23 43.1 1.23 42.25 L 1.23 2.75 C 1.23 1.9 1.88 1.24 2.72 1.24 Z M 2.72 0 C 1.22 0 0 1.24 0 2.75 L 0 42.25 C 0 43.76 1.22 45 2.72 45 L 54.88 45 C 56.38 45 57.6 43.76 57.6 42.25 L 57.6 2.75 C 57.6 1.24 56.38 0 54.88 0 Z M 37.62 37.09 L 41.83 42.47 L 46.05 37.09 Z M 14.03 31.84 L 8.71 36.09 L 14.03 40.35 Z M 28.42 8.09 L 28.42 8.11 C 28.42 8.11 28.42 8.11 28.42 8.11 C 23.06 8.11 18.38 11.1 15.94 15.52 L 15.94 8.68 L 14.2 8.68 L 14.2 21.11 C 14.15 21.58 14.12 22.06 14.12 22.55 C 14.12 28 17.12 32.75 21.54 35.21 L 14.67 35.21 L 14.67 36.97 L 27.55 36.97 C 27.84 36.99 28.13 37 28.42 37 C 33.82 37 38.53 33.96 40.96 29.48 L 40.96 36.44 L 42.7 36.44 L 42.7 23.19 C 42.71 22.98 42.72 22.77 42.72 22.55 C 42.72 17.08 39.69 12.3 35.23 9.85 L 42.45 9.85 L 42.45 8.09 Z M 43.09 4.72 L 43.09 13.23 L 48.42 8.97 Z M 15.07 2.65 L 10.85 8.03 L 19.28 8.03 Z" fill="#3c708a" stroke="none" pointer-events="all"/></g></g></svg>