<?xml version="1.0" encoding="UTF-8"?>
<!-- Do not edit this file with editors other than draw.io -->
<!DOCTYPE svg PUBLIC "-//W3C//DTD SVG 1.1//EN" "http://www.w3.org/Graphics/SVG/1.1/DTD/svg11.dtd">
<svg xmlns="http://www.w3.org/2000/svg" xmlns:xlink="http://www.w3.org/1999/xlink" version="1.1" width="59px" height="46px" viewBox="-0.5 -0.5 59 46" content="&lt;mxfile host=&quot;Electron&quot; modified=&quot;2024-05-26T22:32:29.601Z&quot; agent=&quot;Mozilla/5.0 (Windows NT 10.0; Win64; x64) AppleWebKit/537.36 (KHTML, like Gecko) draw.io/24.4.8 Chrome/124.0.6367.207 Electron/30.0.6 Safari/537.36&quot; version=&quot;24.4.8&quot; etag=&quot;cGzlS8OWNPZNvEac1bDU&quot; type=&quot;device&quot; scale=&quot;1&quot; border=&quot;0&quot;&gt;&#10;  &lt;diagram name=&quot;Page-1&quot; id=&quot;3_ZZ6-eo_VAInn7rcPpA&quot;&gt;&#10;    &lt;mxGraphModel dx=&quot;1038&quot; dy=&quot;704&quot; grid=&quot;1&quot; gridSize=&quot;10&quot; guides=&quot;1&quot; tooltips=&quot;1&quot; connect=&quot;1&quot; arrows=&quot;1&quot; fold=&quot;1&quot; page=&quot;1&quot; pageScale=&quot;1&quot; pageWidth=&quot;827&quot; pageHeight=&quot;1169&quot; math=&quot;0&quot; shadow=&quot;0&quot;&gt;&#10;      &lt;root&gt;&#10;        &lt;mxCell id=&quot;0&quot; /&gt;&#10;        &lt;mxCell id=&quot;1&quot; parent=&quot;0&quot; /&gt;&#10;        &lt;mxCell id=&quot;2&quot; value=&quot;&quot; style=&quot;sketch=0;points=[[0.015,0.015,0],[0.985,0.015,0],[0.985,0.985,0],[0.015,0.985,0],[0.25,0,0],[0.5,0,0],[0.75,0,0],[1,0.25,0],[1,0.5,0],[1,0.75,0],[0.75,1,0],[0.5,1,0],[0.25,1,0],[0,0.75,0],[0,0.5,0],[0,0.25,0]];verticalLabelPosition=bottom;html=1;verticalAlign=top;aspect=fixed;align=center;pointerEvents=1;shape=mxgraph.cisco19.rect;prIcon=cisco_meetingplace_express;fillColor=#FAFAFA;strokeColor=#3C708A;&quot; vertex=&quot;1&quot; parent=&quot;1&quot;&gt;&#10;          &lt;mxGeometry x=&quot;412&quot; y=&quot;990&quot; width=&quot;57.6&quot; height=&quot;45&quot; as=&quot;geometry&quot; /&gt;&#10;        &lt;/mxCell&gt;&#10;      &lt;/root&gt;&#10;    &lt;/mxGraphModel&gt;&#10;  &lt;/diagram&gt;&#10;&lt;/mxfile&gt;&#10;"><defs/><g><g><rect x="0" y="0" width="57.6" height="45" fill="none" stroke="none" pointer-events="all"/><path d="M 3.53 0 C 1.59 0 0 1.24 0 2.75 L 0 42.25 C 0 43.76 1.59 45 3.53 45 L 54.07 45 C 56.01 45 57.6 43.76 57.6 42.25 L 57.6 2.75 C 57.6 1.24 56.01 0 54.07 0 Z" fill="#fafafa" stroke="none" pointer-events="all"/><rect x="0" y="0" width="57.6" height="45" fill="none" stroke="none" pointer-events="all"/><path d="M 20.83 6.06 L 36.94 6.06 C 37.46 6.06 37.88 6.48 37.88 7.01 L 37.88 13.22 L 19.89 13.21 L 19.89 7.01 C 19.89 6.48 20.3 6.06 20.83 6.06 Z M 37.88 28.26 L 19.89 28.25 L 19.89 16.05 L 37.88 16.05 Z M 28.8 17.43 C 27.68 17.43 26.76 18.35 26.76 19.49 C 26.76 20.62 27.68 21.55 28.8 21.55 C 29.92 21.55 30.84 20.62 30.84 19.49 C 30.84 18.35 29.92 17.43 28.8 17.43 Z M 28.45 18.05 L 28.45 19.56 C 28.45 20.03 29.15 20.03 29.15 19.56 L 29.15 18.05 C 29.79 18.21 30.26 18.79 30.26 19.49 C 30.26 20.31 29.61 20.96 28.8 20.96 C 27.99 20.96 27.34 20.31 27.34 19.49 C 27.34 18.79 27.81 18.21 28.45 18.05 Z M 37.88 30.66 L 37.88 33.79 L 19.89 33.76 L 19.89 30.67 Z M 19.89 36.16 L 37.88 36.17 L 37.88 38.63 C 37.88 39.17 37.46 39.58 36.94 39.58 L 20.83 39.58 C 20.3 39.58 19.89 39.17 19.89 38.63 Z M 2.72 1.24 L 54.88 1.24 C 55.72 1.24 56.37 1.9 56.37 2.75 L 56.37 42.25 C 56.37 43.1 55.72 43.76 54.88 43.76 L 2.72 43.76 C 1.88 43.76 1.23 43.1 1.23 42.25 L 1.23 2.75 C 1.23 1.9 1.88 1.24 2.72 1.24 Z M 2.72 0 C 1.22 0 0 1.24 0 2.75 L 0 42.25 C 0 43.76 1.22 45 2.72 45 L 54.88 45 C 56.37 45 57.6 43.76 57.6 42.25 L 57.6 2.75 C 57.6 1.24 56.37 0 54.88 0 Z M 20.83 5.36 C 19.93 5.36 19.19 6.1 19.19 7.01 L 19.19 14 L 38.57 14.02 L 38.57 7.01 C 38.57 6.1 37.84 5.36 36.94 5.36 Z M 38.57 15.12 L 19.19 15.12 L 19.19 29.06 L 38.57 29.06 Z M 19.19 29.7 L 19.19 34.59 L 38.57 34.59 L 38.57 29.7 Z M 19.19 35.35 L 19.19 38.63 C 19.19 39.54 19.93 40.29 20.83 40.29 L 36.94 40.29 C 37.84 40.29 38.57 39.54 38.57 38.63 L 38.57 35.37 Z M 46.56 24.25 L 41.05 28.21 L 46.56 32.17 L 46.56 29.48 L 52.87 29.48 L 52.87 26.95 L 46.56 26.95 Z M 11.2 24.25 L 11.2 26.95 L 4.88 26.95 L 4.88 29.48 L 11.2 29.48 L 11.2 32.17 L 16.71 28.21 Z M 47.37 15.22 L 47.37 17.91 L 41.05 17.91 L 41.05 20.44 L 47.37 20.44 L 47.37 23.14 L 52.87 19.18 Z M 10.39 15.22 L 4.88 19.18 L 10.39 23.14 L 10.39 20.44 L 16.71 20.44 L 16.71 17.91 L 10.39 17.91 Z" fill="#3c708a" stroke="none" pointer-events="all"/></g></g></svg>