<?xml version="1.0" encoding="UTF-8"?>
<!-- Do not edit this file with editors other than draw.io -->
<!DOCTYPE svg PUBLIC "-//W3C//DTD SVG 1.1//EN" "http://www.w3.org/Graphics/SVG/1.1/DTD/svg11.dtd">
<svg xmlns="http://www.w3.org/2000/svg" xmlns:xlink="http://www.w3.org/1999/xlink" version="1.1" width="59px" height="46px" viewBox="-0.5 -0.5 59 46" content="&lt;mxfile host=&quot;Electron&quot; modified=&quot;2024-05-26T21:48:33.007Z&quot; agent=&quot;Mozilla/5.0 (Windows NT 10.0; Win64; x64) AppleWebKit/537.36 (KHTML, like Gecko) draw.io/24.4.8 Chrome/124.0.6367.207 Electron/30.0.6 Safari/537.36&quot; version=&quot;24.4.8&quot; etag=&quot;mNXigmT8pbJ7v-6IWnCP&quot; type=&quot;device&quot; scale=&quot;1&quot; border=&quot;0&quot;&gt;&#10;  &lt;diagram name=&quot;Page-1&quot; id=&quot;41QGXgfyUOQ_WT18OQgt&quot;&gt;&#10;    &lt;mxGraphModel dx=&quot;519&quot; dy=&quot;352&quot; grid=&quot;1&quot; gridSize=&quot;10&quot; guides=&quot;1&quot; tooltips=&quot;1&quot; connect=&quot;1&quot; arrows=&quot;1&quot; fold=&quot;1&quot; page=&quot;1&quot; pageScale=&quot;1&quot; pageWidth=&quot;827&quot; pageHeight=&quot;1169&quot; math=&quot;0&quot; shadow=&quot;0&quot;&gt;&#10;      &lt;root&gt;&#10;        &lt;mxCell id=&quot;0&quot; /&gt;&#10;        &lt;mxCell id=&quot;1&quot; parent=&quot;0&quot; /&gt;&#10;        &lt;mxCell id=&quot;2&quot; value=&quot;&quot; style=&quot;sketch=0;points=[[0.015,0.015,0],[0.985,0.015,0],[0.985,0.985,0],[0.015,0.985,0],[0.25,0,0],[0.5,0,0],[0.75,0,0],[1,0.25,0],[1,0.5,0],[1,0.75,0],[0.75,1,0],[0.5,1,0],[0.25,1,0],[0,0.75,0],[0,0.5,0],[0,0.25,0]];verticalLabelPosition=bottom;html=1;verticalAlign=top;aspect=fixed;align=center;pointerEvents=1;shape=mxgraph.cisco19.rect;prIcon=firewall;fillColor=#FAFAFA;strokeColor=#3C708A;container=0;gradientColor=none;&quot; vertex=&quot;1&quot; parent=&quot;1&quot;&gt;&#10;          &lt;mxGeometry x=&quot;247.52&quot; y=&quot;180&quot; width=&quot;57.6&quot; height=&quot;45&quot; as=&quot;geometry&quot; /&gt;&#10;        &lt;/mxCell&gt;&#10;      &lt;/root&gt;&#10;    &lt;/mxGraphModel&gt;&#10;  &lt;/diagram&gt;&#10;&lt;/mxfile&gt;&#10;"><defs/><g><g><rect x="-0.48" y="0" width="57.6" height="45" fill="none" stroke="none" pointer-events="all"/><path d="M 2.24 0 C 0.74 0 -0.48 1.24 -0.48 2.75 L -0.48 42.25 C -0.48 43.76 0.74 45 2.24 45 L 54.4 45 C 55.89 45 57.12 43.76 57.12 42.25 L 57.12 2.75 C 57.12 1.24 55.89 0 54.4 0 Z" fill="#fafafa" stroke="none" pointer-events="all"/><rect x="-0.48" y="0" width="57.6" height="45" fill="none" stroke="none" pointer-events="all"/><path d="M 2.13 2.84 L 2.13 4.91 L 17.36 4.91 L 17.36 10.26 L 2.13 10.26 L 2.13 12.33 L 7.16 12.33 L 7.16 17.69 L 2.13 17.69 L 2.13 19.76 L 17.36 19.76 L 17.36 25.11 L 2.13 25.11 L 2.13 27.18 L 7.16 27.18 L 7.16 32.54 L 2.13 32.54 L 2.13 34.61 L 17.36 34.61 L 17.36 39.96 L 2.13 39.96 L 2.13 42.03 L 54.68 42.03 L 54.68 39.96 L 39.8 39.96 L 39.8 34.61 L 54.68 34.61 L 54.68 32.54 L 49.99 32.54 L 49.99 27.18 L 54.68 27.18 L 54.68 25.11 L 39.8 25.11 L 39.8 19.76 L 54.68 19.76 L 54.68 17.69 L 49.99 17.69 L 49.99 12.33 L 54.68 12.33 L 54.68 10.26 L 39.8 10.26 L 39.8 4.91 L 54.68 4.91 L 54.68 2.84 Z M 19.4 4.91 L 37.75 4.91 L 37.75 10.26 L 19.4 10.26 Z M 9.21 12.33 L 27.55 12.33 L 27.55 17.69 L 9.21 17.69 Z M 29.6 12.33 L 47.94 12.33 L 47.94 17.69 L 29.6 17.69 Z M 19.4 19.76 L 37.75 19.76 L 37.75 25.11 L 19.4 25.11 Z M 9.21 27.18 L 27.55 27.18 L 27.55 32.54 L 9.21 32.54 Z M 29.6 27.18 L 47.94 27.18 L 47.94 32.54 L 29.6 32.54 Z M 19.4 34.61 L 37.75 34.61 L 37.75 39.96 L 19.4 39.96 Z M 2.24 0 C 0.74 0 -0.48 1.24 -0.48 2.75 L -0.48 42.25 C -0.48 43.76 0.74 45 2.24 45 L 54.4 45 C 55.9 45 57.12 43.76 57.12 42.25 L 57.12 2.75 C 57.12 1.24 55.9 0 54.4 0 Z M 2.24 1.24 L 54.4 1.24 C 55.24 1.24 55.89 1.9 55.89 2.75 L 55.89 42.25 C 55.89 43.1 55.24 43.76 54.4 43.76 L 2.24 43.76 C 1.4 43.76 0.75 43.1 0.75 42.25 L 0.75 2.75 C 0.75 1.9 1.4 1.24 2.24 1.24 Z" fill="#3c708a" stroke="none" pointer-events="all"/></g></g></svg>