<?xml version="1.0" encoding="UTF-8"?>
<!-- Do not edit this file with editors other than draw.io -->
<!DOCTYPE svg PUBLIC "-//W3C//DTD SVG 1.1//EN" "http://www.w3.org/Graphics/SVG/1.1/DTD/svg11.dtd">
<svg xmlns="http://www.w3.org/2000/svg" xmlns:xlink="http://www.w3.org/1999/xlink" version="1.1" width="50px" height="50px" viewBox="-0.5 -0.5 50 50" content="&lt;mxfile host=&quot;Electron&quot; modified=&quot;2024-05-28T16:04:48.534Z&quot; agent=&quot;Mozilla/5.0 (Windows NT 10.0; Win64; x64) AppleWebKit/537.36 (KHTML, like Gecko) draw.io/24.4.8 Chrome/124.0.6367.207 Electron/30.0.6 Safari/537.36&quot; version=&quot;24.4.8&quot; etag=&quot;Yee6m86A5FtXUdDpFg8r&quot; type=&quot;device&quot; scale=&quot;1&quot; border=&quot;0&quot;&gt;&#10;  &lt;diagram name=&quot;Page-1&quot; id=&quot;pgqQz89hfp-Bcbbh5mOr&quot;&gt;&#10;    &lt;mxGraphModel dx=&quot;519&quot; dy=&quot;352&quot; grid=&quot;1&quot; gridSize=&quot;10&quot; guides=&quot;1&quot; tooltips=&quot;1&quot; connect=&quot;1&quot; arrows=&quot;1&quot; fold=&quot;1&quot; page=&quot;1&quot; pageScale=&quot;1&quot; pageWidth=&quot;827&quot; pageHeight=&quot;1169&quot; math=&quot;0&quot; shadow=&quot;0&quot;&gt;&#10;      &lt;root&gt;&#10;        &lt;mxCell id=&quot;0&quot; /&gt;&#10;        &lt;mxCell id=&quot;1&quot; parent=&quot;0&quot; /&gt;&#10;        &lt;UserObject label=&quot;&quot; tags=&quot;Background&quot; id=&quot;2&quot;&gt;&#10;          &lt;mxCell style=&quot;vsdxID=7;fillColor=default;gradientColor=none;points=[[0.5,1,0],[1,0.5,0],[0.5,0,0],[0,0.5,0],[0.5,0.49,0]];labelBackgroundColor=none;rounded=0;strokeColor=none;html=1;whiteSpace=wrap;aspect=fixed;&quot; vertex=&quot;1&quot; parent=&quot;1&quot;&gt;&#10;            &lt;mxGeometry x=&quot;600&quot; y=&quot;240&quot; width=&quot;50&quot; height=&quot;50&quot; as=&quot;geometry&quot; /&gt;&#10;          &lt;/mxCell&gt;&#10;        &lt;/UserObject&gt;&#10;        &lt;mxCell id=&quot;3&quot; style=&quot;vsdxID=8;fillColor=#e6e7e8;gradientColor=none;shape=stencil(lZPRboMwDEW/Jq/IsYMhj1PX/kfV0oHGoErpBn9f0gAjATotT0l8Hd1jx4J2t/x4zQTCrTH1Z/ZTnJtc0LtALKo8M0XT7wTtBe0utck+TH2vzu58PVql3X3V3/aF1uVJAJuD0LlzKiPFz5uDk5/uxullmDBcaBklgAkrKYF1TC7a4hRlrRNmjDUzaT0k4/RaBLMl1ZBOoR3oyDfw9AdvvcWyqOZEaTSa6FYylkRphJo1K1YqISl9uk2DAwD4PBvFIF+8gNti8XtjydQrkqAzFixNE1AaYjWVfnS+ju1jjcbnNfVYtozP+7bQL41v/RKfq8XwC+JLUArltFrHtT/011T8U95vfgfwUpSlm995PBzY/soNO+0f);strokeColor=none;spacingTop=-3;spacingBottom=-3;spacingLeft=-3;spacingRight=-3;points=[[0.5,1,0],[1,0.5,0],[0.5,0,0],[0,0.5,0],[0.5,0.49,0]];labelBackgroundColor=none;rounded=0;html=1;whiteSpace=wrap;&quot; vertex=&quot;1&quot; parent=&quot;2&quot;&gt;&#10;          &lt;mxGeometry width=&quot;48.48484848484848&quot; height=&quot;48.48484848484848&quot; as=&quot;geometry&quot; /&gt;&#10;        &lt;/mxCell&gt;&#10;        &lt;mxCell id=&quot;4&quot; style=&quot;vsdxID=9;fillColor=#808285;gradientColor=none;shape=stencil(lZXbctsgEIafRrfMHjjsXnbS9D0yjRNr6toZxWnttw8Ssi0QUmJdCdif+b9dFhp+eN8+vW0agvdjd/iz+d8+H7cN/2yI2v1207XH+NfwY8MPL4du89odPvbPafz21Ef2f38P//odTkknYIL2KoJzmkGAYfwrhe/a/SQc1fRry+G/P7q0PY77G08QP0YVh36UYq6FE6WJcXgeh4qGBa1HBGfJyhjMeTDfSORmBX7MzENu/IqyYB1ys5EExbGIWhesqs+t10FzrovzaRYzmCXn8yqtJj3lzakoCyjnHEXKrzU40zonl/EzmCX3N0m1UhX/alTFAgRL4IpDM8AxeEgWBXOeOnsJe+J5YrlyoAeavGPmLUBmrPcSjhFEa4MVYe9sjtOLwTMBe7EBwOU4w7LTqKXgpWiPfl8P1gIShVmlrrbuKNVE881aVQ1ewMGgqGoEjwMKRaWqabksBiOWnPeOAdXaLxtoENzZRIWmUrkIoBgcAgVHRSMtWJwCxLOEIcpDcR8sJGaGcsflNhV984KrW8T1w0VrmaH1M73cdHkL1e6QL7vu3vj4c3sUX9rdLr2p0/XyEY1T6QHmx08=);strokeColor=none;spacingTop=-3;spacingBottom=-3;spacingLeft=-3;spacingRight=-3;points=[[0.5,1,0],[1,0.5,0],[0.5,0,0],[0,0.5,0],[0.5,0.49,0]];labelBackgroundColor=none;rounded=0;html=1;whiteSpace=wrap;&quot; vertex=&quot;1&quot; parent=&quot;2&quot;&gt;&#10;          &lt;mxGeometry width=&quot;50&quot; height=&quot;50&quot; as=&quot;geometry&quot; /&gt;&#10;        &lt;/mxCell&gt;&#10;        &lt;mxCell id=&quot;5&quot; style=&quot;vsdxID=10;fillColor=none;gradientColor=none;points=[[0.5,1,0],[1,0.5,0],[0.5,0,0],[0,0.5,0],[0.5,0.49,0]];labelBackgroundColor=none;rounded=0;strokeColor=none;html=1;whiteSpace=wrap;&quot; vertex=&quot;1&quot; parent=&quot;2&quot;&gt;&#10;          &lt;mxGeometry x=&quot;5.303030303030301&quot; y=&quot;4.545454545454547&quot; width=&quot;37.878787878787875&quot; height=&quot;40.15151515151514&quot; as=&quot;geometry&quot; /&gt;&#10;        &lt;/mxCell&gt;&#10;        &lt;mxCell id=&quot;6&quot; style=&quot;vsdxID=11;fillColor=#FFFFFF;gradientColor=none;shape=stencil(lVjtjts2EHwa/yV2udwP/izS9D2C5pI7NM0FzqVN375D29JFKylyECDwWaI1u5yZHeokb74+vvvycKr09eX8/NfDv0/vXx5P8vup1qfPjw/npxd8Osnbk7z58Hx++Hh+/vb5/fXvL+/GnePT38//jF/4fl3XqehYVOm/6xdKlz//uN7857fz9W6+3c7FhYi0mzWpt5W3i60X1k6u0aqbXS9+r7eVtYSb9jBuPj3ydq1FYe+t9ugEAETTWrmtldJvK27fNCu9vwKl37aw9lKleaNK5CEJK6GQarjcu4xn6hIuEy0xCpduLkApvbsR1YRRi7clyKpHCLk0F46ObhL7EiFHIQlvEr2q+q3cGWBIoc7WukaEpIZyK9VQGCmbAG/3JVhvxZdYWYvWA7guhamJkYXE1LAZLupXFQ2N7oTmyxKvczEJ62JMXmMqZ0ZspVIzAwW4SuqtE8pJeK34EQGwjCkYDGD02lZ4xbxV8FH0sgVLvNaLuzEEEmCbJ7QgpERzLO2DYRRLwFhcE95alA/wWhSrTVqgAZy0xYxaqmnjGkoBRie4XoZ42K0pZX2hlGgc4DuQguuc0HqhBDeK+hFaKaMxblF760u0UgSbXDWoG/cVFxTqJTQQJGJ1XoKlJTilJTIqdNTHJgVPDZQKQrbE07HeOQCcCUQl7kn54nAGBuqqa5rCxKqCK1AnKsA9skQrgm1YAvYiR0SVCsCBlrKK10TUKJ2VqkA63AErElwuaiCqVvinROIpQXSCKoNAdHhIEpZQidMv8xSrUD/23Vl15QN70pg62EuEmbjHwJ3w7olS5sXZZO8xAvQQtiNkw0tnvvH8AxvOM6E17KeaoPeglM6u/wPgbdebR0CRhPcOo+WhD5g6NWa23OA9b58GQxlUwCAWeF60hHdnqExjdeWzhzOMluh2x+Sk7oIQAAkNLqK0HAT2pvLkVIWX8O7JAV6wr5gBElpTL3eDx9xLgIFLhUCZPe39dtyZ4sAcq5Y+tg9z+1k8rS74nkm4KXuKAlsFTk7LJTBvG8zKrR91U+Vos7d3bwKJqaeuwAiFr/YdVIAjMOFfE+9J+Zh9hEpgHA3X0jhd0xIB5nDfhxAM1RNUAq9KrgqeKlRAGLdtCfWiPtRhAqiaplNA8JVAHDicZXqu1R4NCe/InfY8huffqCMU0CijZYPatLbXjOiBdiJT9Hmu/MRLcf+RNV3sG2OPh4n3FVDD1iiJt1aTlMbQwHRBXABxhrWnURVW4GhObnX0NmeU9aQKLy2OJhXGsaJz6ADCQILbwaHAIBJkBMf/S7wN2bxrvfTcJKdVOkgpOHsc8lMDT+jIPx0Pl3Q+GT8QJLBo+Et0SZI3aLfBCERxnJo4Mce97cJesyn3X2/lJQ8L8lQPeFCm6M7mTQa1GcTrz1izn/zvIOnlrGHIZwrb4+RS26KYkI4jDkK0gTXes5w2hbh7pLpH++MUBxNSbeFRUzLZ9pppkwc/GXBspNUspjGFxZnRhaZ5NK1PqvfY6WDkaIwQsoknAgz7xllpkE6BKkEdB3HklrEjbklKm0Nj99x/OKE2XzNMghvDUBD2kKw859LxZgN9QCvHIctz8N8ewBNOOpz2+Pz6CubD06dP1zc484sWfMivbPDV9XWPvP0f);strokeColor=none;spacingTop=-3;spacingBottom=-3;spacingLeft=-3;spacingRight=-3;points=[[0.5,1,0],[1,0.5,0],[0.5,0,0],[0,0.5,0],[0.5,0.49,0]];labelBackgroundColor=none;rounded=0;html=1;whiteSpace=wrap;&quot; vertex=&quot;1&quot; parent=&quot;5&quot;&gt;&#10;          &lt;mxGeometry width=&quot;37.878787878787875&quot; height=&quot;40.15151515151514&quot; as=&quot;geometry&quot; /&gt;&#10;        &lt;/mxCell&gt;&#10;        &lt;mxCell id=&quot;7&quot; style=&quot;vsdxID=12;fillColor=none;gradientColor=none;strokeColor=none;spacingTop=-3;spacingBottom=-3;spacingLeft=-3;spacingRight=-3;points=[[0.5,1,0],[1,0.5,0],[0.5,0,0],[0,0.5,0],[0.5,0.49,0]];labelBackgroundColor=none;rounded=0;html=1;whiteSpace=wrap;&quot; vertex=&quot;1&quot; parent=&quot;5&quot;&gt;&#10;          &lt;mxGeometry y=&quot;11.36363636363636&quot; width=&quot;34.090909090909086&quot; height=&quot;23.484848484848477&quot; as=&quot;geometry&quot; /&gt;&#10;        &lt;/mxCell&gt;&#10;        &lt;mxCell id=&quot;8&quot; style=&quot;vsdxID=13;fillColor=#587b8c;gradientColor=none;fillOpacity=33;strokeOpacity=33;shape=stencil(hZXdThsxEIWfJrej+f+5rCi8ByqhRKUEhdDSt+8suyH1Uim5ideesT+fPTnZyNXLw+3zdsP4cjzsf2x/7+6ODxv5umHePT1sD7tjjzZyvZGr+/1h+/2wf326m5+fb6fKafRz/2va4W3ucwifmhj/zBMqIPPMzVz/7fUwN9BcgJCqQokpRZqxdC+rpkCpheWB5lxl8/obL91L+fLo1achm6FGMi21sqBA8FK+zCSB8hkOv/yHr0Cl+vBitbQc8UpAozhCXA1Pqyc4SgjqnhLzqhhRq6D++biMsJyANNJWtFQXaMWgqL88Pc18RWvDkTXSKgEGF1l4MU1II3AGkHPrUOl9q5W2DqojbhTwJXFNwINctIRLZcT1BOPAyhRCoZHW2zcVZBVWzTyiWisljK07hYmOqL0tyYiqfbVLyka/TE01b5vy2gcyGclJWZH8s7TZtgxqF4ibEo+wZO0SrHYXskh3r3gJcaTFC6RpoJmuVERaq98TtF7Z5vMkKsQYQQOhUpD7pqJrVYnAqLz1FmfJkdLaADlyUgDnBdb2jfcbRlXO3nWEZQKqjH49jlm0VlU6bLSd2sKRpI6wfVOiKCunLlrBdkx9BM1pqgAvWYAK2k3UKJIhny1QmlWoYoGBKCNtqxdtZCrJvtTKA9Ix926eqa+zENeePcfqybJjrr7z9vicy/e7x8c51j+itwfrHO+p+T9Arv8C);strokeColor=none;spacingTop=-3;spacingBottom=-3;spacingLeft=-3;spacingRight=-3;points=[[0.5,1,0],[1,0.5,0],[0.5,0,0],[0,0.5,0],[0.5,0.49,0]];labelBackgroundColor=none;rounded=0;html=1;whiteSpace=wrap;&quot; vertex=&quot;1&quot; parent=&quot;7&quot;&gt;&#10;          &lt;mxGeometry width=&quot;34.090909090909086&quot; height=&quot;23.484848484848477&quot; as=&quot;geometry&quot; /&gt;&#10;        &lt;/mxCell&gt;&#10;        &lt;mxCell id=&quot;9&quot; style=&quot;vsdxID=14;fillColor=none;gradientColor=none;strokeColor=none;spacingTop=-3;spacingBottom=-3;spacingLeft=-3;spacingRight=-3;points=[[0.5,1,0],[1,0.5,0],[0.5,0,0],[0,0.5,0],[0.5,0.49,0]];labelBackgroundColor=none;rounded=0;html=1;whiteSpace=wrap;&quot; vertex=&quot;1&quot; parent=&quot;5&quot;&gt;&#10;          &lt;mxGeometry x=&quot;10.606060606060602&quot; y=&quot;2.2727272727272734&quot; width=&quot;16.66666666666666&quot; height=&quot;37.87878787878788&quot; as=&quot;geometry&quot; /&gt;&#10;        &lt;/mxCell&gt;&#10;        &lt;mxCell id=&quot;10&quot; style=&quot;vsdxID=15;fillColor=#587b8c;gradientColor=none;fillOpacity=33;strokeOpacity=33;shape=stencil(lZTbUhsxDIafZm89ss667FD6HkwJJVNKmBBaePtq2XVSe5LS7pVtyd5P0i9NdPV8f/O0mRCeD/vd982v7e3hfqLPE+L28X6z3x5yNdH1RFd3u/3m23738ni77J9uZs959WP3c37hdbknJXS+hPC2HLgWjfeTL4v/15f9cqEuDhVLGFWoysjaLq/G4KLqVTFEKQAX6ysuVoLCgUbhSC51vboaK8DqTSvaun9b9xEl/iCDT2fgNIqAoUI1rRwDXD5gUbEKuTFa9HRuBVA9nMSEuKe7EBgdrcA97ZDHs7THkBuhJSEwewUKY+v5ZgTU9GExNOz5jEolBMqyBFnGPwBCEe0BVcv6h8uALgUcgqjmp9zDimU1VQ05BGmAzUgUFFhr8vpQavYiyFkG03C1HtU4I+lRKasqH1VeE1VYxJm8pa6hohbSSFrRObcA1NOKlznjCZXaDBmEmanNF9nRGaRGDMXnoy6PwPABLNeSWSFOLZ3ea7AX/9e6iIpn3lPIqUQXgIH3YrArXPa86/8nGKGQYwJ5IMPQ9+cr2hLIqWpL/YRmbzLAoN3zQmrKLTyo4V+EK4WMLGmzzdEGNbz3CmfywgxaozdY6NnOd2SbUKfh+Zeuz/Vp+t5tHx6W4X0csLkYp3UeLZOern8D);strokeColor=none;spacingTop=-3;spacingBottom=-3;spacingLeft=-3;spacingRight=-3;points=[[0.5,1,0],[1,0.5,0],[0.5,0,0],[0,0.5,0],[0.5,0.49,0]];labelBackgroundColor=none;rounded=0;html=1;whiteSpace=wrap;&quot; vertex=&quot;1&quot; parent=&quot;9&quot;&gt;&#10;          &lt;mxGeometry width=&quot;16.66666666666666&quot; height=&quot;37.87878787878788&quot; as=&quot;geometry&quot; /&gt;&#10;        &lt;/mxCell&gt;&#10;        &lt;mxCell id=&quot;11&quot; style=&quot;vsdxID=16;fillColor=none;gradientColor=none;strokeColor=none;spacingTop=-3;spacingBottom=-3;spacingLeft=-3;spacingRight=-3;points=[[0.5,1,0],[1,0.5,0],[0.5,0,0],[0,0.5,0],[0.5,0.49,0]];labelBackgroundColor=none;rounded=0;html=1;whiteSpace=wrap;&quot; vertex=&quot;1&quot; parent=&quot;5&quot;&gt;&#10;          &lt;mxGeometry x=&quot;3.0303030303030294&quot; y=&quot;11.36363636363636&quot; width=&quot;34.090909090909086&quot; height=&quot;23.484848484848477&quot; as=&quot;geometry&quot; /&gt;&#10;        &lt;/mxCell&gt;&#10;        &lt;mxCell id=&quot;12&quot; style=&quot;vsdxID=17;fillColor=#587b8c;gradientColor=none;fillOpacity=33;strokeOpacity=33;shape=stencil(hZXdThsxEIWfJrej+f+5rCh9D1RCiUqhCtDSt+8sm910raLcOZ4d+/Px8clOrp7vb37ud4zPL8en7/vfh9uX+5183jEfHu/3x8NLj3ZyvZOru6fj/tvx6fXxdv7982b6chr9ePo1rfA29wUD0tTF+GeeqYDU95kvc8PX1+PcQfMHSSCImIUaVHZqPhUJcZ5449NyCI6KqZ607rTUBLScE83YUeJUfpNT2UBODbJurXxmw0//wVsJFiQvEA1DdvPQqBoACyjMyoTF0reEpkCpheWB5oqoA6IAx5ZRBcQvMGYCCylGYijnlld6T2VFCkShgTYRNLtcYkQLzUIrBNMxlFg4pIWQLW1Ir7yl5QLUC7Q+HbKxMKr3aMGGO2cD4kl4JVXrum6ZrRXppuovXMrX+oLNBFQZrOHtqoG55bTBBRRw0uxj5ulcFFnmJIGDwkRgZIpF0lADLSkYOoYJuRcPfoCwyj5iu5kKMbawuAXFi1YFb3W0bzJ5WWuF7L0ISy2RRfJ8mWfVuEGzB64ku9EJyj7bqAVfPS9rOXPLqrF442Ne6afSN2RiRtl+QN8iW0eHuKi2t/tFbXnVQUTYXTDNB15PMA6szLatDDnQ/rHhkUUBXwoCSyjFFrgTRizWt7vQZp/YPVUihWkL6wrYl0xRltlHriG4HHq5lj8qkNWGZ/ZPpi45sQ3Vd94en1P57vDwMIf6mrs9GFO8p+Z/ALn+Cw==);strokeColor=none;spacingTop=-3;spacingBottom=-3;spacingLeft=-3;spacingRight=-3;points=[[0.5,1,0],[1,0.5,0],[0.5,0,0],[0,0.5,0],[0.5,0.49,0]];labelBackgroundColor=none;rounded=0;html=1;whiteSpace=wrap;&quot; vertex=&quot;1&quot; parent=&quot;11&quot;&gt;&#10;          &lt;mxGeometry width=&quot;34.090909090909086&quot; height=&quot;23.484848484848477&quot; as=&quot;geometry&quot; /&gt;&#10;        &lt;/mxCell&gt;&#10;        &lt;mxCell id=&quot;13&quot; style=&quot;vsdxID=18;fillColor=none;gradientColor=none;strokeColor=none;spacingTop=-3;spacingBottom=-3;spacingLeft=-3;spacingRight=-3;points=[[0.5,1,0],[1,0.5,0],[0.5,0,0],[0,0.5,0],[0.5,0.49,0]];labelBackgroundColor=none;rounded=0;html=1;whiteSpace=wrap;&quot; vertex=&quot;1&quot; parent=&quot;5&quot;&gt;&#10;          &lt;mxGeometry x=&quot;3.0303030303030294&quot; y=&quot;5.303030303030301&quot; width=&quot;34.090909090909086&quot; height=&quot;23.484848484848477&quot; as=&quot;geometry&quot; /&gt;&#10;        &lt;/mxCell&gt;&#10;        &lt;mxCell id=&quot;14&quot; style=&quot;vsdxID=19;fillColor=#587b8c;gradientColor=none;fillOpacity=33;strokeOpacity=33;shape=stencil(hZTbchMxDIafJrcanQ+XTGnfo0NTkqE0nTSF8vZo2U2Kd2CSm3gtS/78+7c2cvO6u3/ZbhhfT8fDt+3P/cNpt5HPG+b982573J96tJHbjdw8Ho7br8fD2/PD/P1yP62cRt8PP6YK73NeCbBOWYy/5hlz8Hnmbk748nacM2hJKSDjJMS09FySl6AaJIWUGDP6HHvnOdYZy+JlQhBcUpUttJOW1bJsY8Dn4ssUJVh9oOGnf9EhmCOXYpiSjnQOxurlmFgyHWAETAKONMmk6X+ExREvCKpGPAbyK3SugBnhQkKqcqmwhKVrVrbCYaKOKCOfJRQHprZykYioIyIxpFL/yomlq/PIbNLarJgR4pqk6iBsWsLi2VXLV9QEGpbUIWnlEWPElgKcslKx2jCIK2W1hQsU10DO5MuxzthdP2PEtj7pNa25b1PTg6LvktdOaCuFUYmioK50pvZlezIoOxQ00qa2LytaOSwvGlFxxDw7/v+QpGBo3mbgbMeOkNVbKbaL05FMbaTklpW0t/B08VhRJmha+1zEXWuk1PYBj6TJEHyFte0jGe2Cfq3KI2okJDJNzjbz1cP3bjLWhlXq+ycfSUMhsx9joqGfj3F5ZQIkI2kg1LWrTwT17m2FXVhXqvbVo7WVw0oEaURt3bgfkHi1PfISPsN6tzfvLKTJU4ar6/+7m56dOrbTP7g9/ujHj/unp7mdXzpuD9b9u6fm3i+3vwE=);strokeColor=none;spacingTop=-3;spacingBottom=-3;spacingLeft=-3;spacingRight=-3;points=[[0.5,1,0],[1,0.5,0],[0.5,0,0],[0,0.5,0],[0.5,0.49,0]];labelBackgroundColor=none;rounded=0;html=1;whiteSpace=wrap;&quot; vertex=&quot;1&quot; parent=&quot;13&quot;&gt;&#10;          &lt;mxGeometry width=&quot;34.090909090909086&quot; height=&quot;23.484848484848477&quot; as=&quot;geometry&quot; /&gt;&#10;        &lt;/mxCell&gt;&#10;        &lt;mxCell id=&quot;15&quot; style=&quot;vsdxID=20;fillColor=none;gradientColor=none;strokeColor=none;spacingTop=-3;spacingBottom=-3;spacingLeft=-3;spacingRight=-3;points=[[0.5,1,0],[1,0.5,0],[0.5,0,0],[0,0.5,0],[0.5,0.49,0]];labelBackgroundColor=none;rounded=0;html=1;whiteSpace=wrap;&quot; vertex=&quot;1&quot; parent=&quot;5&quot;&gt;&#10;          &lt;mxGeometry y=&quot;5.303030303030301&quot; width=&quot;34.090909090909086&quot; height=&quot;23.484848484848477&quot; as=&quot;geometry&quot; /&gt;&#10;        &lt;/mxCell&gt;&#10;        &lt;mxCell id=&quot;16&quot; style=&quot;vsdxID=21;fillColor=#587b8c;gradientColor=none;fillOpacity=33;strokeOpacity=33;shape=stencil(hZTdUtswEIWfJreaXe3/ZYfS92BKKJlS0gnQ0rfvMXaSypSJbyzLu9Kno7O7kaun+5uf202np+fD/vv29+72+X4jnze97x7vt4fdM0Ybud7I1d3+sP122L883s7fP2+myGn0Y/9rWuF1zvMWPiV1+jNPmDfXt5kvc/zXl8OcwHMAtdTgrGJl6XLMXv6qteSQEkPk8u+1L5lL6PIp1FxStVsoUpZYWdZp0ZfwZYazWZ3B6NN/2KqpVJAVONJyRPNmXb2ckkqYKEc6rI9jWQLdq2JkpZGuZyMe8Xpjv0An1orx8vQ0WwknraqyY2cTdSIZ6ZQbRS+28OqMUB8BueNaGE85d5GqvtLTm+qKmFpcEtSkeaiRhwuDinRFzU3DkrGhUC+iGLEdbqlgw6lgGBuZFZoFiWtQz+ynxY/Mno1lZDYc85LMgYvUVHOB2u9MABeFcYmSkK5EzmoSijeXea+RNrUhICAblRePqLDTyq3LxMeYaU1LBU4Irm4nPx2tjO2UlDWd2NRG0qBWk1dhZHGRFWk2TYPNRdy1RlLUt+bImv1YbB/Twj8wFmzQ3xcWBE/qPFkEtl4VvaDDKBxrSYxqH0lDWyZqMQkW8xhJUbAZI+l07EvXz9VQQWhQ2C7k/fWTgQl2FDlKfuoA3AI0MAcMkH1EdTQ2KE3EkXa+rpNXz330LPS/jfSNFeNzI77bPTzMffzUazFYN25MzU1frv8C);strokeColor=none;spacingTop=-3;spacingBottom=-3;spacingLeft=-3;spacingRight=-3;points=[[0.5,1,0],[1,0.5,0],[0.5,0,0],[0,0.5,0],[0.5,0.49,0]];labelBackgroundColor=none;rounded=0;html=1;whiteSpace=wrap;&quot; vertex=&quot;1&quot; parent=&quot;15&quot;&gt;&#10;          &lt;mxGeometry width=&quot;34.090909090909086&quot; height=&quot;23.484848484848477&quot; as=&quot;geometry&quot; /&gt;&#10;        &lt;/mxCell&gt;&#10;        &lt;mxCell id=&quot;17&quot; style=&quot;vsdxID=22;fillColor=#70bf4e;gradientColor=#00964d;fillOpacity=64;shape=stencil(nZXbbhQxDIafZi5r+RQfLlEp71HRLV1RutV2C+Xt8TDpVhkNVHCXxPHky2/nn0kun+6uH3cT49PpePi6+7G/Od1N8nFi3j/c7Y77U40muZrk8vZw3H05Hp4fbpb54/W8cx59O3yfv/Cy5KUD2ZzF+HNZIQH5vfBp2f/5+bgk0BKPBLMkNm7sEj23BxsIebOWgYQ99sJLzBEiWnBgMyPqiT2IUAmqlK25eyYjek+X/mnsGX2Ob5D4YYOTE4i4RTjWpUbMi+G4zGwuPtISgmgokdXG5ogr4M2bdjSGaCPsKOom74VAk4yQMMOQEkBH6FmjYE3ShqY54jIwJmURR2j6yMpWQOaEbBRCpe7Ia9Bs5JWC4XeAiaEEDNMWyrpSWCuYRpqNI3CtbQCHVBclNyVdCUugFoqIQsK2UlbhvP8VHkH1HVRhcFOnNPECGlFdwApS0YLCRlIlqIyWKOhIPJJGyUqqjKKYMoJqQuaqB/C9lm0BRqUne0NpVScbSTcP7DDmMF+FZa6J6Plw/sslO5g3iP8QNQic1KtYUjxrI9is4qtwDs2ZPNSFWEbS7c7pXCmgMv1zq5bLeWSVIDHTV636x9dxdoL5ZYYgGmuUWayk3X6Xcj6ZVm9rwwtq/GbQt/v7+8Xfzx5cg7Wh19LyM5CrXw==);strokeColor=none;spacingTop=-3;spacingBottom=-3;spacingLeft=-3;spacingRight=-3;points=[[0.5,1,0],[1,0.5,0],[0.5,0,0],[0,0.5,0],[0.5,0.49,0]];labelBackgroundColor=none;rounded=0;html=1;whiteSpace=wrap;&quot; vertex=&quot;1&quot; parent=&quot;5&quot;&gt;&#10;          &lt;mxGeometry x=&quot;11.363636363636358&quot; width=&quot;15.151515151515143&quot; height=&quot;37.87878787878788&quot; as=&quot;geometry&quot; /&gt;&#10;        &lt;/mxCell&gt;&#10;      &lt;/root&gt;&#10;    &lt;/mxGraphModel&gt;&#10;  &lt;/diagram&gt;&#10;&lt;/mxfile&gt;&#10;"><defs><linearGradient x1="0%" y1="0%" x2="0%" y2="100%" id="mx-gradient-70bf4e-1-00964d-1-s-0"><stop offset="0%" style="stop-color: rgb(112, 191, 78); stop-opacity: 1;"/><stop offset="100%" style="stop-color: rgb(0, 150, 77); stop-opacity: 1;"/></linearGradient></defs><g><g><rect x="0" y="0" width="50" height="50" fill="rgb(255, 255, 255)" stroke="none" pointer-events="all"/></g><g><path d="M 48.48 39.5 C 48.48 44.46 44.46 48.48 39.5 48.48 L 8.98 48.48 C 4.02 48.48 0 44.46 0 39.5 L 0 8.99 C 0 4.02 4.02 0 8.98 0 L 39.5 0 C 44.46 0 48.48 4.02 48.48 8.99 L 48.48 39.5 L 48.48 39.5" fill="#e6e7e8" stroke="none" pointer-events="all"/></g><g><path d="M 40.39 50 L 9.61 50 C 4.31 50 0 45.69 0 40.39 L 0 9.61 C 0 4.31 4.31 0 9.61 0 L 40.39 0 C 45.69 0 50 4.31 50 9.61 L 50 40.39 C 50 45.69 45.69 50 40.39 50 M 9.61 1.08 C 4.91 1.08 1.08 4.91 1.08 9.61 L 1.08 40.39 C 1.08 45.09 4.91 48.92 9.61 48.92 L 40.39 48.92 C 45.1 48.92 48.92 45.09 48.92 40.39 L 48.92 9.61 C 48.92 4.91 45.1 1.08 40.39 1.08 L 9.61 1.08 L 9.61 1.08" fill="#808285" stroke="none" pointer-events="all"/></g><g><rect x="5.3" y="4.55" width="37.88" height="40.15" fill="none" stroke="none" pointer-events="all"/></g><g><path d="M 39.58 24.62 C 40.05 24.28 40.48 23.89 40.87 23.41 C 42.89 20.9 43.18 17.38 41.57 14.58 C 39.95 11.79 36.78 10.28 33.6 10.78 C 32.99 10.87 32.44 11.05 31.92 11.29 C 31.86 10.72 31.73 10.14 31.52 9.57 C 31.3 9 31.02 8.47 30.69 7.99 C 29.26 5.87 26.86 4.55 24.24 4.55 C 21.83 4.55 19.6 5.68 18.14 7.51 C 17.66 8.12 17.26 8.82 16.97 9.57 C 16.75 10.14 16.62 10.72 16.57 11.29 C 16.05 11.05 15.49 10.87 14.89 10.78 C 11.71 10.28 8.53 11.79 6.92 14.58 C 5.3 17.38 5.59 20.9 7.61 23.41 C 8 23.89 8.43 24.28 8.9 24.62 C 8.43 24.95 8 25.35 7.61 25.83 C 5.59 28.34 5.3 31.86 6.92 34.66 C 8.53 37.45 11.71 38.96 14.89 38.46 C 15.49 38.37 16.05 38.19 16.57 37.95 C 16.62 38.52 16.75 39.1 16.97 39.67 C 18.13 42.68 21.02 44.7 24.24 44.69 C 27.46 44.69 30.36 42.68 31.51 39.67 C 31.73 39.1 31.86 38.52 31.92 37.95 C 32.44 38.19 32.99 38.37 33.6 38.46 C 36.78 38.96 39.96 37.46 41.57 34.66 C 43.17 31.85 42.89 28.34 40.87 25.83 C 40.48 25.35 40.05 24.95 39.58 24.62" fill="#ffffff" stroke="none" pointer-events="all"/></g><g><rect x="5.3" y="15.91" width="34.09" height="23.48" fill="none" stroke="none" pointer-events="all"/></g><g><path d="M 7.61 26.09 C 5.59 28.63 5.3 32.2 6.91 35.03 C 8.52 37.86 11.68 39.39 14.85 38.89 C 17.55 38.45 19.31 36.38 21.13 34.51 C 23.6 32 26.06 29.49 28.53 26.98 C 32.15 23.29 35.77 19.6 39.39 15.91 C 34.45 17.26 29.5 18.61 24.56 19.97 C 21.19 20.89 17.83 21.81 14.46 22.73 C 11.96 23.41 9.32 23.93 7.61 26.09" fill-opacity="0.33" fill="#587b8c" stroke="none" pointer-events="all"/></g><g><rect x="15.91" y="6.82" width="16.67" height="37.88" fill="none" stroke="none" pointer-events="all"/></g><g><path d="M 16.9 39.66 C 18.07 42.68 20.99 44.7 24.24 44.69 C 27.49 44.69 30.41 42.68 31.58 39.66 C 32.58 37.09 31.68 34.52 31 32 C 30.09 28.6 29.18 25.2 28.26 21.8 C 26.92 16.81 25.58 11.81 24.24 6.82 C 22.9 11.81 21.56 16.81 20.22 21.8 C 19.31 25.2 18.39 28.6 17.48 32 C 16.8 34.52 15.91 37.09 16.9 39.66" fill-opacity="0.33" fill="#587b8c" stroke="none" pointer-events="all"/></g><g><rect x="8.33" y="15.91" width="34.09" height="23.48" fill="none" stroke="none" pointer-events="all"/></g><g><path d="M 32.88 38.89 C 36.05 39.39 39.22 37.87 40.82 35.03 C 42.42 32.2 42.14 28.63 40.13 26.09 C 38.41 23.93 35.77 23.41 33.27 22.73 C 29.9 21.81 26.54 20.89 23.17 19.97 C 18.23 18.61 13.28 17.26 8.33 15.91 C 11.96 19.6 15.58 23.29 19.2 26.98 C 21.67 29.49 24.13 32 26.6 34.51 C 28.43 36.38 30.19 38.46 32.88 38.89" fill-opacity="0.33" fill="#587b8c" stroke="none" pointer-events="all"/></g><g><rect x="8.33" y="9.85" width="34.09" height="23.48" fill="none" stroke="none" pointer-events="all"/></g><g><path d="M 40.12 23.15 C 42.14 20.61 42.42 17.04 40.82 14.21 C 39.21 11.38 36.04 9.85 32.88 10.36 C 30.18 10.79 28.42 12.86 26.59 14.73 C 24.13 17.24 21.66 19.75 19.2 22.26 C 15.58 25.95 11.96 29.64 8.33 33.33 C 13.28 31.98 18.22 30.63 23.17 29.28 C 26.53 28.36 29.9 27.43 33.26 26.51 C 35.76 25.83 38.41 25.32 40.12 23.15" fill-opacity="0.33" fill="#587b8c" stroke="none" pointer-events="all"/></g><g><rect x="5.3" y="9.85" width="34.09" height="23.48" fill="none" stroke="none" pointer-events="all"/></g><g><path d="M 7.61 23.15 C 5.59 20.61 5.3 17.04 6.91 14.21 C 8.52 11.38 11.68 9.85 14.85 10.36 C 17.55 10.79 19.31 12.86 21.13 14.73 C 23.6 17.24 26.06 19.75 28.53 22.26 C 32.15 25.95 35.77 29.64 39.39 33.33 C 34.45 31.98 29.5 30.63 24.56 29.28 C 21.19 28.36 17.83 27.43 14.46 26.51 C 11.96 25.83 9.32 25.32 7.61 23.15" fill-opacity="0.33" fill="#587b8c" stroke="none" pointer-events="all"/></g><g><path d="M 31.39 9.58 C 30.25 6.56 27.41 4.55 24.24 4.55 C 21.08 4.54 18.23 6.56 17.1 9.58 C 16.13 12.15 17 14.72 17.66 17.24 C 18.55 20.64 19.44 24.04 20.32 27.44 C 21.63 32.44 22.94 37.43 24.24 42.42 C 25.55 37.43 26.85 32.44 28.16 27.44 C 29.05 24.04 29.94 20.64 30.82 17.24 C 31.48 14.72 32.35 12.15 31.39 9.58" fill-opacity="0.64" fill="url(#mx-gradient-70bf4e-1-00964d-1-s-0)" stroke="none" pointer-events="all"/></g></g></svg>