<?xml version="1.0" encoding="UTF-8"?>
<!-- Do not edit this file with editors other than draw.io -->
<!DOCTYPE svg PUBLIC "-//W3C//DTD SVG 1.1//EN" "http://www.w3.org/Graphics/SVG/1.1/DTD/svg11.dtd">
<svg xmlns="http://www.w3.org/2000/svg" xmlns:xlink="http://www.w3.org/1999/xlink" version="1.1" width="59px" height="46px" viewBox="-0.5 -0.5 59 46" content="&lt;mxfile host=&quot;Electron&quot; modified=&quot;2024-05-27T08:21:48.626Z&quot; agent=&quot;Mozilla/5.0 (Windows NT 10.0; Win64; x64) AppleWebKit/537.36 (KHTML, like Gecko) draw.io/24.4.8 Chrome/124.0.6367.207 Electron/30.0.6 Safari/537.36&quot; version=&quot;24.4.8&quot; etag=&quot;2tJXmXplVWh3hy2nzNvw&quot; type=&quot;device&quot; scale=&quot;1&quot; border=&quot;0&quot;&gt;&#10;  &lt;diagram name=&quot;Page-1&quot; id=&quot;6TpOpyr8R6OlYl30bURf&quot;&gt;&#10;    &lt;mxGraphModel dx=&quot;519&quot; dy=&quot;352&quot; grid=&quot;1&quot; gridSize=&quot;10&quot; guides=&quot;1&quot; tooltips=&quot;1&quot; connect=&quot;1&quot; arrows=&quot;1&quot; fold=&quot;1&quot; page=&quot;1&quot; pageScale=&quot;1&quot; pageWidth=&quot;827&quot; pageHeight=&quot;1169&quot; math=&quot;0&quot; shadow=&quot;0&quot;&gt;&#10;      &lt;root&gt;&#10;        &lt;mxCell id=&quot;0&quot; /&gt;&#10;        &lt;mxCell id=&quot;1&quot; parent=&quot;0&quot; /&gt;&#10;        &lt;mxCell id=&quot;2&quot; value=&quot;&quot; style=&quot;sketch=0;points=[[0.015,0.015,0],[0.985,0.015,0],[0.985,0.985,0],[0.015,0.985,0],[0.25,0,0],[0.5,0,0],[0.75,0,0],[1,0.25,0],[1,0.5,0],[1,0.75,0],[0.75,1,0],[0.5,1,0],[0.25,1,0],[0,0.75,0],[0,0.5,0],[0,0.25,0]];verticalLabelPosition=bottom;html=1;verticalAlign=top;aspect=fixed;align=center;pointerEvents=1;shape=mxgraph.cisco19.rect;prIcon=storage;fillColor=#FAFAFA;strokeColor=#3C708A;&quot; vertex=&quot;1&quot; parent=&quot;1&quot;&gt;&#10;          &lt;mxGeometry x=&quot;233&quot; y=&quot;870&quot; width=&quot;57.6&quot; height=&quot;45&quot; as=&quot;geometry&quot; /&gt;&#10;        &lt;/mxCell&gt;&#10;      &lt;/root&gt;&#10;    &lt;/mxGraphModel&gt;&#10;  &lt;/diagram&gt;&#10;&lt;/mxfile&gt;&#10;"><defs/><g><g><rect x="0" y="0" width="57.6" height="45" fill="none" stroke="none" pointer-events="all"/><path d="M 2.72 0 C 1.22 0 0 1.24 0 2.75 L 0 42.25 C 0 43.76 1.22 45 2.72 45 L 54.88 45 C 56.37 45 57.6 43.76 57.6 42.25 L 57.6 2.75 C 57.6 1.24 56.37 0 54.88 0 Z" fill="#fafafa" stroke="none" pointer-events="all"/><rect x="0" y="0" width="57.6" height="45" fill="none" stroke="none" pointer-events="all"/><path d="M 46.67 14.93 C 45.06 14.93 43.48 15.02 42.2 15.25 C 41.56 15.37 41 15.51 40.54 15.72 C 40.07 15.92 39.67 16.18 39.47 16.62 C 39.43 16.69 39.41 16.77 39.41 16.85 L 39.41 28.35 C 39.41 28.52 39.5 28.68 39.63 28.78 C 40.25 29.22 41.19 29.5 42.35 29.72 C 43.5 29.94 44.84 30.07 46.13 30.07 C 47.58 30.07 49.01 30 50.23 29.81 C 51.45 29.62 52.46 29.34 53.13 28.75 C 53.25 28.65 53.31 28.5 53.31 28.35 L 53.31 16.85 C 53.31 16.75 53.28 16.65 53.23 16.56 C 52.73 15.78 51.73 15.49 50.55 15.26 C 49.37 15.03 47.98 14.93 46.67 14.93 Z M 46.67 15.98 C 47.93 15.98 49.27 16.08 50.35 16.3 C 51.06 16.43 51.55 16.65 51.9 16.85 C 51.58 17.03 51.14 17.22 50.51 17.35 C 49.51 17.57 48.18 17.69 46.67 17.69 C 45.15 17.69 43.7 17.6 42.55 17.39 C 41.73 17.25 41.17 17.02 40.78 16.79 C 40.84 16.75 40.88 16.72 40.96 16.68 C 41.3 16.53 41.8 16.39 42.38 16.29 C 43.56 16.08 45.1 15.98 46.67 15.98 Z M 40.46 17.87 C 40.99 18.13 41.63 18.3 42.37 18.43 C 43.61 18.66 45.11 18.74 46.67 18.74 C 48.23 18.74 49.62 18.62 50.73 18.38 C 51.32 18.25 51.84 18.1 52.27 17.89 L 52.27 28.04 C 51.85 28.33 51.09 28.61 50.07 28.77 C 48.93 28.95 47.55 29.02 46.13 29.02 C 44.91 29.02 43.62 28.89 42.54 28.68 C 41.6 28.5 40.86 28.24 40.46 28.02 Z M 29.1 14.93 C 27.49 14.93 25.91 15.02 24.64 15.25 C 24 15.37 23.44 15.51 22.97 15.72 C 22.51 15.92 22.11 16.18 21.9 16.62 C 21.87 16.69 21.85 16.77 21.85 16.85 L 21.85 28.35 C 21.85 28.52 21.93 28.68 22.07 28.78 C 22.68 29.22 23.63 29.5 24.78 29.72 C 25.93 29.94 27.27 30.07 28.57 30.07 C 30.02 30.07 31.44 30 32.66 29.81 C 33.88 29.62 34.9 29.34 35.57 28.75 C 35.68 28.65 35.75 28.51 35.75 28.35 L 35.75 16.85 C 35.75 16.75 35.72 16.65 35.66 16.56 C 35.16 15.78 34.16 15.49 32.99 15.26 C 31.81 15.03 30.41 14.93 29.1 14.93 Z M 29.1 15.98 C 30.36 15.98 31.71 16.08 32.79 16.3 C 33.49 16.43 33.99 16.65 34.34 16.85 C 34.01 17.03 33.58 17.22 32.95 17.35 C 31.94 17.57 30.61 17.69 29.1 17.69 C 27.59 17.69 26.13 17.6 24.98 17.39 C 24.16 17.25 23.61 17.02 23.21 16.79 C 23.28 16.75 23.31 16.72 23.39 16.68 C 23.74 16.53 24.23 16.39 24.82 16.29 C 26 16.08 27.53 15.98 29.1 15.98 Z M 22.89 17.87 C 23.43 18.13 24.06 18.3 24.8 18.43 C 26.05 18.66 27.55 18.74 29.1 18.74 C 30.67 18.74 32.05 18.62 33.17 18.38 C 33.76 18.25 34.27 18.1 34.71 17.89 L 34.71 28.04 C 34.29 28.33 33.52 28.61 32.5 28.77 C 31.37 28.95 29.98 29.02 28.57 29.02 C 27.35 29.02 26.06 28.89 24.97 28.68 C 24.03 28.5 23.3 28.24 22.89 28.02 Z M 11.54 14.93 C 9.93 14.93 8.35 15.02 7.07 15.25 C 6.44 15.37 5.87 15.51 5.41 15.72 C 4.95 15.92 4.55 16.18 4.34 16.62 C 4.3 16.69 4.29 16.77 4.29 16.85 L 4.29 28.35 C 4.29 28.52 4.37 28.68 4.5 28.78 C 5.12 29.22 6.06 29.5 7.22 29.72 C 8.37 29.94 9.71 30.07 11 30.07 C 12.45 30.07 13.88 30 15.1 29.81 C 16.32 29.62 17.33 29.34 18 28.75 C 18.12 28.65 18.19 28.51 18.19 28.35 L 18.19 16.85 C 18.19 16.75 18.16 16.65 18.1 16.56 C 17.6 15.78 16.6 15.49 15.42 15.26 C 14.24 15.03 12.85 14.93 11.54 14.93 Z M 11.54 15.98 C 12.8 15.98 14.14 16.08 15.22 16.3 C 15.93 16.43 16.42 16.65 16.78 16.85 C 16.45 17.03 16.01 17.22 15.38 17.35 C 14.38 17.57 13.05 17.69 11.54 17.69 C 11.54 17.69 11.54 17.69 11.54 17.69 C 10.02 17.69 8.57 17.6 7.42 17.39 C 6.6 17.25 6.04 17.02 5.65 16.79 C 5.71 16.75 5.75 16.72 5.83 16.68 C 6.17 16.53 6.67 16.39 7.26 16.29 C 8.43 16.08 9.97 15.98 11.54 15.98 Z M 5.33 17.87 C 5.86 18.13 6.5 18.3 7.24 18.43 C 8.48 18.66 9.98 18.74 11.54 18.74 C 13.1 18.74 14.49 18.62 15.6 18.38 C 16.19 18.25 16.71 18.1 17.14 17.89 L 17.14 28.04 C 16.72 28.33 15.96 28.61 14.94 28.77 C 13.8 28.95 12.42 29.02 11 29.02 C 9.78 29.02 8.49 28.89 7.41 28.68 C 6.47 28.5 5.73 28.24 5.33 28.02 Z M 2.72 0 C 1.22 0 0 1.24 0 2.75 L 0 42.25 C 0 43.76 1.22 45 2.72 45 L 54.88 45 C 56.37 45 57.6 43.76 57.6 42.25 L 57.6 2.75 C 57.6 1.24 56.37 0 54.88 0 Z M 2.72 1.24 L 54.88 1.24 C 55.72 1.24 56.37 1.9 56.37 2.75 L 56.37 42.25 C 56.37 43.1 55.72 43.76 54.88 43.76 L 2.72 43.76 C 1.88 43.76 1.23 43.1 1.23 42.25 L 1.23 2.75 C 1.23 1.9 1.88 1.24 2.72 1.24 Z" fill="#3c708a" stroke="none" pointer-events="all"/></g></g></svg>