<?xml version="1.0" encoding="UTF-8"?>
<!-- Do not edit this file with editors other than draw.io -->
<!DOCTYPE svg PUBLIC "-//W3C//DTD SVG 1.1//EN" "http://www.w3.org/Graphics/SVG/1.1/DTD/svg11.dtd">
<svg xmlns="http://www.w3.org/2000/svg" xmlns:xlink="http://www.w3.org/1999/xlink" version="1.1" width="57px" height="57px" viewBox="-0.5 -0.5 57 57" content="&lt;mxfile host=&quot;Electron&quot; modified=&quot;2024-05-26T18:41:19.849Z&quot; agent=&quot;Mozilla/5.0 (Windows NT 10.0; Win64; x64) AppleWebKit/537.36 (KHTML, like Gecko) draw.io/24.4.8 Chrome/124.0.6367.207 Electron/30.0.6 Safari/537.36&quot; version=&quot;24.4.8&quot; etag=&quot;-RD3YFovEPgsj4FhMPLv&quot; type=&quot;device&quot; scale=&quot;1&quot; border=&quot;0&quot;&gt;&#10;  &lt;diagram name=&quot;Page-1&quot; id=&quot;hBGCiq5DxlCQ5dBjTdvM&quot;&gt;&#10;    &lt;mxGraphModel dx=&quot;1038&quot; dy=&quot;704&quot; grid=&quot;1&quot; gridSize=&quot;10&quot; guides=&quot;1&quot; tooltips=&quot;1&quot; connect=&quot;1&quot; arrows=&quot;1&quot; fold=&quot;1&quot; page=&quot;1&quot; pageScale=&quot;1&quot; pageWidth=&quot;827&quot; pageHeight=&quot;1169&quot; math=&quot;0&quot; shadow=&quot;0&quot;&gt;&#10;      &lt;root&gt;&#10;        &lt;mxCell id=&quot;0&quot; /&gt;&#10;        &lt;mxCell id=&quot;1&quot; parent=&quot;0&quot; /&gt;&#10;        &lt;mxCell id=&quot;2&quot; value=&quot;&quot; style=&quot;sketch=0;points=[[0.5,0,0],[1,0.5,0],[0.5,1,0],[0,0.5,0],[0.145,0.145,0],[0.8555,0.145,0],[0.855,0.8555,0],[0.145,0.855,0]];verticalLabelPosition=bottom;html=1;verticalAlign=top;aspect=fixed;align=center;pointerEvents=1;shape=mxgraph.cisco19.rect;prIcon=asr_9000;fillColor=#FAFAFA;strokeColor=#3C708A;&quot; vertex=&quot;1&quot; parent=&quot;1&quot;&gt;&#10;          &lt;mxGeometry x=&quot;659&quot; y=&quot;703&quot; width=&quot;56&quot; height=&quot;56&quot; as=&quot;geometry&quot; /&gt;&#10;        &lt;/mxCell&gt;&#10;      &lt;/root&gt;&#10;    &lt;/mxGraphModel&gt;&#10;  &lt;/diagram&gt;&#10;&lt;/mxfile&gt;&#10;"><defs/><g><g><ellipse cx="28" cy="28" rx="28" ry="28" fill="#fafafa" stroke="none" pointer-events="all"/><rect x="0" y="0" width="56" height="56" fill="none" stroke="none" pointer-events="all"/><path d="M 18.94 37.55 L 18.94 39.38 L 21.51 39.38 L 25.63 42.27 L 25.63 42.66 L 22.52 42.66 L 22.52 42.25 L 18.94 42.25 L 18.94 44.07 L 22.52 44.07 L 22.52 43.66 L 25.63 43.66 L 25.63 44.38 L 21.99 46.94 L 18.94 46.94 L 18.94 48.76 L 22.52 48.76 L 22.52 47.78 L 25.85 45.45 L 27.5 45.45 L 27.5 46.94 L 26.21 46.94 L 26.21 48.76 L 29.79 48.76 L 29.79 46.94 L 28.5 46.94 L 28.5 45.45 L 30.16 45.45 L 33.48 47.77 L 33.48 48.76 L 37.06 48.76 L 37.06 46.94 L 34.02 46.94 L 30.37 44.37 L 30.37 43.66 L 33.48 43.66 L 33.48 44.07 L 37.06 44.07 L 37.06 42.25 L 33.48 42.25 L 33.48 42.66 L 30.37 42.66 L 30.37 42.28 L 34.51 39.38 L 37.06 39.38 L 37.06 37.55 L 33.48 37.55 L 33.48 38.88 L 30.37 41.07 L 30.37 40.87 L 28.5 40.87 L 28.5 39.38 L 29.79 39.38 L 29.79 37.55 L 26.21 37.55 L 26.21 39.38 L 27.5 39.38 L 27.5 40.87 L 25.63 40.87 L 25.63 41.06 L 22.52 38.87 L 22.52 37.55 Z M 28 0.71 C 43.08 0.71 55.29 12.92 55.29 28 C 55.29 43.08 43.08 55.29 28 55.29 C 12.92 55.29 0.71 43.08 0.71 28 C 0.71 12.92 12.92 0.71 28 0.71 Z M 28 0 C 12.54 0 0 12.54 0 28 C 0 43.46 12.54 56 28 56 C 43.46 56 56 43.46 56 28 C 56 12.54 43.46 0 28 0 Z M 28.85 18.84 L 34.97 12.6 L 32.38 10.06 L 41.71 8.13 L 39.98 17.52 L 37.42 15 L 31.3 21.24 Z M 15.12 7.04 L 21.35 13.16 L 23.89 10.57 L 25.83 19.9 L 16.44 18.17 L 18.95 15.61 L 12.72 9.49 Z M 26.89 25.63 L 20.77 31.87 L 23.36 34.4 L 14.03 36.34 L 15.76 26.95 L 18.33 29.46 L 24.44 23.23 Z M 40.88 37.49 L 34.65 31.38 L 32.11 33.97 L 30.17 24.64 L 39.56 26.37 L 37.05 28.93 L 43.28 35.05 Z" fill="#3c708a" stroke="none" pointer-events="all"/></g></g></svg>