<?xml version="1.0" encoding="UTF-8"?>
<!-- Do not edit this file with editors other than draw.io -->
<!DOCTYPE svg PUBLIC "-//W3C//DTD SVG 1.1//EN" "http://www.w3.org/Graphics/SVG/1.1/DTD/svg11.dtd">
<svg xmlns="http://www.w3.org/2000/svg" xmlns:xlink="http://www.w3.org/1999/xlink" version="1.1" width="51px" height="51px" viewBox="-0.5 -0.5 51 51" content="&lt;mxfile host=&quot;Electron&quot; modified=&quot;2024-05-27T21:25:25.771Z&quot; agent=&quot;Mozilla/5.0 (Windows NT 10.0; Win64; x64) AppleWebKit/537.36 (KHTML, like Gecko) draw.io/24.4.8 Chrome/124.0.6367.207 Electron/30.0.6 Safari/537.36&quot; version=&quot;24.4.8&quot; etag=&quot;Ri8LQ-bsHP55qNRR6YQO&quot; type=&quot;device&quot; scale=&quot;1&quot; border=&quot;0&quot;&gt;&#10;  &lt;diagram name=&quot;Page-1&quot; id=&quot;EcIHWhXZEKzgwUA3Ee8Y&quot;&gt;&#10;    &lt;mxGraphModel dx=&quot;519&quot; dy=&quot;352&quot; grid=&quot;1&quot; gridSize=&quot;10&quot; guides=&quot;1&quot; tooltips=&quot;1&quot; connect=&quot;1&quot; arrows=&quot;1&quot; fold=&quot;1&quot; page=&quot;1&quot; pageScale=&quot;1&quot; pageWidth=&quot;827&quot; pageHeight=&quot;1169&quot; math=&quot;0&quot; shadow=&quot;0&quot;&gt;&#10;      &lt;root&gt;&#10;        &lt;mxCell id=&quot;0&quot; /&gt;&#10;        &lt;mxCell id=&quot;1&quot; parent=&quot;0&quot; /&gt;&#10;        &lt;mxCell id=&quot;2&quot; value=&quot;&quot; style=&quot;sketch=0;points=[[0.5,0,0],[1,0.5,0],[0.5,1,0],[0,0.5,0],[0.145,0.145,0],[0.8555,0.145,0],[0.855,0.8555,0],[0.145,0.855,0]];verticalLabelPosition=bottom;html=1;verticalAlign=top;aspect=fixed;align=center;pointerEvents=1;shape=mxgraph.cisco19.rect;prIcon=secure_router;fillColor=#FAFAFA;strokeColor=#3C708A;&quot; vertex=&quot;1&quot; parent=&quot;1&quot;&gt;&#10;          &lt;mxGeometry x=&quot;633&quot; y=&quot;738.5&quot; width=&quot;50&quot; height=&quot;50&quot; as=&quot;geometry&quot; /&gt;&#10;        &lt;/mxCell&gt;&#10;      &lt;/root&gt;&#10;    &lt;/mxGraphModel&gt;&#10;  &lt;/diagram&gt;&#10;&lt;/mxfile&gt;&#10;"><defs/><g><g><ellipse cx="25" cy="25.5" rx="25" ry="25" fill="#fafafa" stroke="none" pointer-events="all"/><rect x="0" y="0.5" width="50" height="50" fill="none" stroke="none" pointer-events="all"/><path d="M 25.14 33.82 C 26.33 33.82 27.37 34.77 27.37 36.01 L 27.37 38.31 L 22.91 38.31 L 22.91 36.01 C 22.91 35.01 23.66 33.82 25.14 33.82 Z M 25.14 33.19 C 23.32 33.19 22.27 34.68 22.27 36.01 L 22.27 38.31 L 20.38 38.31 L 20.38 44.64 L 29.62 44.64 L 29.62 38.31 L 28 38.31 L 28 36.01 C 28 34.41 26.67 33.19 25.14 33.19 Z M 25.64 40.94 C 25.64 41.2 25.49 41.43 25.25 41.53 L 25.25 43.01 L 24.74 43.01 L 24.74 41.53 C 24.51 41.43 24.36 41.2 24.36 40.94 C 24.36 40.58 24.65 40.3 25 40.3 C 25.35 40.3 25.64 40.58 25.64 40.94 Z M 25 1.13 C 38.46 1.13 49.37 12.04 49.37 25.5 C 49.37 38.96 38.46 49.87 25 49.87 C 11.54 49.87 0.63 38.96 0.63 25.5 C 0.63 12.04 11.54 1.13 25 1.13 Z M 25 0.5 C 11.2 0.5 0 11.7 0 25.5 C 0 39.3 11.2 50.5 25 50.5 C 38.8 50.5 50 39.3 50 25.5 C 50 11.7 38.8 0.5 25 0.5 Z M 25.87 19.69 L 32.14 13.3 L 29.49 10.7 L 39.04 8.71 L 37.27 18.33 L 34.64 15.76 L 28.38 22.14 Z M 11.8 7.6 L 18.19 13.87 L 20.79 11.21 L 22.78 20.77 L 13.16 19 L 15.73 16.37 L 9.35 10.11 Z M 23.86 26.64 L 17.6 33.03 L 20.25 35.62 L 10.69 37.61 L 12.46 27.99 L 15.09 30.57 L 21.36 24.18 Z M 38.19 38.79 L 31.81 32.53 L 29.21 35.18 L 27.22 25.62 L 36.84 27.39 L 34.27 30.02 L 40.65 36.29 Z" fill="#3c708a" stroke="none" pointer-events="all"/></g></g></svg>