<?xml version="1.0" encoding="UTF-8"?>
<!-- Do not edit this file with editors other than draw.io -->
<!DOCTYPE svg PUBLIC "-//W3C//DTD SVG 1.1//EN" "http://www.w3.org/Graphics/SVG/1.1/DTD/svg11.dtd">
<svg xmlns="http://www.w3.org/2000/svg" xmlns:xlink="http://www.w3.org/1999/xlink" version="1.1" width="51px" height="51px" viewBox="-0.5 -0.5 51 51" content="&lt;mxfile host=&quot;Electron&quot; modified=&quot;2024-05-27T21:39:07.186Z&quot; agent=&quot;Mozilla/5.0 (Windows NT 10.0; Win64; x64) AppleWebKit/537.36 (KHTML, like Gecko) draw.io/24.4.8 Chrome/124.0.6367.207 Electron/30.0.6 Safari/537.36&quot; version=&quot;24.4.8&quot; etag=&quot;HLX0StX9s8CP2gMT-eQt&quot; type=&quot;device&quot; scale=&quot;1&quot; border=&quot;0&quot;&gt;&#10;  &lt;diagram name=&quot;Page-1&quot; id=&quot;jbKDZdOF_XcClPhvU4mB&quot;&gt;&#10;    &lt;mxGraphModel dx=&quot;519&quot; dy=&quot;352&quot; grid=&quot;1&quot; gridSize=&quot;10&quot; guides=&quot;1&quot; tooltips=&quot;1&quot; connect=&quot;1&quot; arrows=&quot;1&quot; fold=&quot;1&quot; page=&quot;1&quot; pageScale=&quot;1&quot; pageWidth=&quot;827&quot; pageHeight=&quot;1169&quot; math=&quot;0&quot; shadow=&quot;0&quot;&gt;&#10;      &lt;root&gt;&#10;        &lt;mxCell id=&quot;0&quot; /&gt;&#10;        &lt;mxCell id=&quot;1&quot; parent=&quot;0&quot; /&gt;&#10;        &lt;mxCell id=&quot;2&quot; value=&quot;&quot; style=&quot;sketch=0;points=[[0.5,0,0],[1,0.5,0],[0.5,1,0],[0,0.5,0],[0.145,0.145,0],[0.8555,0.145,0],[0.855,0.8555,0],[0.145,0.855,0]];verticalLabelPosition=bottom;html=1;verticalAlign=top;aspect=fixed;align=center;pointerEvents=1;shape=mxgraph.cisco19.rect;prIcon=vbond;fillColor=default;strokeColor=#6823AD;movable=1;resizable=1;rotatable=1;deletable=1;editable=1;locked=0;connectable=1;&quot; vertex=&quot;1&quot; parent=&quot;1&quot;&gt;&#10;          &lt;mxGeometry x=&quot;87&quot; y=&quot;436.33&quot; width=&quot;50&quot; height=&quot;50&quot; as=&quot;geometry&quot; /&gt;&#10;        &lt;/mxCell&gt;&#10;      &lt;/root&gt;&#10;    &lt;/mxGraphModel&gt;&#10;  &lt;/diagram&gt;&#10;&lt;/mxfile&gt;&#10;"><defs/><g><g><ellipse cx="25" cy="25.33" rx="25" ry="25" fill="rgb(255, 255, 255)" stroke="none" pointer-events="all"/><rect x="0" y="0.33" width="50" height="50" fill="none" stroke="none" pointer-events="all"/><path d="M 25 9.01 C 17.03 9.01 10.39 14.74 8.96 22.29 L 4.25 22.29 L 4.25 28.37 L 8.96 28.37 C 10.39 35.92 17.03 41.65 25 41.65 C 32.96 41.65 39.61 35.92 41.04 28.37 L 45.75 28.37 L 45.75 22.29 L 41.04 22.29 C 39.61 14.74 32.97 9.01 25 9.01 Z M 25 10.78 C 32 10.78 37.83 15.71 39.23 22.29 L 33.17 22.29 L 33.17 28.37 L 39.23 28.37 C 37.83 34.95 32 39.88 25 39.88 C 18 39.88 12.17 34.95 10.77 28.37 L 16.83 28.37 L 16.83 22.29 L 10.77 22.29 C 12.17 15.71 18 10.78 25 10.78 Z M 25 0.96 C 38.46 0.96 49.37 11.87 49.37 25.33 C 49.37 38.79 38.46 49.7 25 49.7 C 11.54 49.7 0.63 38.79 0.63 25.33 C 0.63 11.87 11.54 0.96 25 0.96 Z M 25 0.33 C 11.2 0.33 0 11.53 0 25.33 C 0 39.13 11.2 50.33 25 50.33 C 38.8 50.33 50 39.13 50 25.33 C 50 11.53 38.8 0.33 25 0.33 Z" fill="#6823ad" stroke="none" pointer-events="all"/></g></g></svg>