<?xml version="1.0" encoding="UTF-8"?>
<!-- Do not edit this file with editors other than draw.io -->
<!DOCTYPE svg PUBLIC "-//W3C//DTD SVG 1.1//EN" "http://www.w3.org/Graphics/SVG/1.1/DTD/svg11.dtd">
<svg xmlns="http://www.w3.org/2000/svg" xmlns:xlink="http://www.w3.org/1999/xlink" version="1.1" width="46px" height="60px" viewBox="-0.5 -0.5 46 60" content="&lt;mxfile host=&quot;Electron&quot; modified=&quot;2024-05-27T08:21:17.925Z&quot; agent=&quot;Mozilla/5.0 (Windows NT 10.0; Win64; x64) AppleWebKit/537.36 (KHTML, like Gecko) draw.io/24.4.8 Chrome/124.0.6367.207 Electron/30.0.6 Safari/537.36&quot; version=&quot;24.4.8&quot; etag=&quot;-Wx73rRc0UHLYwS6r5MS&quot; type=&quot;device&quot; scale=&quot;1&quot; border=&quot;0&quot;&gt;&#10;  &lt;diagram name=&quot;Page-1&quot; id=&quot;hVJ0K78vdol9YeeOarc_&quot;&gt;&#10;    &lt;mxGraphModel dx=&quot;519&quot; dy=&quot;352&quot; grid=&quot;1&quot; gridSize=&quot;10&quot; guides=&quot;1&quot; tooltips=&quot;1&quot; connect=&quot;1&quot; arrows=&quot;1&quot; fold=&quot;1&quot; page=&quot;1&quot; pageScale=&quot;1&quot; pageWidth=&quot;827&quot; pageHeight=&quot;1169&quot; math=&quot;0&quot; shadow=&quot;0&quot;&gt;&#10;      &lt;root&gt;&#10;        &lt;mxCell id=&quot;0&quot; /&gt;&#10;        &lt;mxCell id=&quot;1&quot; parent=&quot;0&quot; /&gt;&#10;        &lt;mxCell id=&quot;2&quot; value=&quot;&quot; style=&quot;sketch=0;points=[[0.015,0.015,0],[0.985,0.015,0],[0.985,0.985,0],[0.015,0.985,0],[0.25,0,0],[0.5,0,0],[0.75,0,0],[1,0.25,0],[1,0.5,0],[1,0.75,0],[0.75,1,0],[0.5,1,0],[0.25,1,0],[0,0.75,0],[0,0.5,0],[0,0.25,0]];verticalLabelPosition=bottom;html=1;verticalAlign=top;aspect=fixed;align=center;pointerEvents=1;shape=mxgraph.cisco19.rect;prIcon=hypervisor;fillColor=#FAFAFA;strokeColor=#3C708A;&quot; vertex=&quot;1&quot; parent=&quot;1&quot;&gt;&#10;          &lt;mxGeometry x=&quot;135.5&quot; y=&quot;856.5&quot; width=&quot;45&quot; height=&quot;58.5&quot; as=&quot;geometry&quot; /&gt;&#10;        &lt;/mxCell&gt;&#10;      &lt;/root&gt;&#10;    &lt;/mxGraphModel&gt;&#10;  &lt;/diagram&gt;&#10;&lt;/mxfile&gt;&#10;"><defs/><g><g><rect x="0.5" y="0.5" width="45" height="58.5" fill="none" stroke="none" pointer-events="all"/><path d="M 3.26 0.5 C 1.74 0.5 0.5 1.69 0.5 3.15 L 0.5 56.35 C 0.5 57.81 1.74 59 3.26 59 L 42.74 59 C 44.26 59 45.5 57.81 45.5 56.35 L 45.5 3.15 C 45.5 1.69 44.26 0.5 42.74 0.5 Z" fill="#fafafa" stroke="none" pointer-events="all"/><rect x="0.5" y="0.5" width="45" height="58.5" fill="none" stroke="none" pointer-events="all"/><path d="M 7.68 5.4 L 38.68 5.4 C 40.01 5.4 41.08 6.43 41.08 7.71 L 41.08 25.49 C 41.08 26.78 40.01 27.81 38.68 27.81 L 7.68 27.81 C 6.35 27.81 5.28 26.78 5.28 25.49 L 5.28 7.71 C 5.28 6.43 6.35 5.4 7.68 5.4 Z M 7.68 31.78 L 38.68 31.78 C 40.01 31.78 41.08 32.82 41.08 34.1 L 41.08 51.88 C 41.08 53.16 40.01 54.19 38.68 54.19 L 7.68 54.19 C 6.35 54.19 5.28 53.16 5.28 51.88 L 5.28 34.1 C 5.28 32.82 6.35 31.78 7.68 31.78 Z M 3.26 1.7 L 42.74 1.7 C 43.59 1.7 44.25 2.34 44.25 3.16 L 44.25 56.34 C 44.25 57.16 43.59 57.8 42.74 57.8 L 3.26 57.8 C 2.41 57.8 1.75 57.16 1.75 56.34 L 1.75 3.16 C 1.75 2.34 2.41 1.7 3.26 1.7 Z M 3.26 0.5 C 1.74 0.5 0.5 1.69 0.5 3.16 L 0.5 56.34 C 0.5 57.8 1.74 59 3.26 59 L 42.74 59 C 44.26 59 45.5 57.8 45.5 56.34 L 45.5 3.16 C 45.5 1.69 44.26 0.5 42.74 0.5 Z" fill="#3c708a" stroke="none" pointer-events="all"/><path d="M 24.58 44.72 C 24.81 47.19 26.57 48.62 29.5 48.62 C 31.67 48.62 34.27 47.87 34.27 45.22 C 34.27 42.72 32.71 42.03 30.45 41.6 C 28.97 41.35 27.33 40.91 27.33 39.92 C 27.33 39.28 28.58 38.79 29.5 38.79 C 30.5 38.79 31.48 39.49 31.51 40.44 L 34.01 40.45 C 33.9 38.62 32.58 36.98 29.47 36.98 C 27.66 36.98 25.06 37.69 25.06 40.2 C 25.06 42.48 27.57 43.3 28.8 43.47 C 30.88 43.83 31.9 44.21 31.9 45.17 C 31.9 46.22 30.85 46.76 29.63 46.76 C 28.19 46.76 27.11 46.06 26.96 44.65 Z M 17.63 46.75 C 15.47 46.75 14.23 45.06 14.23 42.82 C 14.23 39.98 15.81 38.97 17.68 38.97 C 19.29 38.97 20.8 39.94 20.8 42.89 C 20.8 45.68 19.1 46.75 17.63 46.75 Z M 17.39 48.64 C 20.97 48.64 23.34 46.34 23.34 42.91 C 23.34 38.46 20.05 36.98 17.75 36.98 C 14.25 36.98 11.75 38.56 11.75 42.85 C 11.75 47.2 14.9 48.64 17.39 48.64 Z M 7.74 32.55 L 38.62 32.55 C 39.47 32.55 40.14 33.21 40.14 34.02 L 40.14 52.13 C 40.14 52.94 39.47 53.59 38.62 53.59 L 7.74 53.59 C 6.89 53.59 6.21 52.94 6.21 52.13 L 6.21 34.02 C 6.21 33.21 6.89 32.55 7.74 32.55 Z M 23.47 21.99 L 25.73 21.99 L 25.73 12.98 L 28.05 21.99 L 30.4 21.99 L 32.85 13.16 L 32.85 21.99 L 34.99 21.99 L 34.99 10.69 L 31.38 10.69 L 29.23 18.36 L 27.07 10.69 L 23.47 10.69 Z M 15.44 21.99 L 17.98 21.99 L 22.25 10.69 L 19.68 10.69 L 16.77 19.15 L 13.69 10.69 L 11.14 10.69 Z M 7.74 6.17 L 38.62 6.17 C 39.47 6.17 40.14 6.83 40.14 7.64 L 40.14 25.74 C 40.14 26.55 39.47 27.21 38.62 27.21 L 7.74 27.21 C 6.89 27.21 6.21 26.55 6.21 25.74 L 6.21 7.64 C 6.21 6.83 6.89 6.17 7.74 6.17 Z" fill-opacity="0.5" fill="#ffffff" stroke="none" pointer-events="all"/></g></g></svg>