<?xml version="1.0" encoding="UTF-8"?>
<!-- Do not edit this file with editors other than draw.io -->
<!DOCTYPE svg PUBLIC "-//W3C//DTD SVG 1.1//EN" "http://www.w3.org/Graphics/SVG/1.1/DTD/svg11.dtd">
<svg xmlns="http://www.w3.org/2000/svg" xmlns:xlink="http://www.w3.org/1999/xlink" version="1.1" width="46px" height="67px" viewBox="-0.5 -0.5 46 67" content="&lt;mxfile host=&quot;Electron&quot; modified=&quot;2024-05-27T21:50:36.206Z&quot; agent=&quot;Mozilla/5.0 (Windows NT 10.0; Win64; x64) AppleWebKit/537.36 (KHTML, like Gecko) draw.io/24.4.8 Chrome/124.0.6367.207 Electron/30.0.6 Safari/537.36&quot; version=&quot;24.4.8&quot; etag=&quot;iACx42PIncppTYUj13dk&quot; type=&quot;device&quot; scale=&quot;1&quot; border=&quot;0&quot;&gt;&#10;  &lt;diagram name=&quot;Page-1&quot; id=&quot;a0HhcrMRpW_Oa-APa_ca&quot;&gt;&#10;    &lt;mxGraphModel dx=&quot;1038&quot; dy=&quot;704&quot; grid=&quot;1&quot; gridSize=&quot;10&quot; guides=&quot;1&quot; tooltips=&quot;1&quot; connect=&quot;1&quot; arrows=&quot;1&quot; fold=&quot;1&quot; page=&quot;1&quot; pageScale=&quot;1&quot; pageWidth=&quot;827&quot; pageHeight=&quot;1169&quot; math=&quot;0&quot; shadow=&quot;0&quot;&gt;&#10;      &lt;root&gt;&#10;        &lt;mxCell id=&quot;0&quot; /&gt;&#10;        &lt;mxCell id=&quot;1&quot; parent=&quot;0&quot; /&gt;&#10;        &lt;mxCell id=&quot;2&quot; value=&quot;&quot; style=&quot;sketch=0;points=[[0.015,0.015,0],[0.985,0.015,0],[0.985,0.985,0],[0.015,0.985,0],[0.25,0,0],[0.5,0,0],[0.75,0,0],[1,0.25,0],[1,0.5,0],[1,0.75,0],[0.75,1,0],[0.5,1,0],[0.25,1,0],[0,0.75,0],[0,0.5,0],[0,0.25,0]];verticalLabelPosition=bottom;html=1;verticalAlign=top;aspect=fixed;align=center;pointerEvents=1;shape=mxgraph.cisco19.rect;prIcon=l3_modular;fillColor=#FAFAFA;strokeColor=#009900;&quot; vertex=&quot;1&quot; parent=&quot;1&quot;&gt;&#10;          &lt;mxGeometry x=&quot;178&quot; y=&quot;17.480000000000018&quot; width=&quot;45&quot; height=&quot;65.7&quot; as=&quot;geometry&quot; /&gt;&#10;        &lt;/mxCell&gt;&#10;      &lt;/root&gt;&#10;    &lt;/mxGraphModel&gt;&#10;  &lt;/diagram&gt;&#10;&lt;/mxfile&gt;&#10;"><defs/><g><g><rect x="0" y="0.48" width="45" height="65.7" fill="none" stroke="none" pointer-events="all"/><path d="M 2.76 21.04 C 1.24 21.04 0 22.27 0 23.79 L 0 63.43 C 0 64.94 1.24 66.18 2.76 66.18 L 42.24 66.18 C 43.76 66.18 45 64.94 45 63.43 L 45 23.79 C 45 22.27 43.76 21.04 42.24 21.04 Z M 2.76 0.48 C 1.24 0.48 0 1.72 0 3.24 L 0 16.46 C 0 17.97 1.24 19.21 2.76 19.21 L 42.24 19.21 C 43.76 19.21 45 17.97 45 16.46 L 45 3.24 C 45 1.72 43.76 0.48 42.24 0.48 Z" fill="#fafafa" stroke="none" pointer-events="all"/><rect x="0" y="0.48" width="45" height="65.7" fill="none" stroke="none" pointer-events="all"/><path d="M 22.67 25.55 L 18.9 30.96 L 21.41 30.96 L 21.41 36.71 C 20.3 36.9 19.26 37.34 18.35 37.99 L 14.27 33.93 L 16.03 32.16 L 9.56 30.98 L 10.75 37.46 L 12.52 35.69 L 16.6 39.75 C 15.98 40.64 15.56 41.66 15.38 42.73 L 9.62 42.73 L 9.62 40.23 L 4.19 43.95 L 9.62 47.7 L 9.62 45.21 L 15.37 45.21 C 15.56 46.29 15.99 47.31 16.62 48.2 L 12.55 52.28 L 10.77 50.51 L 9.61 57 L 16.07 55.8 L 14.3 54.03 L 18.37 49.97 C 19.27 50.61 20.31 51.04 21.41 51.22 L 21.41 56.97 L 18.9 56.97 L 22.67 62.39 L 26.39 56.97 L 23.89 56.97 L 23.89 51.23 C 24.97 51.04 26 50.61 26.9 49.97 L 30.99 54.03 L 29.23 55.8 L 35.73 56.96 L 34.51 50.5 L 32.74 52.27 L 28.66 48.22 C 29.3 47.32 29.72 46.29 29.91 45.21 L 35.67 45.21 L 35.67 47.7 L 41.1 43.95 L 35.67 40.23 L 35.67 42.73 L 29.92 42.73 C 29.73 41.63 29.29 40.6 28.64 39.7 L 32.71 35.63 L 34.48 37.39 L 35.68 30.93 L 29.19 32.11 L 30.96 33.87 L 26.88 37.94 C 25.99 37.32 24.97 36.9 23.89 36.72 L 23.89 30.96 L 26.39 30.96 Z M 22.72 10.3 L 29.93 13.12 L 29.93 13.64 L 15.36 13.64 L 15.36 13.17 Z M 15.36 6.04 L 29.93 6.04 L 29.93 6.73 L 22.72 9.54 L 15.36 6.67 Z M 8.66 4.03 L 8.66 7.35 L 15.15 7.35 L 21.75 9.92 L 15.36 12.41 L 15.36 12.36 L 8.66 12.36 L 8.66 15.67 L 15.36 15.67 L 15.36 14.34 L 29.93 14.34 L 29.93 15.67 L 36.63 15.67 L 36.63 12.36 L 29.93 12.36 L 29.93 12.36 L 23.69 9.92 L 30.29 7.35 L 36.63 7.35 L 36.63 4.03 L 29.93 4.03 L 29.93 5.34 L 15.36 5.34 L 15.36 4.03 Z M 2.76 0.48 C 1.24 0.48 0 1.72 0 3.24 L 0 16.46 C 0 17.97 1.24 19.21 2.76 19.21 L 42.24 19.21 C 43.76 19.21 45 17.97 45 16.46 L 45 3.24 C 45 1.72 43.76 0.48 42.24 0.48 Z M 2.76 1.72 L 42.24 1.72 C 43.09 1.72 43.75 2.39 43.75 3.24 L 43.75 16.46 C 43.75 17.31 43.09 17.97 42.24 17.97 L 2.76 17.97 C 1.91 17.97 1.25 17.31 1.25 16.46 L 1.25 3.24 C 1.25 2.39 1.91 1.72 2.76 1.72 Z M 2.76 21.04 C 1.24 21.04 0 22.27 0 23.79 L 0 63.43 C 0 64.94 1.24 66.18 2.76 66.18 L 42.24 66.18 C 43.76 66.18 45 64.94 45 63.43 L 45 23.79 C 45 22.27 43.76 21.04 42.24 21.04 Z M 2.76 22.28 L 42.24 22.28 C 43.09 22.28 43.75 22.94 43.75 23.79 L 43.75 63.43 C 43.75 64.27 43.09 64.94 42.24 64.94 L 2.76 64.94 C 1.91 64.94 1.25 64.27 1.25 63.43 L 1.25 23.79 C 1.25 22.94 1.91 22.28 2.76 22.28 Z" fill="#009900" stroke="none" pointer-events="all"/></g></g></svg>