<?xml version="1.0" encoding="UTF-8"?>
<!-- Do not edit this file with editors other than draw.io -->
<!DOCTYPE svg PUBLIC "-//W3C//DTD SVG 1.1//EN" "http://www.w3.org/Graphics/SVG/1.1/DTD/svg11.dtd">
<svg xmlns="http://www.w3.org/2000/svg" xmlns:xlink="http://www.w3.org/1999/xlink" version="1.1" width="46px" height="67px" viewBox="-0.5 -0.5 46 67" content="&lt;mxfile host=&quot;Electron&quot; modified=&quot;2024-05-27T21:48:57.107Z&quot; agent=&quot;Mozilla/5.0 (Windows NT 10.0; Win64; x64) AppleWebKit/537.36 (KHTML, like Gecko) draw.io/24.4.8 Chrome/124.0.6367.207 Electron/30.0.6 Safari/537.36&quot; version=&quot;24.4.8&quot; etag=&quot;QcQ0Vd6aanUwrl4UgYB7&quot; type=&quot;device&quot; scale=&quot;1&quot; border=&quot;0&quot;&gt;&#10;  &lt;diagram name=&quot;Page-1&quot; id=&quot;IngGCaUrMiVMOxpPgz1o&quot;&gt;&#10;    &lt;mxGraphModel dx=&quot;1038&quot; dy=&quot;704&quot; grid=&quot;1&quot; gridSize=&quot;10&quot; guides=&quot;1&quot; tooltips=&quot;1&quot; connect=&quot;1&quot; arrows=&quot;1&quot; fold=&quot;1&quot; page=&quot;1&quot; pageScale=&quot;1&quot; pageWidth=&quot;827&quot; pageHeight=&quot;1169&quot; math=&quot;0&quot; shadow=&quot;0&quot;&gt;&#10;      &lt;root&gt;&#10;        &lt;mxCell id=&quot;0&quot; /&gt;&#10;        &lt;mxCell id=&quot;1&quot; parent=&quot;0&quot; /&gt;&#10;        &lt;mxCell id=&quot;2&quot; value=&quot;&quot; style=&quot;sketch=0;points=[[0.015,0.015,0],[0.985,0.015,0],[0.985,0.985,0],[0.015,0.985,0],[0.25,0,0],[0.5,0,0],[0.75,0,0],[1,0.25,0],[1,0.5,0],[1,0.75,0],[0.75,1,0],[0.5,1,0],[0.25,1,0],[0,0.75,0],[0,0.5,0],[0,0.25,0]];verticalLabelPosition=bottom;html=1;verticalAlign=top;aspect=fixed;align=center;pointerEvents=1;shape=mxgraph.cisco19.rect;prIcon=nexus_7k;fillColor=#FAFAFA;strokeColor=#009900;&quot; vertex=&quot;1&quot; parent=&quot;1&quot;&gt;&#10;          &lt;mxGeometry x=&quot;100&quot; y=&quot;25.439999999999998&quot; width=&quot;45&quot; height=&quot;65.7&quot; as=&quot;geometry&quot; /&gt;&#10;        &lt;/mxCell&gt;&#10;      &lt;/root&gt;&#10;    &lt;/mxGraphModel&gt;&#10;  &lt;/diagram&gt;&#10;&lt;/mxfile&gt;&#10;"><defs/><g><g><rect x="0" y="0.44" width="45" height="65.7" fill="none" stroke="none" pointer-events="all"/><path d="M 2.76 21 C 1.24 21 0 22.23 0 23.75 L 0 63.39 C 0 64.9 1.24 66.14 2.76 66.14 L 42.24 66.14 C 43.76 66.14 45 64.9 45 63.39 L 45 23.75 C 45 22.23 43.76 21 42.24 21 Z M 2.76 0.44 C 1.24 0.44 0 1.68 0 3.2 L 0 16.42 C 0 17.93 1.24 19.17 2.76 19.17 L 42.24 19.17 C 43.76 19.17 45 17.93 45 16.42 L 45 3.2 C 45 1.68 43.76 0.44 42.24 0.44 Z" fill="#fafafa" stroke="none" pointer-events="all"/><rect x="0" y="0.44" width="45" height="65.7" fill="none" stroke="none" pointer-events="all"/><path d="M 16.9 45.12 C 17.44 47.05 18.94 48.57 20.86 49.13 C 18.75 50.95 16.76 52.45 15.06 53.53 C 13.72 54.38 12.55 54.96 11.71 55.22 C 11.29 55.36 10.96 55.4 10.75 55.4 C 10.55 55.39 10.52 55.35 10.52 55.35 C 10.52 55.34 10.48 55.32 10.48 55.11 C 10.47 54.91 10.52 54.58 10.66 54.16 C 10.94 53.33 11.54 52.17 12.41 50.84 C 13.52 49.16 15.05 47.2 16.9 45.12 Z M 28.09 45.12 C 29.94 47.19 31.48 49.16 32.59 50.84 C 33.46 52.17 34.06 53.33 34.34 54.16 C 34.48 54.58 34.53 54.91 34.53 55.11 C 34.52 55.32 34.48 55.35 34.48 55.35 C 34.48 55.35 34.45 55.39 34.25 55.4 C 34.04 55.4 33.71 55.36 33.29 55.22 C 32.45 54.96 31.28 54.38 29.94 53.53 C 28.24 52.45 26.25 50.95 24.14 49.13 C 26.06 48.56 27.56 47.05 28.09 45.12 Z M 10.76 31.74 C 10.96 31.73 11.29 31.78 11.71 31.91 C 12.55 32.18 13.72 32.76 15.06 33.61 C 16.76 34.69 18.75 36.19 20.86 38.01 C 18.94 38.57 17.44 40.09 16.91 42.02 C 15.06 39.94 13.52 37.98 12.41 36.29 C 11.54 34.97 10.94 33.81 10.66 32.98 C 10.52 32.56 10.47 32.22 10.48 32.02 C 10.48 31.82 10.52 31.79 10.52 31.79 C 10.52 31.79 10.55 31.75 10.76 31.74 Z M 34.25 31.74 C 34.45 31.75 34.48 31.78 34.48 31.79 C 34.48 31.79 34.52 31.82 34.53 32.02 C 34.53 32.22 34.48 32.56 34.34 32.98 C 34.06 33.81 33.46 34.97 32.59 36.29 C 31.48 37.97 29.95 39.94 28.1 42.01 C 27.56 40.09 26.06 38.57 24.14 38 C 26.25 36.19 28.24 34.69 29.94 33.61 C 31.28 32.76 32.45 32.18 33.29 31.91 C 33.71 31.78 34.04 31.73 34.25 31.74 Z M 22.56 27.53 L 19.54 30.41 L 21.68 30.41 L 21.68 36.53 C 19.62 34.78 17.66 33.31 15.94 32.22 C 14.53 31.32 13.28 30.68 12.21 30.34 C 11.67 30.17 11.18 30.08 10.7 30.09 C 10.22 30.11 9.71 30.26 9.34 30.63 C 8.98 31 8.84 31.51 8.83 31.99 C 8.82 32.47 8.92 32.96 9.1 33.5 C 9.45 34.56 10.12 35.8 11.04 37.2 C 12.13 38.87 13.6 40.76 15.35 42.75 L 9.32 42.75 L 9.32 40.62 L 6.44 43.63 L 9.32 46.52 L 9.32 44.54 L 15.21 44.54 C 13.52 46.47 12.11 48.31 11.04 49.94 C 10.12 51.34 9.45 52.58 9.1 53.64 C 8.92 54.17 8.82 54.66 8.83 55.14 C 8.83 55.63 8.98 56.13 9.34 56.5 C 9.71 56.87 10.22 57.03 10.7 57.04 C 11.18 57.06 11.67 56.96 12.21 56.79 C 13.28 56.46 14.53 55.81 15.94 54.92 C 17.66 53.83 19.62 52.36 21.68 50.6 L 21.68 56.72 L 19.54 56.72 L 22.56 59.61 L 25.46 56.72 L 23.48 56.72 L 23.48 50.73 C 25.48 52.43 27.38 53.85 29.06 54.92 C 30.47 55.81 31.72 56.46 32.79 56.8 C 33.33 56.96 33.82 57.06 34.3 57.04 C 34.78 57.03 35.29 56.88 35.66 56.5 C 36.02 56.13 36.16 55.63 36.17 55.14 C 36.18 54.66 36.08 54.17 35.9 53.64 C 35.55 52.58 34.88 51.34 33.96 49.94 C 32.9 48.31 31.48 46.47 29.79 44.54 L 35.68 44.54 L 35.68 46.52 L 38.56 43.63 L 35.68 40.62 L 35.68 42.75 L 29.65 42.75 C 31.4 40.76 32.87 38.87 33.96 37.2 C 34.88 35.8 35.55 34.56 35.9 33.5 C 36.08 32.96 36.18 32.47 36.17 31.99 C 36.16 31.51 36.02 31 35.66 30.63 C 35.29 30.26 34.78 30.11 34.3 30.09 C 33.82 30.08 33.33 30.18 32.79 30.34 C 31.72 30.68 30.47 31.32 29.06 32.22 C 27.38 33.28 25.48 34.71 23.48 36.4 L 23.48 30.41 L 25.46 30.41 Z M 22.57 10.26 L 29.79 13.08 L 29.79 13.6 L 15.21 13.6 L 15.21 13.13 Z M 15.21 6 L 29.79 6 L 29.79 6.69 L 22.57 9.5 L 15.21 6.63 Z M 8.51 3.99 L 8.51 7.31 L 15 7.31 L 21.6 9.88 L 15.21 12.37 L 15.21 12.32 L 8.51 12.32 L 8.51 15.63 L 15.21 15.63 L 15.21 14.3 L 29.79 14.3 L 29.79 15.63 L 36.49 15.63 L 36.49 12.32 L 29.79 12.32 L 29.79 12.32 L 23.54 9.88 L 30.14 7.31 L 36.49 7.31 L 36.49 3.99 L 29.79 3.99 L 29.79 5.3 L 15.21 5.3 L 15.21 3.99 Z M 2.76 22.24 L 42.24 22.24 C 43.09 22.24 43.75 22.9 43.75 23.75 L 43.75 63.39 C 43.75 64.23 43.09 64.9 42.24 64.9 L 2.76 64.9 C 1.91 64.9 1.25 64.23 1.25 63.39 L 1.25 23.75 C 1.25 22.9 1.91 22.24 2.76 22.24 Z M 2.76 21 C 1.24 21 0 22.23 0 23.75 L 0 63.39 C 0 64.9 1.24 66.14 2.76 66.14 L 42.24 66.14 C 43.76 66.14 45 64.9 45 63.39 L 45 23.75 C 45 22.23 43.76 21 42.24 21 Z M 2.76 1.68 L 42.24 1.68 C 43.09 1.68 43.75 2.35 43.75 3.2 L 43.75 16.42 C 43.75 17.27 43.09 17.93 42.24 17.93 L 2.76 17.93 C 1.91 17.93 1.25 17.27 1.25 16.42 L 1.25 3.2 C 1.25 2.35 1.91 1.68 2.76 1.68 Z M 2.76 0.44 C 1.24 0.44 0 1.68 0 3.2 L 0 16.42 C 0 17.93 1.24 19.17 2.76 19.17 L 42.24 19.17 C 43.76 19.17 45 17.93 45 16.42 L 45 3.2 C 45 1.68 43.76 0.44 42.24 0.44 Z" fill="#009900" stroke="none" pointer-events="all"/></g></g></svg>