<?xml version="1.0" encoding="UTF-8"?>
<!-- Do not edit this file with editors other than draw.io -->
<!DOCTYPE svg PUBLIC "-//W3C//DTD SVG 1.1//EN" "http://www.w3.org/Graphics/SVG/1.1/DTD/svg11.dtd">
<svg xmlns="http://www.w3.org/2000/svg" xmlns:xlink="http://www.w3.org/1999/xlink" version="1.1" width="51px" height="51px" viewBox="-0.5 -0.5 51 51" content="&lt;mxfile host=&quot;Electron&quot; modified=&quot;2024-05-26T22:39:05.690Z&quot; agent=&quot;Mozilla/5.0 (Windows NT 10.0; Win64; x64) AppleWebKit/537.36 (KHTML, like Gecko) draw.io/24.4.8 Chrome/124.0.6367.207 Electron/30.0.6 Safari/537.36&quot; version=&quot;24.4.8&quot; etag=&quot;oXHueJa5y_YJGkHyu4nd&quot; type=&quot;device&quot; scale=&quot;1&quot; border=&quot;0&quot;&gt;&#10;  &lt;diagram name=&quot;Page-1&quot; id=&quot;Rz-EpB2RP1dK-wnNC6bi&quot;&gt;&#10;    &lt;mxGraphModel dx=&quot;1038&quot; dy=&quot;704&quot; grid=&quot;1&quot; gridSize=&quot;10&quot; guides=&quot;1&quot; tooltips=&quot;1&quot; connect=&quot;1&quot; arrows=&quot;1&quot; fold=&quot;1&quot; page=&quot;1&quot; pageScale=&quot;1&quot; pageWidth=&quot;827&quot; pageHeight=&quot;1169&quot; math=&quot;0&quot; shadow=&quot;0&quot;&gt;&#10;      &lt;root&gt;&#10;        &lt;mxCell id=&quot;0&quot; /&gt;&#10;        &lt;mxCell id=&quot;1&quot; parent=&quot;0&quot; /&gt;&#10;        &lt;mxCell id=&quot;2&quot; value=&quot;&quot; style=&quot;sketch=0;points=[[0.015,0.015,0],[0.985,0.015,0],[0.985,0.985,0],[0.015,0.985,0],[0.25,0,0],[0.5,0,0],[0.75,0,0],[1,0.25,0],[1,0.5,0],[1,0.75,0],[0.75,1,0],[0.5,1,0],[0.25,1,0],[0,0.75,0],[0,0.5,0],[0,0.25,0]];verticalLabelPosition=bottom;html=1;verticalAlign=top;aspect=fixed;align=center;pointerEvents=1;shape=mxgraph.cisco19.rect;prIcon=unity;fillColor=#FAFAFA;strokeColor=#3C708A;&quot; vertex=&quot;1&quot; parent=&quot;1&quot;&gt;&#10;          &lt;mxGeometry x=&quot;555.63&quot; y=&quot;1010&quot; width=&quot;50&quot; height=&quot;50&quot; as=&quot;geometry&quot; /&gt;&#10;        &lt;/mxCell&gt;&#10;      &lt;/root&gt;&#10;    &lt;/mxGraphModel&gt;&#10;  &lt;/diagram&gt;&#10;&lt;/mxfile&gt;&#10;"><defs/><g><g><rect x="-0.37" y="0" width="50" height="50" fill="none" stroke="none" pointer-events="all"/><path d="M 2.7 0 C 1.01 0 -0.37 1.37 -0.37 3.05 L -0.37 46.95 C -0.37 48.63 1.01 50 2.7 50 L 46.56 50 C 48.25 50 49.63 48.63 49.63 46.95 L 49.63 3.05 C 49.63 1.37 48.25 0 46.56 0 Z" fill="#fafafa" stroke="none" pointer-events="all"/><rect x="-0.37" y="0" width="50" height="50" fill="none" stroke="none" pointer-events="all"/><path d="M 24.36 13.14 C 30.96 13.14 36.3 18.44 36.3 25.01 C 36.3 31.58 30.96 36.89 24.36 36.89 C 17.76 36.89 12.43 31.58 12.43 25.01 C 12.43 18.44 17.76 13.14 24.36 13.14 Z M 20.37 20.3 L 20.37 27.21 C 20.37 28.44 20.85 29.5 21.62 30.17 C 22.39 30.85 23.39 31.14 24.36 31.14 C 25.39 31.14 26.41 30.82 27.2 30.15 C 27.99 29.47 28.51 28.42 28.51 27.21 L 28.51 20.3 L 26.41 20.3 L 26.41 27.21 C 26.41 27.86 26.19 28.26 25.83 28.56 C 25.47 28.87 24.94 29.06 24.36 29.06 C 23.81 29.06 23.32 28.89 23.01 28.61 C 22.69 28.33 22.46 27.94 22.46 27.21 L 22.46 20.3 Z M 2.7 0 C 1.01 0 -0.37 1.37 -0.37 3.05 L -0.37 46.95 C -0.37 48.63 1.01 50 2.7 50 L 46.56 50 C 48.25 50 49.63 48.63 49.63 46.95 L 49.63 3.05 C 49.63 1.37 48.25 0 46.56 0 Z M 2.7 1.38 L 46.56 1.38 C 47.51 1.38 48.25 2.11 48.25 3.05 L 48.25 46.95 C 48.25 47.89 47.51 48.62 46.56 48.62 L 2.7 48.62 C 1.75 48.62 1.01 47.89 1.01 46.95 L 1.01 3.05 C 1.01 2.11 1.75 1.38 2.7 1.38 Z M 11.55 6.21 L 7.51 11.29 L 15.59 11.29 Z M 38.44 8.16 L 38.44 16.2 L 43.54 12.18 Z M 24.37 11.35 L 24.37 11.36 C 24.36 11.36 24.36 11.36 24.36 11.36 C 19.22 11.36 14.74 14.19 12.39 18.37 L 12.39 11.9 L 10.72 11.9 L 10.72 23.64 C 10.67 24.09 10.65 24.55 10.65 25.01 C 10.65 30.16 13.53 34.65 17.76 36.97 L 11.17 36.97 L 11.17 38.64 L 23.53 38.64 C 23.8 38.65 24.08 38.66 24.36 38.66 C 29.55 38.66 34.06 35.79 36.39 31.56 L 36.39 38.14 L 38.06 38.14 L 38.06 25.61 C 38.07 25.41 38.08 25.21 38.08 25.01 C 38.08 19.84 35.17 15.33 30.9 13.01 L 37.82 13.01 L 37.82 11.35 Z M 10.56 33.78 L 5.45 37.81 L 10.56 41.83 Z M 33.19 38.75 L 37.23 43.83 L 41.27 38.75 Z" fill="#3c708a" stroke="none" pointer-events="all"/></g></g></svg>