<?xml version="1.0" encoding="UTF-8"?>
<!-- Do not edit this file with editors other than draw.io -->
<!DOCTYPE svg PUBLIC "-//W3C//DTD SVG 1.1//EN" "http://www.w3.org/Graphics/SVG/1.1/DTD/svg11.dtd">
<svg xmlns="http://www.w3.org/2000/svg" xmlns:xlink="http://www.w3.org/1999/xlink" version="1.1" width="59px" height="46px" viewBox="-0.5 -0.5 59 46" content="&lt;mxfile host=&quot;Electron&quot; modified=&quot;2024-05-28T08:04:32.710Z&quot; agent=&quot;Mozilla/5.0 (Windows NT 10.0; Win64; x64) AppleWebKit/537.36 (KHTML, like Gecko) draw.io/24.4.8 Chrome/124.0.6367.207 Electron/30.0.6 Safari/537.36&quot; version=&quot;24.4.8&quot; etag=&quot;GO_qp86jyigleWJAmm7W&quot; type=&quot;device&quot; scale=&quot;1&quot; border=&quot;0&quot;&gt;&#10;  &lt;diagram name=&quot;Page-1&quot; id=&quot;uSRgDg8CT594_54WnAB2&quot;&gt;&#10;    &lt;mxGraphModel dx=&quot;519&quot; dy=&quot;352&quot; grid=&quot;1&quot; gridSize=&quot;10&quot; guides=&quot;1&quot; tooltips=&quot;1&quot; connect=&quot;1&quot; arrows=&quot;1&quot; fold=&quot;1&quot; page=&quot;1&quot; pageScale=&quot;1&quot; pageWidth=&quot;827&quot; pageHeight=&quot;1169&quot; math=&quot;0&quot; shadow=&quot;0&quot;&gt;&#10;      &lt;root&gt;&#10;        &lt;mxCell id=&quot;0&quot; /&gt;&#10;        &lt;mxCell id=&quot;1&quot; parent=&quot;0&quot; /&gt;&#10;        &lt;mxCell id=&quot;2&quot; value=&quot;&quot; style=&quot;sketch=0;points=[[0.015,0.015,0],[0.985,0.015,0],[0.985,0.985,0],[0.015,0.985,0],[0.25,0,0],[0.5,0,0],[0.75,0,0],[1,0.25,0],[1,0.5,0],[1,0.75,0],[0.75,1,0],[0.5,1,0],[0.25,1,0],[0,0.75,0],[0,0.5,0],[0,0.25,0]];verticalLabelPosition=bottom;html=1;verticalAlign=top;aspect=fixed;align=center;pointerEvents=1;shape=mxgraph.cisco19.rect;prIcon=cisco_unified_presence_service;fillColor=#FAFAFA;strokeColor=#3C708A;&quot; vertex=&quot;1&quot; parent=&quot;1&quot;&gt;&#10;          &lt;mxGeometry x=&quot;43&quot; y=&quot;270&quot; width=&quot;57.6&quot; height=&quot;45&quot; as=&quot;geometry&quot; /&gt;&#10;        &lt;/mxCell&gt;&#10;      &lt;/root&gt;&#10;    &lt;/mxGraphModel&gt;&#10;  &lt;/diagram&gt;&#10;&lt;/mxfile&gt;&#10;"><defs/><g><g><rect x="0" y="0" width="57.6" height="45" fill="none" stroke="none" pointer-events="all"/><path d="M 2.72 0 C 1.22 0 0 1.24 0 2.75 L 0 42.25 C 0 43.76 1.22 45 2.72 45 L 54.88 45 C 56.37 45 57.6 43.76 57.6 42.25 L 57.6 2.75 C 57.6 1.24 56.37 0 54.88 0 Z" fill="#fafafa" stroke="none" pointer-events="all"/><rect x="0" y="0" width="57.6" height="45" fill="none" stroke="none" pointer-events="all"/><path d="M 22.2 35.95 L 40.19 35.96 L 40.19 38.43 C 40.19 38.96 39.77 39.38 39.25 39.38 L 23.14 39.38 C 22.61 39.38 22.2 38.96 22.2 38.43 Z M 40.19 30.45 L 40.19 33.58 L 22.2 33.55 L 22.2 30.47 Z M 30.76 17.85 L 30.76 19.35 C 30.76 19.55 30.92 19.71 31.11 19.71 C 31.3 19.71 31.46 19.55 31.46 19.35 L 31.46 17.85 C 32.1 18.01 32.57 18.59 32.57 19.28 C 32.57 20.1 31.92 20.76 31.11 20.76 C 30.3 20.76 29.65 20.1 29.65 19.28 C 29.65 18.59 30.12 18.01 30.76 17.85 Z M 31.11 17.22 C 29.99 17.22 29.07 18.15 29.07 19.28 C 29.07 20.42 29.99 21.34 31.11 21.34 C 32.23 21.34 33.15 20.42 33.15 19.28 C 33.15 18.15 32.23 17.22 31.11 17.22 Z M 22.2 15.85 L 40.19 15.85 L 40.19 20.41 C 39.09 20.43 37.81 20.44 36.25 20.44 L 36.25 17.08 L 31.26 22.14 L 36.25 27.2 L 36.25 23.73 C 37.78 23.72 39.06 23.71 40.19 23.68 L 40.19 28.05 L 22.2 28.04 Z M 23.14 5.86 L 39.25 5.86 C 39.77 5.86 40.19 6.28 40.19 6.81 L 40.19 13.01 L 22.2 13 L 22.2 6.81 C 22.2 6.28 22.61 5.86 23.14 5.86 Z M 12.77 34.4 C 11.74 34.4 10.9 35.25 10.9 36.29 C 10.9 37.34 11.74 38.19 12.77 38.19 C 13.81 38.19 14.65 37.34 14.65 36.29 C 14.65 35.25 13.81 34.4 12.77 34.4 Z M 12.77 32.05 C 15.11 32.05 16.98 33.94 16.98 36.29 C 16.98 38.65 15.11 40.54 12.77 40.54 C 10.44 40.54 8.57 38.65 8.57 36.29 C 8.57 33.94 10.44 32.05 12.77 32.05 Z M 11.4 20.63 L 10.07 21.94 L 11.38 23.29 L 10.07 24.63 L 11.4 25.94 L 12.68 24.63 L 13.95 25.94 L 15.28 24.63 L 13.98 23.29 L 15.28 21.94 L 13.95 20.63 L 12.68 21.95 Z M 12.68 19.04 C 15.01 19.04 16.88 20.93 16.88 23.29 C 16.88 25.64 15.01 27.54 12.68 27.54 C 10.34 27.54 8.47 25.64 8.47 23.29 C 8.47 20.93 10.34 19.04 12.68 19.04 Z M 15.49 6.92 C 15.47 6.92 15.45 6.92 15.43 6.92 C 15.28 6.93 15.14 7 15.04 7.11 L 11.72 10.65 L 11.58 8.86 C 11.57 8.65 11.45 8.46 11.26 8.36 C 11.07 8.27 10.84 8.29 10.67 8.41 C 10.5 8.53 10.4 8.74 10.42 8.95 L 10.66 12.06 C 10.68 12.29 10.83 12.49 11.04 12.57 C 11.26 12.65 11.5 12.59 11.66 12.42 L 15.88 7.92 C 16.04 7.75 16.09 7.51 16.01 7.29 C 15.92 7.08 15.72 6.93 15.49 6.92 Z M 13.24 5.51 C 15.57 5.51 17.44 7.41 17.44 9.76 C 17.44 12.12 15.57 14.01 13.24 14.01 C 10.9 14.01 9.03 12.12 9.03 9.76 C 9.03 7.41 10.9 5.51 13.24 5.51 Z M 21.5 35.14 L 21.5 38.43 C 21.5 39.34 22.24 40.08 23.14 40.08 L 39.25 40.08 C 40.15 40.08 40.88 39.34 40.88 38.43 L 40.88 35.16 Z M 12.77 30.4 C 9.56 30.4 6.94 33.05 6.94 36.29 C 6.94 39.54 9.56 42.18 12.77 42.18 C 15.98 42.18 18.6 39.54 18.6 36.29 C 18.6 33.05 15.98 30.4 12.77 30.4 Z M 21.5 29.49 L 21.5 34.39 L 40.88 34.38 L 40.88 29.5 Z M 12.68 17.4 C 9.47 17.4 6.85 20.04 6.85 23.29 C 6.85 26.53 9.47 29.18 12.68 29.18 C 15.89 29.18 18.51 26.53 18.51 23.29 C 18.51 20.04 15.89 17.4 12.68 17.4 Z M 23.14 5.16 C 22.24 5.16 21.5 5.9 21.5 6.81 L 21.5 13.8 L 40.88 13.81 L 40.88 6.81 C 40.88 5.9 40.15 5.16 39.25 5.16 Z M 13.24 3.87 C 10.03 3.87 7.41 6.52 7.41 9.76 C 7.41 13.01 10.03 15.65 13.24 15.65 C 16.44 15.65 19.06 13.01 19.06 9.76 C 19.06 6.52 16.44 3.87 13.24 3.87 Z M 2.72 1.24 L 54.88 1.24 C 55.72 1.24 56.37 1.9 56.37 2.75 L 56.37 16.12 C 54.02 17.38 52.01 18.42 48.19 19.46 C 45.71 20.05 44.21 20.29 40.88 20.39 L 40.88 14.91 L 21.5 14.91 L 21.5 28.85 L 40.88 28.86 L 40.88 23.67 C 44.52 23.56 46.33 23.27 48.96 22.65 L 48.99 22.64 L 49.01 22.64 C 52.25 21.76 54.42 20.81 56.37 19.82 L 56.37 42.25 C 56.37 43.1 55.72 43.76 54.88 43.76 L 2.72 43.76 C 1.88 43.76 1.23 43.1 1.23 42.25 L 1.23 2.75 C 1.23 1.9 1.88 1.24 2.72 1.24 Z M 2.72 0 C 1.22 0 0 1.24 0 2.75 L 0 42.25 C 0 43.76 1.22 45 2.72 45 L 54.88 45 C 56.38 45 57.6 43.76 57.6 42.25 L 57.6 2.75 C 57.6 1.24 56.38 0 54.88 0 Z" fill="#3c708a" stroke="none" pointer-events="all"/></g></g></svg>