<?xml version="1.0" encoding="UTF-8"?>
<!-- Do not edit this file with editors other than draw.io -->
<!DOCTYPE svg PUBLIC "-//W3C//DTD SVG 1.1//EN" "http://www.w3.org/Graphics/SVG/1.1/DTD/svg11.dtd">
<svg xmlns="http://www.w3.org/2000/svg" xmlns:xlink="http://www.w3.org/1999/xlink" version="1.1" width="59px" height="46px" viewBox="-0.5 -0.5 59 46" content="&lt;mxfile host=&quot;Electron&quot; modified=&quot;2024-05-26T22:42:48.080Z&quot; agent=&quot;Mozilla/5.0 (Windows NT 10.0; Win64; x64) AppleWebKit/537.36 (KHTML, like Gecko) draw.io/24.4.8 Chrome/124.0.6367.207 Electron/30.0.6 Safari/537.36&quot; version=&quot;24.4.8&quot; etag=&quot;6Xvsskr_ybMyY5RDnVPC&quot; type=&quot;device&quot; scale=&quot;1&quot; border=&quot;0&quot;&gt;&#10;  &lt;diagram name=&quot;Page-1&quot; id=&quot;Fty5eL_iGCNw0jSKHbG-&quot;&gt;&#10;    &lt;mxGraphModel dx=&quot;1038&quot; dy=&quot;704&quot; grid=&quot;1&quot; gridSize=&quot;10&quot; guides=&quot;1&quot; tooltips=&quot;1&quot; connect=&quot;1&quot; arrows=&quot;1&quot; fold=&quot;1&quot; page=&quot;1&quot; pageScale=&quot;1&quot; pageWidth=&quot;827&quot; pageHeight=&quot;1169&quot; math=&quot;0&quot; shadow=&quot;0&quot;&gt;&#10;      &lt;root&gt;&#10;        &lt;mxCell id=&quot;0&quot; /&gt;&#10;        &lt;mxCell id=&quot;1&quot; parent=&quot;0&quot; /&gt;&#10;        &lt;mxCell id=&quot;2&quot; value=&quot;&quot; style=&quot;sketch=0;points=[[0.015,0.015,0],[0.985,0.015,0],[0.985,0.985,0],[0.015,0.985,0],[0.25,0,0],[0.5,0,0],[0.75,0,0],[1,0.25,0],[1,0.5,0],[1,0.75,0],[0.75,1,0],[0.5,1,0],[0.25,1,0],[0,0.75,0],[0,0.5,0],[0,0.25,0]];verticalLabelPosition=bottom;html=1;verticalAlign=top;aspect=fixed;align=center;pointerEvents=1;shape=mxgraph.cisco19.rect;prIcon=ip_ip_gateway;fillColor=#FAFAFA;strokeColor=#3C708A;&quot; vertex=&quot;1&quot; parent=&quot;1&quot;&gt;&#10;          &lt;mxGeometry x=&quot;140&quot; y=&quot;840&quot; width=&quot;57.6&quot; height=&quot;45&quot; as=&quot;geometry&quot; /&gt;&#10;        &lt;/mxCell&gt;&#10;      &lt;/root&gt;&#10;    &lt;/mxGraphModel&gt;&#10;  &lt;/diagram&gt;&#10;&lt;/mxfile&gt;&#10;"><defs/><g><g><rect x="0" y="0" width="57.6" height="45" fill="none" stroke="none" pointer-events="all"/><path d="M 2.72 0 C 1.22 0 0 1.24 0 2.75 L 0 42.25 C 0 43.76 1.22 45 2.72 45 L 54.88 45 C 56.37 45 57.6 43.76 57.6 42.25 L 57.6 2.75 C 57.6 1.24 56.37 0 54.88 0 Z" fill="#fafafa" stroke="none" pointer-events="all"/><rect x="0" y="0" width="57.6" height="45" fill="none" stroke="none" pointer-events="all"/><path d="M 22.87 6.5 L 34.61 6.5 L 34.61 39.43 L 22.87 39.43 Z" fill="#00bceb" stroke="none" pointer-events="all"/><rect x="0" y="0" width="0" height="0" fill="none" stroke="#3c708a" pointer-events="all"/><path d="M 25.68 6.5 L 25.68 10.33 L 22.87 10.33 L 22.87 11.26 L 29.52 11.26 L 29.52 16.33 L 22.87 16.33 L 22.87 17.27 L 24.76 17.27 L 24.76 22.49 L 22.87 22.49 L 22.87 23.43 L 28.13 23.43 L 28.13 28.58 L 22.87 28.58 L 22.87 29.51 L 30.82 29.51 L 30.82 34.73 L 22.87 34.73 L 22.87 35.67 L 25.32 35.67 L 25.32 39.43 L 26.24 39.43 L 26.24 35.67 L 34.61 35.67 L 34.61 34.73 L 31.75 34.73 L 31.75 29.51 L 34.61 29.51 L 34.61 28.58 L 29.06 28.58 L 29.06 23.43 L 34.61 23.43 L 34.61 22.49 L 25.68 22.49 L 25.68 17.27 L 34.61 17.27 L 34.61 16.33 L 30.45 16.33 L 30.45 11.26 L 34.61 11.26 L 34.61 10.33 L 26.61 10.33 L 26.61 6.5 Z M 7.89 24.8 C 5.92 24.8 4.32 26.41 4.32 28.41 C 4.32 29.65 4.96 30.81 6.01 31.47 C 4.69 33.05 3.95 35.12 3.95 37.18 L 3.95 40.68 L 11.83 40.68 L 11.83 37.18 C 11.83 35.1 10.9 33.11 9.67 31.53 C 10.77 30.89 11.46 29.7 11.46 28.41 C 11.46 26.41 9.86 24.8 7.89 24.8 Z M 49.78 24.8 C 47.81 24.8 46.21 26.41 46.21 28.41 C 46.21 29.65 46.85 30.81 47.91 31.47 C 46.59 33.05 45.84 35.12 45.84 37.18 L 45.84 40.68 L 53.73 40.68 L 53.73 37.18 C 53.73 35.1 52.8 33.11 51.56 31.53 C 52.67 30.89 53.36 29.7 53.36 28.41 C 53.36 26.41 51.76 24.8 49.78 24.8 Z M 11.43 14.98 L 16.94 18.94 L 11.43 22.9 L 11.43 20.21 L 5.11 20.21 L 5.11 17.68 L 11.43 17.68 Z M 10.62 4.39 L 10.62 7.08 L 16.94 7.08 L 16.94 9.62 L 10.62 9.62 L 10.62 12.31 L 5.11 8.35 Z M 15.18 29.64 L 11.83 32.05 L 15.18 34.46 L 15.18 32.82 L 19.18 32.82 L 19.18 34.46 L 22.53 32.05 L 19.18 29.64 L 19.18 31.28 L 15.18 31.28 Z M 38.43 29.64 L 35.08 32.05 L 38.43 34.46 L 38.43 32.82 L 42.42 32.82 L 42.42 34.46 L 45.78 32.05 L 42.42 29.64 L 42.42 31.28 L 38.43 31.28 Z M 46.91 14.97 L 41.4 18.93 L 46.91 22.89 L 46.91 20.2 L 53.23 20.2 L 53.23 17.67 L 46.91 17.67 Z M 47.72 4.38 L 47.72 7.07 L 41.4 7.07 L 41.4 9.6 L 47.72 9.6 L 47.72 12.3 L 53.23 8.34 Z M 2.72 0 C 1.22 0 0 1.24 0 2.75 L 0 42.25 C 0 43.76 1.22 45 2.72 45 L 54.88 45 C 56.38 45 57.6 43.76 57.6 42.25 L 57.6 2.75 C 57.6 1.24 56.38 0 54.88 0 Z M 2.72 1.24 L 54.88 1.24 C 55.72 1.24 56.37 1.9 56.37 2.75 L 56.37 42.25 C 56.37 43.1 55.72 43.76 54.88 43.76 L 2.72 43.76 C 1.88 43.76 1.23 43.1 1.23 42.25 L 1.23 2.75 C 1.23 1.9 1.88 1.24 2.72 1.24 Z" fill="#3c708a" stroke="none" pointer-events="all"/></g></g></svg>